<svg width="514" height="484" viewBox="0 0 514 484" fill="none" xmlns="http://www.w3.org/2000/svg">
<path d="M300.6 420.67C304.68 430.75 274.75 448.48 235.42 464.37C196.09 480.26 162.25 488.31 158.18 478.23C154.1 468.15 180.8 442.42 220.13 426.52C259.46 410.63 296.53 410.58 300.61 420.67H300.6Z" fill="#FAF6EA"/>
<path d="M162.98 482.46C160.25 481.7 158.49 480.35 157.71 478.42C155.6 473.2 161.14 464.14 172.54 454.18C184.86 443.42 201.69 433.43 219.93 426.06C238.17 418.69 257.22 414.18 273.55 413.36C288.66 412.6 298.95 415.27 301.06 420.49C305.64 431.83 270.25 450.84 235.6 464.84C215.19 473.09 197.23 478.86 183.67 481.54C174.29 483.39 167.38 483.7 162.98 482.47V482.46ZM292.5 415.8C287.83 414.5 281.33 413.97 273.6 414.35C257.37 415.16 238.45 419.65 220.3 426.98C202.16 434.31 185.43 444.24 173.19 454.93C162.29 464.45 156.71 473.3 158.63 478.04C160.44 482.53 169.03 483.4 183.47 480.55C196.97 477.89 214.87 472.13 235.22 463.91C278.2 446.54 303.67 429.64 300.12 420.86C299.23 418.66 296.55 416.94 292.49 415.8H292.5Z" fill="black"/>
<path d="M217.57 407.51L154.34 251.07C152.91 247.54 156.39 242.48 160.34 240.89C156.03 242.83 151.59 244.74 146.97 246.61C142.61 248.37 138.34 249.99 134.14 251.51C138.09 249.92 144.11 251.14 145.53 254.67L208.75 411.09C213 421.61 188.58 430.28 196.2 449.2C197.71 452.92 212.07 451.82 227.78 445.47C243.49 439.12 254.59 429.94 253.08 426.21C245.42 407.31 221.83 418.04 217.58 407.53L217.57 407.51Z" fill="#FAF6EA"/>
<path d="M198.45 451.29C197.04 450.9 196.09 450.26 195.73 449.36C191.26 438.25 197.68 430.44 202.84 424.16C206.67 419.5 209.99 415.47 208.28 411.25L145.06 254.83C144.46 253.35 142.85 252.2 140.65 251.63C138.51 251.09 136.15 251.21 134.32 251.95L133.85 252.14L133.48 251.19L133.96 251.01C138.4 249.41 142.59 247.81 146.78 246.12C151.21 244.33 155.7 242.41 160.14 240.4L160.64 240.17L160.97 241.14L160.53 241.33C158.7 242.07 156.91 243.63 155.75 245.5C154.55 247.43 154.2 249.38 154.8 250.86L218.03 407.3C219.73 411.52 224.92 412.11 230.92 412.8C238.99 413.73 249.04 414.88 253.54 425.98C254.68 428.8 250.05 432.97 247.19 435.21C242.21 439.1 235.38 442.89 227.96 445.89C215.97 450.73 203.84 452.77 198.45 451.27V451.29ZM141.18 250.75C143.55 251.41 145.3 252.76 145.99 254.47L209.21 410.89C211.14 415.66 207.65 419.9 203.61 424.81C198.36 431.2 192.4 438.44 196.66 449C197.16 450.23 200.03 451.29 206.61 450.6C212.8 449.95 220.25 447.96 227.59 444.99C234.93 442.03 241.67 438.28 246.58 434.45C251.79 430.38 253.12 427.61 252.62 426.39C248.34 415.84 239.03 414.77 230.81 413.83C224.49 413.1 219.04 412.48 217.11 407.71L153.88 251.27C153.16 249.49 153.53 247.21 154.9 245C155.28 244.39 155.72 243.81 156.21 243.27C153.19 244.59 150.15 245.87 147.15 247.08C144.37 248.2 141.59 249.29 138.73 250.36C139.46 250.41 140.19 250.52 140.89 250.69C140.98 250.71 141.08 250.74 141.17 250.76L141.18 250.75Z" fill="black"/>
<path d="M159.17 77.3998C136.99 28.3998 119.97 7.24979 117.25 4.02979C117.32 4.11979 117.39 4.20974 117.45 4.29974C117.45 4.29974 117.45 4.29975 117.45 4.30975C117.6 4.53975 117.73 4.78974 117.83 5.04974C117.89 5.20974 117.94 5.36979 117.99 5.52979C120.31 14.0198 97.1199 30.9398 65.42 43.7598C33.72 56.5698 5.27996 60.5097 1.04996 52.7897L0.829987 52.3398C0.729987 52.0898 0.659945 51.8398 0.599945 51.5698C0.599945 51.5498 0.599996 51.5198 0.589996 51.4998C0.539996 51.2098 0.519989 50.9097 0.519989 50.5997H0.499969C0.499969 50.5997 1.59995 77.7697 21.36 133.1C43.78 195.85 80.1599 248.87 134.1 251.52C138.4 251.73 144.97 250.16 148.28 248.82C151.59 247.49 157.4 244.05 160.35 240.91C197.31 201.53 186.63 138.11 159.16 77.4097L159.17 77.3998Z" fill="#FAF6EA"/>
<path d="M115.91 249.05C85.5399 240.58 49.0299 211.96 20.9099 133.25C1.33994 78.4798 0.029989 50.8897 0.019989 50.6097V50.2598L1.01999 49.8597V50.5898C1.02999 50.8998 1.04995 51.1598 1.09995 51.3998C1.15995 51.6998 1.22997 51.9298 1.30997 52.1398L1.51999 52.5698C5.58999 59.9998 34.19 55.8397 65.25 43.2897C96.31 30.7397 119.76 13.8497 117.53 5.65973C117.49 5.51973 117.45 5.36975 117.39 5.23975C117.3 5.01975 117.18 4.79978 117.05 4.58978C117 4.51978 116.96 4.45973 116.92 4.40973C116.92 4.40973 116.89 4.36974 116.88 4.35974L117.64 3.71973C120.79 7.44973 137.61 28.5498 159.64 77.2098C201.34 169.34 183.25 217.27 160.74 241.26C157.56 244.65 151.55 248.06 148.49 249.29C145.44 250.53 138.75 252.25 134.1 252.02C128.4 251.74 122.29 250.85 115.91 249.07V249.05ZM1.30997 53.9697C2.26997 62.8597 6.22995 89.1897 21.8499 132.92C55.6899 227.63 101.6 249.41 134.15 251.01C138.45 251.22 145.02 249.6 148.11 248.35C151.2 247.1 157.05 243.7 160 240.56C182.3 216.8 200.18 169.24 158.72 77.6097C139.49 35.1097 124.25 13.7198 118.66 6.55975C118.91 15.6498 96.32 31.8097 65.63 44.2197C34.93 56.6297 7.43998 60.6997 1.31998 53.9797L1.30997 53.9697Z" fill="black"/>
<path d="M159.17 77.3998C136.99 28.3998 119.97 7.24979 117.25 4.02979C117.32 4.11979 117.39 4.20974 117.45 4.29974C117.45 4.29974 117.45 4.29975 117.45 4.30975C117.6 4.53975 117.73 4.78974 117.83 5.04974C117.89 5.20974 117.94 5.36979 117.99 5.52979C120.31 14.0198 97.1199 30.9398 65.42 43.7598C33.72 56.5698 5.27996 60.5097 1.04996 52.7897L0.829987 52.3398C0.729987 52.0898 0.659945 51.8398 0.599945 51.5698C0.599945 51.5498 0.599996 51.5198 0.589996 51.4998C0.539996 51.2098 0.519989 50.9097 0.519989 50.5997H0.499969C0.499969 50.5997 1.59995 77.7697 21.36 133.1C43.78 195.85 80.1599 248.87 134.1 251.52C138.4 251.73 144.97 250.16 148.28 248.82C151.59 247.49 157.4 244.05 160.35 240.91C197.31 201.53 186.63 138.11 159.16 77.4097L159.17 77.3998Z" fill="#FAF6EA"/>
<path d="M115.91 249.05C85.5399 240.58 49.0299 211.96 20.9099 133.25C1.33994 78.4798 0.029989 50.8897 0.019989 50.6097V50.2598L1.01999 49.8597V50.5898C1.02999 50.8998 1.04995 51.1598 1.09995 51.3998C1.15995 51.6998 1.22997 51.9298 1.30997 52.1398L1.51999 52.5698C5.58999 59.9998 34.19 55.8397 65.25 43.2897C96.31 30.7397 119.76 13.8497 117.53 5.65973C117.49 5.51973 117.45 5.36975 117.39 5.23975C117.3 5.01975 117.18 4.79978 117.05 4.58978C117 4.51978 116.96 4.45973 116.92 4.40973C116.92 4.40973 116.89 4.36974 116.88 4.35974L117.64 3.71973C120.79 7.44973 137.61 28.5498 159.64 77.2098C201.34 169.34 183.25 217.27 160.74 241.26C157.56 244.65 151.55 248.06 148.49 249.29C145.44 250.53 138.75 252.25 134.1 252.02C128.4 251.74 122.29 250.85 115.91 249.07V249.05ZM1.30997 53.9697C2.26997 62.8597 6.22995 89.1897 21.8499 132.92C55.6899 227.63 101.6 249.41 134.15 251.01C138.45 251.22 145.02 249.6 148.11 248.35C151.2 247.1 157.05 243.7 160 240.56C182.3 216.8 200.18 169.24 158.72 77.6097C139.49 35.1097 124.25 13.7198 118.66 6.55975C118.91 15.6498 96.32 31.8097 65.63 44.2197C34.93 56.6297 7.43998 60.6997 1.31998 53.9797L1.30997 53.9697Z" fill="black"/>
<path d="M117.45 4.30989C117.45 4.30989 117.45 4.30988 117.45 4.29988C117.39 4.20988 117.32 4.11992 117.25 4.02992C117.09 3.83992 116.98 3.70991 116.92 3.63991C116.9 3.61991 116.88 3.59991 116.87 3.57991C114.96 1.62991 111.03 0.669917 105.62 0.649917C93.55 0.609917 74.12 5.19989 53.27 13.6199C32.44 22.0399 15.28 32.2399 6.62997 40.6499C2.73997 44.4299 0.569957 47.8499 0.549957 50.5899C0.549957 50.8999 0.569965 51.1999 0.619965 51.4899C0.619965 51.5099 0.619974 51.5399 0.629974 51.5599C0.679974 51.8199 0.759955 52.0799 0.859955 52.3299L1.07999 52.7799C5.30999 60.4999 33.75 56.5599 65.45 43.7499C97.15 30.9399 120.34 14.0099 118.02 5.51991C117.98 5.35991 117.93 5.19987 117.86 5.03987C117.76 4.77987 117.63 4.53988 117.48 4.29988L117.45 4.30989Z" fill="#FAF6EA"/>
<path d="M5.61995 56.3299C3.16995 55.6499 1.45995 54.5499 0.619949 53.0199L0.389969 52.5399C0.269969 52.2399 0.179949 51.9499 0.119949 51.6499C0.049949 51.2799 0.0199832 50.9499 0.0299832 50.5799C0.0499832 47.7499 2.13996 44.2799 6.25996 40.2799C15.33 31.4699 32.82 21.3299 53.07 13.1499C73.33 4.9599 92.9699 0.0998934 105.61 0.139893C111.34 0.159893 115.24 1.19985 117.22 3.21985L117.63 3.68988C117.75 3.83988 117.81 3.91989 117.87 4.00989V4.02991C118.05 4.28991 118.2 4.56985 118.31 4.84985C118.38 5.01985 118.44 5.19988 118.49 5.37988C120.9 14.1999 97.67 31.2499 65.6199 44.1999C39.6799 54.6799 16.03 59.2199 5.62996 56.3199L5.61995 56.3299ZM112.73 1.9599C110.84 1.4299 108.45 1.1599 105.6 1.1499C93.0799 1.1099 73.58 5.93991 53.44 14.0899C33.31 22.2199 15.93 32.2899 6.95998 41.0099C3.09998 44.7599 1.04998 48.0799 1.02998 50.5999C1.02998 50.9099 1.04998 51.1698 1.08998 51.4099C1.14998 51.7099 1.21994 51.9399 1.29994 52.1499L1.50996 52.5699C5.57996 59.9899 34.1799 55.8399 65.2399 43.2899C96.2999 30.7399 119.75 13.8499 117.52 5.65985C117.48 5.51985 117.44 5.36986 117.38 5.22986C117.29 5.00986 117.18 4.7899 117.04 4.5799V4.55988C116.99 4.49988 116.94 4.43988 116.9 4.37988L116.54 3.9599C115.7 3.0999 114.42 2.4299 112.74 1.9599H112.73Z" fill="black"/>
<mask id="mask0_44_3" style="mask-type:luminance" maskUnits="userSpaceOnUse" x="27" y="108" width="149" height="135">
<path d="M91.68 108.72C59.81 121.6 31.58 126.43 27.77 119.76L27.6599 119.54C29.5599 125.67 31.77 132.34 34.36 139.57C53.88 194.2 85.56 240.38 132.53 242.68C136.27 242.86 142 241.5 144.87 240.33C147.75 239.17 152.81 236.18 155.38 233.44C181.63 205.47 179.36 161.18 164.99 118" fill="white"/>
</mask>
<g mask="url(#mask0_44_3)">
<path d="M38 82.6029L0.584442 216.701L4.29278 217.736L41.7084 83.6376L38 82.6029Z" fill="#FFE2A3"/>
<path d="M41.7061 83.6385L4.2905 217.737L7.99883 218.771L45.4145 84.6732L41.7061 83.6385Z" fill="#FFE2A2"/>
<path d="M45.4053 84.672L7.98972 218.77L11.698 219.805L49.1137 85.7066L45.4053 84.672Z" fill="#FFE1A1"/>
<path d="M49.1118 85.7047L11.6962 219.803L15.4045 220.837L52.8201 86.7394L49.1118 85.7047Z" fill="#FFE1A0"/>
<path d="M52.8206 86.7409L15.405 220.839L19.1134 221.874L56.529 87.7756L52.8206 86.7409Z" fill="#FFE09F"/>
<path d="M56.5298 87.764L19.1142 221.862L22.8225 222.897L60.2381 88.7987L56.5298 87.764Z" fill="#FFE09E"/>
<path d="M60.2262 88.807L22.8106 222.905L26.519 223.94L63.9346 89.8417L60.2262 88.807Z" fill="#FFE09D"/>
<path d="M63.9351 89.8429L26.5195 223.941L30.2278 224.976L67.6434 90.8776L63.9351 89.8429Z" fill="#FFDF9C"/>
<path d="M67.6415 90.8761L30.2259 224.974L33.9343 226.009L71.3499 91.9108L67.6415 90.8761Z" fill="#FFDF9B"/>
<path d="M71.3504 91.912L33.9348 226.01L37.6431 227.045L75.0587 92.9466L71.3504 91.912Z" fill="#FFDE9A"/>
<path d="M75.0568 92.945L37.6412 227.043L41.3496 228.078L78.7652 93.9797L75.0568 92.945Z" fill="#FFDE99"/>
<path d="M78.756 93.9782L41.3404 228.076L45.0488 229.111L82.4644 95.0129L78.756 93.9782Z" fill="#FFDE98"/>
<path d="M82.4749 95.0042L45.0592 229.102L48.7676 230.137L86.1832 96.0389L82.4749 95.0042Z" fill="#FFDD97"/>
<path d="M86.1713 96.047L48.7557 230.145L52.464 231.18L89.8796 97.0817L86.1713 96.047Z" fill="#FFDD96"/>
<path d="M89.8801 97.0731L52.4645 231.171L56.1728 232.206L93.5884 98.1078L89.8801 97.0731Z" fill="#FFDD95"/>
<path d="M93.5866 98.1161L56.171 232.214L59.8794 233.249L97.295 99.1508L93.5866 98.1161Z" fill="#FFDC94"/>
<path d="M97.2858 99.1392L59.8701 233.237L63.5785 234.272L100.994 100.174L97.2858 99.1392Z" fill="#FFDC93"/>
<path d="M101.002 100.185L63.5863 234.283L67.2947 235.318L104.71 101.22L101.002 100.185Z" fill="#FFDB92"/>
<path d="M104.701 101.208L67.2855 235.306L70.9938 236.341L108.409 102.243L104.701 101.208Z" fill="#FFDB91"/>
<path d="M108.398 102.251L70.9819 236.349L74.6903 237.384L112.106 103.286L108.398 102.251Z" fill="#FFDB90"/>
<path d="M112.116 103.277L74.7008 237.375L78.4091 238.41L115.825 104.312L112.116 103.277Z" fill="#FFDA8F"/>
<path d="M115.816 104.31L78.3999 238.408L82.1083 239.443L119.524 105.345L115.816 104.31Z" fill="#FFDA8D"/>
<path d="M119.532 105.356L82.1161 239.454L85.8244 240.489L123.24 106.391L119.532 105.356Z" fill="#FFD98C"/>
<path d="M123.231 106.38L85.8152 240.478L89.5236 241.512L126.939 107.414L123.231 106.38Z" fill="#FFD98B"/>
<path d="M126.927 107.423L89.5117 241.521L93.2201 242.555L130.636 108.457L126.927 107.423Z" fill="#FFD98A"/>
<path d="M130.646 108.448L93.2305 242.546L96.9388 243.581L134.354 109.483L130.646 108.448Z" fill="#FFD889"/>
<path d="M134.343 109.491L96.927 243.589L100.635 244.624L138.051 110.526L134.343 109.491Z" fill="#FFD888"/>
<path d="M138.052 110.515L100.636 244.613L104.345 245.647L141.76 111.549L138.052 110.515Z" fill="#FFD787"/>
<path d="M141.761 111.551L104.345 245.649L108.053 246.683L145.469 112.585L141.761 111.551Z" fill="#FFD786"/>
<path d="M145.457 112.584L108.041 246.682L111.75 247.716L149.165 113.618L145.457 112.584Z" fill="#FFD785"/>
<path d="M149.176 113.62L111.76 247.718L115.469 248.752L152.884 114.654L149.176 113.62Z" fill="#FFD684"/>
<path d="M152.872 114.652L115.457 248.75L119.165 249.785L156.581 115.687L152.872 114.652Z" fill="#FFD683"/>
<path d="M156.582 115.686L119.166 249.784L122.874 250.819L160.29 116.721L156.582 115.686Z" fill="#FFD682"/>
<path d="M160.288 116.722L122.872 250.82L126.58 251.854L163.996 117.756L160.288 116.722Z" fill="#FFD581"/>
<path d="M163.987 117.755L126.571 251.853L130.28 252.887L167.695 118.789L163.987 117.755Z" fill="#FFD580"/>
<path d="M167.693 118.788L130.278 252.886L133.986 253.92L171.402 119.822L167.693 118.788Z" fill="#FFD47F"/>
<path d="M171.402 119.824L133.987 253.922L137.695 254.957L175.111 120.859L171.402 119.824Z" fill="#FFD47E"/>
<path d="M175.111 120.847L137.696 254.945L141.404 255.98L178.82 121.882L175.111 120.847Z" fill="#FFD47D"/>
<path d="M178.817 121.893L141.402 255.991L145.11 257.025L182.526 122.927L178.817 121.893Z" fill="#FFD37C"/>
<path d="M182.527 122.926L145.111 257.024L148.819 258.059L186.235 123.961L182.527 122.926Z" fill="#FFD37B"/>
<path d="M186.223 123.959L148.807 258.057L152.516 259.092L189.931 124.994L186.223 123.959Z" fill="#FFD27A"/>
<path d="M189.932 124.995L152.516 259.093L156.225 260.127L193.64 126.029L189.932 124.995Z" fill="#FFD279"/>
<path d="M193.643 126.028L156.227 260.126L165.686 262.765L203.101 128.667L193.643 126.028Z" fill="#FFD279"/>
</g>
<path d="M116.65 240.61C90.19 233.23 58.38 208.3 33.89 139.74C31.46 132.93 29.2 126.18 27.18 119.69L28.11 119.32L28.2199 119.54C31.8799 125.93 60.27 120.87 91.49 108.25L91.86 109.18C62.29 121.13 35.9799 126.12 28.7899 121.48C30.6299 127.31 32.66 133.33 34.83 139.4C64.28 221.83 104.23 240.79 132.55 242.17C136.29 242.35 142 240.94 144.68 239.86C147.37 238.78 152.45 235.82 155.01 233.09C171.09 215.95 185.8 182.1 164.51 118.15L165.46 117.83C186.91 182.25 172.01 216.44 155.74 233.77C152.96 236.73 147.72 239.7 145.06 240.78C142.4 241.86 136.56 243.36 132.51 243.16C127.54 242.92 122.22 242.14 116.66 240.59L116.65 240.61Z" fill="black"/>
<mask id="mask1_44_3" style="mask-type:luminance" maskUnits="userSpaceOnUse" x="27" y="105" width="139" height="29">
<path d="M96.57 133.9C133.88 133.73 164.24 127.5 165.33 119.88C165.34 119.8 165.34 119.72 165.35 119.64C165.32 119.31 165.29 118.99 165.26 118.66C165.24 118.58 165.21 118.5 165.18 118.42C165.09 118.22 165.03 118.07 165 118C164.99 117.98 164.98 117.96 164.97 117.94C163.83 115.74 160.23 113.71 154.75 111.95C142.54 108.03 120.99 105.49 96.45 105.6C71.93 105.71 50.4199 108.44 38.2299 112.46C32.7499 114.27 29.1699 116.34 28.0399 118.55C27.9199 118.79 27.81 119.04 27.75 119.29C27.72 119.61 27.7 119.94 27.67 120.26L27.69 120.5C28.85 128.1 59.26 134.07 96.57 133.9Z" fill="white"/>
</mask>
<g mask="url(#mask1_44_3)">
<path d="M38.962 79.1653L25.5567 127.21L28.6004 128.059L42.0057 80.0146L38.962 79.1653Z" fill="#FFE2A3"/>
<path d="M42.0077 80.0157L28.6024 128.061L31.6462 128.91L45.0515 80.8649L42.0077 80.0157Z" fill="#FFE2A2"/>
<path d="M45.0561 80.8562L31.6508 128.901L34.6945 129.75L48.0998 81.7055L45.0561 80.8562Z" fill="#FFE1A1"/>
<path d="M48.0919 81.7166L34.6866 129.761L37.7303 130.611L51.1357 82.5658L48.0919 81.7166Z" fill="#FFE1A0"/>
<path d="M51.1376 82.5667L37.7323 130.612L40.776 131.461L54.1813 83.4159L51.1376 82.5667Z" fill="#FFE09F"/>
<path d="M54.186 83.4075L40.7807 131.452L43.8244 132.302L57.2297 84.2567L54.186 83.4075Z" fill="#FFE09E"/>
<path d="M57.2317 84.2577L43.8264 132.302L46.8702 133.152L60.2755 85.1069L57.2317 84.2577Z" fill="#FFE09D"/>
<path d="M60.2675 85.1179L46.8622 133.163L49.9059 134.012L63.3112 85.9672L60.2675 85.1179Z" fill="#FFDF9C"/>
<path d="M63.3159 85.9585L49.9106 134.003L52.9543 134.853L66.3597 86.8078L63.3159 85.9585Z" fill="#FFDF9B"/>
<path d="M66.352 86.8062L52.9467 134.851L55.9904 135.7L69.3957 87.6554L66.352 86.8062Z" fill="#FFDE9A"/>
<path d="M69.3977 87.6565L55.9924 135.701L59.0362 136.551L72.4415 88.5058L69.3977 87.6565Z" fill="#FFDE99"/>
<path d="M72.4462 88.5071L59.0409 136.552L62.0846 137.401L75.4899 89.3564L72.4462 88.5071Z" fill="#FFDE98"/>
<path d="M75.4819 89.3574L62.0766 137.402L65.1203 138.252L78.5256 90.2067L75.4819 89.3574Z" fill="#FFDD97"/>
<path d="M78.5276 90.2078L65.1223 138.253L68.1661 139.102L81.5714 91.0571L78.5276 90.2078Z" fill="#FFDD96"/>
<path d="M81.5761 91.0484L68.1707 139.093L71.2145 139.943L84.6198 91.8976L81.5761 91.0484Z" fill="#FFDD95"/>
<path d="M84.6218 91.8987L71.2165 139.944L74.2602 140.793L87.6656 92.748L84.6218 91.8987Z" fill="#FFDC94"/>
<path d="M87.6576 92.7588L74.2522 140.804L77.2959 141.653L90.7013 93.6081L87.6576 92.7588Z" fill="#FFDC93"/>
<path d="M90.706 93.5996L77.3006 141.645L80.3443 142.494L93.7497 94.4489L90.706 93.5996Z" fill="#FFDB92"/>
<path d="M93.7517 94.45L80.3463 142.495L83.3901 143.344L96.7955 95.2992L93.7517 94.45Z" fill="#FFDB91"/>
<path d="M96.7975 95.3001L83.3921 143.345L86.4358 144.194L99.8412 96.1493L96.7975 95.3001Z" fill="#FFDB90"/>
<path d="M99.8262 96.148L86.4209 144.193L89.4646 145.042L102.87 96.9972L99.8262 96.148Z" fill="#FFDA8F"/>
<path d="M102.872 96.9983L89.4666 145.043L92.5103 145.892L105.916 97.8476L102.872 96.9983Z" fill="#FFDA8D"/>
<path d="M105.918 97.8487L92.5123 145.894L95.5561 146.743L108.961 98.698L105.918 97.8487Z" fill="#FFD98C"/>
<path d="M108.966 98.6892L95.5608 146.734L98.6045 147.583L112.01 99.5385L108.966 98.6892Z" fill="#FFD98B"/>
<path d="M112.012 99.5496L98.6065 147.594L101.65 148.444L115.056 100.399L112.012 99.5496Z" fill="#FFD98A"/>
<path d="M115.048 100.4L101.642 148.445L104.686 149.294L118.091 101.249L115.048 100.4Z" fill="#FFD889"/>
<path d="M118.096 101.241L104.691 149.285L107.734 150.135L121.14 102.09L118.096 101.241Z" fill="#FFD888"/>
<path d="M121.142 102.091L107.736 150.136L110.78 150.985L124.185 102.94L121.142 102.091Z" fill="#FFD787"/>
<path d="M124.187 102.951L110.782 150.996L113.826 151.845L127.231 103.8L124.187 102.951Z" fill="#FFD786"/>
<path d="M127.226 103.792L113.821 151.837L116.864 152.686L130.27 104.641L127.226 103.792Z" fill="#FFD785"/>
<path d="M130.262 104.639L116.857 152.684L119.9 153.534L133.306 105.489L130.262 104.639Z" fill="#FFD684"/>
<path d="M133.308 105.49L119.902 153.535L122.946 154.384L136.351 106.339L133.308 105.49Z" fill="#FFD683"/>
<path d="M136.356 106.33L122.951 154.375L125.995 155.225L139.4 107.18L136.356 106.33Z" fill="#FFD682"/>
<path d="M139.402 107.19L125.997 155.235L129.04 156.085L142.446 108.04L139.402 107.19Z" fill="#FFD581"/>
<path d="M142.438 108.041L129.032 156.086L132.076 156.935L145.481 108.89L142.438 108.041Z" fill="#FFD580"/>
<path d="M145.486 108.882L132.081 156.927L135.124 157.776L148.53 109.731L145.486 108.882Z" fill="#FFD47F"/>
<path d="M148.532 109.732L135.126 157.777L138.17 158.626L151.575 110.581L148.532 109.732Z" fill="#FFD47E"/>
<path d="M151.577 110.592L138.172 158.637L141.216 159.486L154.621 111.441L151.577 110.592Z" fill="#FFD47D"/>
<path d="M154.616 111.433L141.211 159.478L144.254 160.327L157.66 112.282L154.616 111.433Z" fill="#FFD37C"/>
<path d="M157.662 112.283L144.256 160.328L147.3 161.177L160.705 113.132L157.662 112.283Z" fill="#FFD37B"/>
<path d="M160.71 113.124L147.305 161.168L150.348 162.018L163.754 113.973L160.71 113.124Z" fill="#FFD27A"/>
<path d="M163.746 113.981L150.341 162.026L153.385 162.875L166.79 114.83L163.746 113.981Z" fill="#FFD279"/>
<path d="M166.79 114.828L153.385 162.873L154.319 163.133L167.725 115.089L166.79 114.828Z" fill="#FFD279"/>
</g>
<path d="M40.7899 128.77C32.6399 126.5 27.67 123.68 27.19 120.57L27.17 120.3L27.25 119.25C27.33 118.9 27.44 118.63 27.59 118.33C28.76 116.03 32.28 113.9 38.07 111.99C50.81 107.79 72.63 105.21 96.44 105.1C120.27 104.99 142.12 107.38 154.9 111.47C160.68 113.32 164.22 115.42 165.41 117.7L165.64 118.22C165.69 118.35 165.71 118.43 165.74 118.51L165.85 119.73C165.85 119.8 165.85 119.87 165.83 119.94C164.69 127.87 134.27 134.21 96.58 134.38C73.67 134.48 53.42 132.28 40.8 128.76L40.7899 128.77ZM152.08 111.68C139.16 108.07 118.67 106.01 96.44 106.11C72.73 106.22 51.03 108.77 38.38 112.94C32.93 114.74 29.5099 116.76 28.4799 118.78C28.3599 119.01 28.2799 119.22 28.2299 119.41L28.18 120.45C29.29 127.74 59.97 133.56 96.56 133.39C133.15 133.23 163.77 127.13 164.83 119.8C164.83 119.76 164.83 119.72 164.83 119.68L164.74 118.7C164.74 118.7 164.72 118.67 164.69 118.61L164.52 118.2C163.46 116.16 160.02 114.17 154.58 112.42C153.78 112.16 152.94 111.91 152.07 111.67L152.08 111.68Z" fill="black"/>
<path d="M513.45 331.58C497.9 322.74 442.6 293.73 427.06 284.89C413.63 277.25 400.1 269.64 384.85 266.37C371.93 263.6 358.74 262.27 345.83 259.44C332.97 256.61 320.62 251.98 308.21 247.6C291.08 241.56 273.99 235.29 257.07 228.73C236.16 220.61 218.17 212.69 196.22 221.45C182.74 226.83 169.66 233.22 157.12 240.55C145.4 247.4 130.03 254.96 123.67 267.61C119.72 275.47 117.22 284.63 118.2 293.57C119.09 301.76 124.32 315.12 134.03 315.85C138.73 322.21 146.36 327.12 154.21 327.99C148.47 332.48 146.41 340.74 148.39 347.75C152.67 362.9 169.58 368.12 183.63 367.87C182.19 367.9 185.18 375.18 185.45 375.81C186.79 379.03 188.85 381.73 191.48 384.06C196.17 388.2 202.3 390.74 208.56 390.94C214.82 391.14 220.58 387.99 226.64 387.3C236.98 386.12 247.32 388.21 257.66 388.36C287.19 388.78 313.41 374.83 342.44 372.21C363.32 370.33 381.27 384.02 397.56 395.1C413.03 405.63 463.42 442.79 479.56 452.24" fill="#FAF6EA"/>
<path d="M469.99 308.66C452.58 299.36 434.58 289.75 426.81 285.32C413.72 277.87 400.17 270.16 384.74 266.86C378.43 265.51 371.95 264.48 365.68 263.49C359.12 262.45 352.33 261.38 345.72 259.93C334.4 257.44 323.31 253.5 312.59 249.69C311.07 249.15 309.56 248.61 308.04 248.08C289.64 241.6 272.9 235.42 256.88 229.2L253.79 228C234.09 220.31 217.07 213.66 196.39 221.92C182.97 227.28 169.84 233.69 157.36 240.99C155.97 241.8 154.53 242.62 153.06 243.46C142.08 249.72 129.64 256.82 124.1 267.84C121.02 273.97 117.58 283.4 118.68 293.52C119.62 302.18 125.01 314.67 134.05 315.36L134.28 315.38L134.42 315.56C139.25 322.1 146.86 326.68 154.26 327.5L155.48 327.64L154.51 328.4C149.17 332.57 146.85 340.49 148.87 347.63C151.63 357.43 162.21 367.76 183.62 367.39L183.64 368.39C183.7 368.39 183.76 368.34 183.78 368.31C183.49 368.85 184.45 372.14 185.91 375.64C187.18 378.68 189.11 381.32 191.81 383.71C196.46 387.81 202.57 390.27 208.58 390.46C212.02 390.57 215.5 389.57 218.86 388.6C221.38 387.87 223.98 387.12 226.59 386.83C233.13 386.08 239.75 386.64 246.16 387.18C249.94 387.5 253.85 387.83 257.68 387.88C274.08 388.12 289.77 383.81 304.94 379.65C317.03 376.33 329.53 372.9 342.41 371.74C361.86 369.99 378.97 381.75 394.06 392.12C395.33 393 396.6 393.86 397.85 394.71C403.09 398.28 412.27 404.85 422.9 412.46C443.51 427.22 469.17 445.59 479.82 451.83L479.31 452.69C468.62 446.43 442.94 428.04 422.31 413.27C411.69 405.66 402.51 399.09 397.28 395.53C396.03 394.68 394.76 393.81 393.49 392.93C378.54 382.65 361.59 371 342.49 372.72C329.7 373.87 317.24 377.29 305.19 380.6C289.95 384.78 274.2 389.11 257.65 388.87C253.78 388.81 249.86 388.48 246.06 388.16C239.7 387.62 233.13 387.07 226.69 387.81C224.17 388.1 221.6 388.84 219.13 389.55C215.7 390.54 212.15 391.56 208.54 391.45C206.44 391.38 204.33 391.05 202.27 390.48C198.21 389.35 194.34 387.27 191.14 384.45C188.32 381.96 186.31 379.2 184.98 376.02C184.22 374.2 182.64 370.18 182.76 368.39C175.23 368.4 167.93 366.87 162.12 364.04C154.8 360.48 149.88 354.9 147.9 347.89C145.89 340.76 147.99 332.9 153.01 328.33C145.77 327.17 138.5 322.66 133.74 316.32C129.35 315.9 125.42 312.94 122.36 307.75C119.95 303.68 118.21 298.39 117.69 293.61C116.56 283.24 120.07 273.62 123.21 267.37C128.89 256.08 141.47 248.91 152.57 242.57C154.04 241.73 155.47 240.91 156.86 240.11C169.39 232.79 182.56 226.35 196.03 220.98C217.07 212.58 234.26 219.29 254.16 227.06L257.25 228.26C273.26 234.48 289.99 240.65 308.38 247.13C309.9 247.67 311.42 248.21 312.93 248.75C323.62 252.55 334.69 256.49 345.94 258.96C352.52 260.41 359.29 261.48 365.84 262.51C372.12 263.5 378.62 264.53 384.95 265.89C400.53 269.23 414.75 277.32 427.3 284.46C435.06 288.88 453.06 298.49 470.46 307.79C473.9 309.63 477.36 311.48 480.76 313.3C494.6 320.7 507.44 327.61 513.69 331.16" fill="black"/>
<path d="M133.44 315.68C133.59 314.62 133.52 313.58 133.45 312.48C133.4 311.63 133.34 310.76 133.4 309.88C133.51 308.01 133.92 305.98 134.69 303.48C135.87 299.66 137.83 295.8 140.38 292.32C143.8 287.65 148.16 283.93 151.98 280.9C155.76 277.9 159.75 275.02 163.6 272.24C170.67 267.14 177.98 261.86 184.27 255.65L184.97 256.36C178.63 262.63 171.28 267.93 164.18 273.05C160.34 275.82 156.36 278.69 152.59 281.68C148.82 284.67 144.52 288.34 141.17 292.91C138.69 296.3 136.77 300.05 135.63 303.77C134.88 306.19 134.49 308.15 134.38 309.94C134.33 310.75 134.38 311.56 134.43 312.42C134.5 313.52 134.57 314.67 134.41 315.82L133.42 315.68H133.44Z" fill="black"/>
<path d="M154.57 328.33L154.12 327.44C164.91 322.07 178.05 313.01 189.29 303.19L189.95 303.94C178.65 313.81 165.43 322.93 154.57 328.33Z" fill="black"/>
<path d="M181.92 367.92C182.35 363.18 186.3 354.08 189.47 350.54C192.32 347.36 195.76 344.72 199.09 342.16L200.14 341.35C201.86 340.02 203.57 338.57 203.87 336.61L204.86 336.76C204.5 339.08 202.64 340.69 200.76 342.14L199.7 342.95C196.41 345.47 193 348.08 190.21 351.2C187.14 354.62 183.32 363.42 182.91 368L181.91 367.91L181.92 367.92Z" fill="black"/>
<path d="M197.35 312.52C198.76 306.11 204.53 301.03 211.07 300.44L211.16 301.44C205.14 301.98 199.63 306.83 198.33 312.74L197.35 312.52Z" fill="black"/>
<path d="M205.97 317.87C204.92 317.58 203.88 317.25 202.86 316.89L203.19 315.95C207.11 317.32 211.2 318.2 215.35 318.56L215.26 319.56C212.11 319.29 209 318.73 205.97 317.88V317.87Z" fill="black"/>
<path d="M182.38 274.01L182.09 273.05C187.3 271.47 190.65 266.39 193.61 261.89C196.92 256.86 200.74 252.06 206.23 251.03L206.42 252.01C201.3 252.98 197.64 257.6 194.45 262.44C191.4 267.07 187.94 272.32 182.39 274L182.38 274.01Z" fill="black"/>
<path d="M195.51 275.47L195.21 274.51C197.48 273.8 199.95 273.91 202.13 274.01C204.9 274.13 207.75 274.26 210.44 275.27L210.09 276.21C207.56 275.26 204.78 275.13 202.09 275.01C199.89 274.91 197.62 274.81 195.52 275.47H195.51Z" fill="black"/>
<path d="M333.25 305.28C318.5 301.17 304.6 294.75 291.88 286.18L292.44 285.35C305.94 294.44 320.77 301.11 336.55 305.12L336.3 306.09C335.28 305.83 334.26 305.56 333.25 305.27V305.28Z" fill="black"/>
<path d="M256.93 308.53C252.9 307.41 248.93 306.08 245.02 304.55L245.38 303.62C256.84 308.11 268.86 310.84 281.12 311.75L281.05 312.75C272.87 312.15 264.8 310.74 256.93 308.54V308.53Z" fill="black"/>
<path d="M310.69 304.29C303.98 301.09 297.28 297.62 290.78 293.99L291.27 293.12C297.75 296.74 304.43 300.2 311.12 303.39L310.69 304.29Z" fill="black"/>
<path d="M292.8 320.64L292.48 319.69C299.06 317.47 306.2 316.53 313.13 316.99L313.06 317.99C306.26 317.54 299.25 318.46 292.79 320.64H292.8Z" fill="black"/>
<path d="M241.96 238.96C239.69 238.18 237.73 236.75 235.84 235.37L235.02 234.77C228.6 230.15 221.53 226.56 214.02 224.1L214.33 223.15C221.94 225.64 229.1 229.27 235.61 233.96L236.44 234.56C238.27 235.9 240.17 237.28 242.29 238.01L241.97 238.96H241.96Z" fill="black"/>
<path d="M162.54 350.99C158.1 349.05 154.09 346.35 150.61 342.97L151.31 342.25C154.7 345.54 158.61 348.17 162.94 350.07L162.54 350.99Z" fill="black"/>
</svg>
