<svg width="535" height="349" viewBox="0 0 535 349" fill="none" xmlns="http://www.w3.org/2000/svg">
<path d="M526.72 315.17L519.1 314.69C517.51 314.59 516.3 313.22 516.4 311.63L520.85 240.16C520.94 238.64 522.21 237.45 523.73 237.45C523.79 237.45 523.85 237.45 523.91 237.45L531.53 237.93C532.3 237.98 533.01 238.32 533.52 238.9C534.03 239.48 534.29 240.22 534.24 240.99L529.79 312.46C529.7 313.98 528.43 315.17 526.91 315.17C526.91 315.17 526.79 315.17 526.73 315.17H526.72Z" fill="#415E43"/>
<path d="M523.73 237.95C523.73 237.95 523.83 237.95 523.88 237.95L531.51 238.43C532.83 238.51 533.83 239.65 533.75 240.96L529.3 312.43C529.22 313.7 528.17 314.67 526.92 314.67C526.87 314.67 526.82 314.67 526.77 314.67L519.15 314.19C517.83 314.11 516.83 312.97 516.91 311.66L521.36 240.19C521.44 238.92 522.49 237.95 523.74 237.95M523.73 236.95C521.95 236.95 520.46 238.35 520.35 240.13L515.9 311.6C515.78 313.46 517.21 315.08 519.07 315.19L526.69 315.67C526.76 315.67 526.83 315.67 526.9 315.67C528.68 315.67 530.17 314.27 530.28 312.49L534.73 241.02C534.85 239.16 533.42 237.54 531.56 237.43L523.93 236.95C523.86 236.95 523.79 236.95 523.72 236.95H523.73Z" fill="black"/>
<path d="M514.27 314.51C513.87 314.49 513.5 314.3 513.23 314C512.96 313.7 512.83 313.31 512.86 312.91L517.5 238.44C517.55 237.65 518.21 237.03 519 237.03L519.71 237.07C520.54 237.12 521.17 237.84 521.12 238.67L516.48 313.14C516.43 313.93 515.77 314.55 514.98 314.55L514.27 314.51Z" fill="#415E43"/>
<path d="M519 237.53C519 237.53 519.04 237.53 519.06 237.53L519.67 237.57C520.23 237.6 520.65 238.08 520.61 238.64L515.97 313.11C515.94 313.64 515.49 314.05 514.97 314.05C514.95 314.05 514.93 314.05 514.91 314.05L514.3 314.01C513.74 313.98 513.32 313.5 513.36 312.94L518 238.47C518.03 237.94 518.48 237.53 519 237.53ZM519 236.53C517.94 236.53 517.06 237.36 517 238.41L512.36 312.88C512.29 313.98 513.13 314.94 514.24 315.01L514.85 315.05C514.85 315.05 514.93 315.05 514.98 315.05C516.04 315.05 516.92 314.22 516.98 313.17L521.62 238.7C521.65 238.16 521.48 237.65 521.12 237.25C520.77 236.85 520.27 236.61 519.74 236.57L519.13 236.53C519.13 236.53 519.05 236.53 519 236.53Z" fill="black"/>
<path d="M510.34 314.27C509.94 314.25 509.57 314.06 509.3 313.76C509.03 313.46 508.9 313.07 508.93 312.67L513.57 238.2C513.62 237.41 514.28 236.79 515.07 236.79L515.78 236.83C516.61 236.88 517.24 237.6 517.19 238.43L512.55 312.9C512.5 313.69 511.84 314.31 511.05 314.31L510.34 314.27Z" fill="#415E43"/>
<path d="M515.07 237.29C515.07 237.29 515.11 237.29 515.13 237.29L515.74 237.33C516.3 237.36 516.72 237.84 516.68 238.4L512.04 312.87C512.01 313.4 511.56 313.81 511.04 313.81C511.02 313.81 511 313.81 510.98 313.81L510.37 313.77C509.81 313.74 509.39 313.26 509.43 312.7L514.07 238.23C514.1 237.7 514.55 237.29 515.07 237.29ZM515.07 236.29C514.01 236.29 513.13 237.12 513.07 238.17L508.43 312.64C508.36 313.74 509.2 314.7 510.31 314.77L510.92 314.81C510.92 314.81 511 314.81 511.05 314.81C512.11 314.81 512.99 313.98 513.05 312.93L517.69 238.46C517.72 237.92 517.55 237.41 517.19 237.01C516.84 236.61 516.34 236.37 515.81 236.33L515.2 236.29C515.2 236.29 515.12 236.29 515.07 236.29Z" fill="black"/>
<path d="M506.3 313.89L501.75 313.61C500.16 313.51 498.95 312.14 499.05 310.55L503.5 239.08C503.59 237.56 504.86 236.37 506.38 236.37C506.44 236.37 506.5 236.37 506.56 236.37L511.11 236.65C512.7 236.75 513.91 238.12 513.81 239.71L509.36 311.18C509.27 312.7 508 313.89 506.48 313.89C506.48 313.89 506.36 313.89 506.3 313.89Z" fill="#415E43"/>
<path d="M506.38 236.87C506.38 236.87 506.48 236.87 506.53 236.87L511.08 237.15C512.4 237.23 513.4 238.37 513.32 239.68L508.87 311.15C508.79 312.42 507.74 313.39 506.49 313.39C506.44 313.39 506.39 313.39 506.34 313.39L501.79 313.11C500.47 313.03 499.47 311.89 499.55 310.58L504 239.11C504.08 237.84 505.13 236.87 506.38 236.87ZM506.38 235.87C504.6 235.87 503.11 237.27 503 239.05L498.55 310.52C498.43 312.38 499.86 314 501.72 314.11L506.27 314.39C506.34 314.39 506.41 314.39 506.48 314.39C508.26 314.39 509.75 312.99 509.86 311.21L514.31 239.74C514.43 237.88 513 236.26 511.14 236.15L506.59 235.87C506.52 235.87 506.45 235.87 506.38 235.87Z" fill="black"/>
<path d="M393.11 231.34L388.57 304.28L431.72 300.12L435.41 240.82L393.11 231.34Z" fill="#FAF6EA"/>
<path d="M388.03 304.84L392.65 230.73L435.94 240.43L432.19 300.59L388.03 304.84ZM393.57 231.96L389.1 303.73L431.25 299.67L434.89 241.22L393.57 231.96Z" fill="black"/>
<path d="M497.15 313.98C496.75 313.96 496.38 313.77 496.11 313.47C495.84 313.17 495.71 312.78 495.74 312.38L500.45 236.86C500.5 236.07 501.16 235.45 501.95 235.45L502.66 235.49C503.06 235.51 503.43 235.69 503.7 236C503.97 236.3 504.1 236.69 504.07 237.09L499.36 312.61C499.31 313.4 498.65 314.02 497.86 314.02L497.15 313.98Z" fill="#415E43"/>
<path d="M501.95 235.94C501.95 235.94 501.99 235.94 502.01 235.94L502.62 235.98C503.18 236.01 503.6 236.49 503.56 237.05L498.86 312.57C498.83 313.1 498.38 313.51 497.86 313.51C497.84 313.51 497.82 313.51 497.8 313.51L497.19 313.47C496.63 313.44 496.21 312.96 496.25 312.4L500.95 236.88C500.98 236.35 501.43 235.94 501.95 235.94ZM501.95 234.94C500.89 234.94 500.01 235.77 499.95 236.82L495.25 312.34C495.18 313.44 496.02 314.4 497.13 314.47L497.74 314.51C497.74 314.51 497.82 314.51 497.87 314.51C498.93 314.51 499.81 313.68 499.87 312.63L504.57 237.11C504.64 236.01 503.8 235.05 502.69 234.98L502.08 234.94C502.08 234.94 502 234.94 501.95 234.94Z" fill="black"/>
<path d="M488.23 314.16C488.1 314.16 487.97 314.16 487.84 314.15L402.36 308.82L403.18 304.63C407.79 281.08 409.29 257 407.64 233.07L407.35 228.81L492.83 234.14C496.21 234.35 498.79 237.27 498.58 240.66L494.36 308.42C494.16 311.65 491.47 314.18 488.23 314.18V314.16Z" fill="#415E43"/>
<path d="M407.89 229.33L492.8 234.62C495.91 234.81 498.28 237.49 498.08 240.61L493.86 308.37C493.67 311.36 491.19 313.67 488.23 313.67C488.11 313.67 487.99 313.67 487.87 313.66L402.96 308.37L403.67 304.74C408.29 281.14 409.79 257.04 408.14 233.04L407.89 229.35M406.81 228.26L406.89 229.4L407.14 233.09C408.79 256.98 407.29 281.02 402.69 304.53L401.98 308.16L401.76 309.28L402.9 309.35L487.81 314.64C487.95 314.64 488.09 314.65 488.23 314.65C491.73 314.65 494.64 311.91 494.86 308.42L499.08 240.66C499.19 238.89 498.6 237.18 497.43 235.85C496.26 234.52 494.63 233.73 492.86 233.62L407.95 228.33L406.81 228.26Z" fill="black"/>
<path d="M377.14 215.39C381.19 215.5 386.44 215.76 389.15 219.28C390.19 220.63 390.65 222.29 391.52 223.74C392.36 225.14 393.62 226.29 394.98 227.17L395.66 247.83C396.11 261.45 395.26 275.09 393.12 288.55L389.89 308.91C388.43 309.62 387.04 310.6 386.03 311.88C384.99 313.2 384.32 314.8 383.12 316.01C380 319.16 374.75 318.77 370.72 318.38L377.14 215.39Z" fill="#FAF6EA"/>
<path d="M375.08 319.13C373.64 319.13 372.15 319.01 370.68 318.87L370.2 318.82L370.23 318.34L376.68 214.87H377.16C381.94 215.01 386.83 215.43 389.56 218.97C390.2 219.8 390.63 220.74 391.05 221.65C391.34 222.29 391.62 222.9 391.97 223.47C392.7 224.68 393.84 225.81 395.28 226.74L395.5 226.88L396.19 247.8C396.64 261.42 395.78 275.15 393.65 288.62L390.38 309.24L390.15 309.35C388.61 310.1 387.34 311.08 386.46 312.18C386.04 312.71 385.69 313.27 385.32 313.87C384.8 314.72 384.25 315.6 383.51 316.35C381.34 318.54 378.33 319.12 375.11 319.12L375.08 319.13ZM371.25 317.92C375.61 318.33 380.04 318.41 382.77 315.65C383.43 314.98 383.92 314.19 384.44 313.35C384.81 312.75 385.19 312.13 385.64 311.56C386.56 310.39 387.87 309.36 389.44 308.56L392.63 288.45C394.76 275.05 395.61 261.38 395.16 247.82L394.49 227.42C393.03 226.43 391.86 225.25 391.09 223.97C390.71 223.35 390.41 222.69 390.12 222.05C389.71 221.15 389.32 220.3 388.75 219.56C386.38 216.48 381.98 216.02 377.6 215.88L371.25 317.9V317.92Z" fill="black"/>
<path d="M390.985 224.094L385.497 311.812L386.495 311.874L391.983 224.156L390.985 224.094Z" fill="black"/>
<path d="M377.12 215.75C374.9 212.45 372.68 209.14 370.45 205.84C366.86 200.5 363.6 193.94 359.23 189.25C355.88 185.67 350.92 184.03 346.05 183.4C333.53 181.79 320.37 182.08 307.73 181.57C293.65 181 279.57 180.43 265.5 179.86C247.95 179.15 230.41 178.44 212.86 177.72C193.77 176.95 174.69 176.17 155.6 175.4C136.9 174.64 118.2 173.88 99.5 173.12C83.11 172.45 66.73 171.79 50.34 171.12C38.19 170.63 26.05 170.13 13.9 169.64C7.91997 169.4 1.93999 169.15 -4.04002 168.91L-4.96003 168.87L-11.87 163.56C-14.32 161.67 -17.28 160.57 -20.37 160.37C-31.28 159.68 -57.46 158.65 -63.56 164.04C-65.9 166.11 -67.13 170.61 -68.11 173.38C-72.36 185.38 -74.06 198.39 -75.17 211.01C-76.8 229.67 -77.96 248.47 -78.64 267.19C-79.09 279.6 -79.02 292.36 -76.45 304.56C-75.71 308.07 -74.85 311.89 -72.96 315C-67.57 321.1 -41.47 323.33 -30.56 324C-27.47 324.19 -24.4 323.46 -21.73 321.89L-14.21 317.48L-13.29 317.56C-7.33002 318.06 -1.36002 318.56 4.59998 319.06C16.71 320.08 28.83 321.1 40.94 322.12C57.28 323.49 73.63 324.87 89.97 326.24C108.62 327.81 127.27 329.38 145.92 330.94C164.95 332.54 183.99 334.14 203.02 335.74C220.52 337.21 238.02 338.68 255.51 340.15C269.55 341.33 283.59 342.51 297.63 343.69C310.24 344.75 323.25 346.67 335.88 346.63C340.78 346.61 345.92 345.61 349.68 342.47C354.6 338.37 358.65 332.25 362.88 327.4C365.49 324.4 368.11 321.4 370.72 318.39L377.12 215.72V215.75Z" fill="#FAF6EA"/>
<path d="M335.47 347.16C326.72 347.16 317.7 346.23 308.98 345.32C305.23 344.93 301.36 344.53 297.59 344.21L-14.1 318.01L-21.48 322.34C-24.24 323.96 -27.39 324.71 -30.59 324.52C-41.61 323.84 -67.83 321.59 -73.33 315.35C-75.25 312.2 -76.12 308.51 -76.93 304.68C-79.6 292 -79.54 278.61 -79.13 267.19C-78.46 248.61 -77.29 229.7 -75.66 210.98C-74.64 199.32 -73.01 185.72 -68.58 173.23C-68.44 172.82 -68.29 172.37 -68.13 171.9C-67.17 169.06 -65.98 165.52 -63.89 163.67C-57.65 158.17 -31.36 159.19 -20.34 159.88C-17.14 160.08 -14.11 161.22 -11.57 163.17L-4.78001 168.39L307.76 181.07C311.54 181.22 315.43 181.31 319.2 181.39C328.11 181.58 337.32 181.77 346.12 182.91C352.06 183.67 356.59 185.69 359.6 188.91C362.6 192.12 365.07 196.19 367.47 200.13C368.63 202.04 369.73 203.84 370.88 205.55L377.64 215.6V215.77L371.22 318.61L363.26 327.75C361.91 329.31 360.59 330.96 359.21 332.71C356.34 336.32 353.38 340.06 350.01 342.87C346.63 345.69 341.88 347.13 335.89 347.15C335.75 347.15 335.61 347.15 335.48 347.15L335.47 347.16ZM-14.34 316.99L40.98 321.64L297.67 343.22C301.44 343.54 305.32 343.94 309.08 344.33C317.92 345.25 327.09 346.2 335.88 346.16C341.63 346.14 346.17 344.78 349.36 342.11C352.65 339.36 355.58 335.67 358.42 332.1C359.75 330.42 361.13 328.68 362.5 327.11L370.23 318.23L376.61 215.9L370.04 206.13C368.88 204.4 367.72 202.5 366.61 200.67C364.24 196.77 361.79 192.74 358.87 189.61C356.03 186.57 351.7 184.65 346 183.92C337.25 182.8 328.07 182.6 319.19 182.41C315.42 182.33 311.52 182.25 307.73 182.09L-5.12001 169.39L-12.16 163.98C-14.54 162.15 -17.39 161.08 -20.39 160.89C-31.28 160.2 -57.26 159.18 -63.22 164.43C-65.11 166.1 -66.3 169.64 -67.17 172.22C-67.33 172.7 -67.48 173.15 -67.63 173.56C-72.02 185.95 -73.65 199.47 -74.66 211.06C-76.29 229.77 -77.46 248.66 -78.13 267.22C-78.54 278.58 -78.6 291.9 -75.95 304.47C-75.16 308.21 -74.31 311.81 -72.53 314.75C-67.33 320.63 -41.42 322.84 -30.53 323.51C-27.53 323.69 -24.57 322.99 -21.98 321.47L-14.32 316.97L-14.34 316.99Z" fill="black"/>
<path d="M239.18 338.85L258.3 293.62C267.4 272.09 268.85 248.1 262.42 225.64L249.12 179.2L104.2 173.32L94.65 326.7L239.18 338.85Z" fill="#FAF6EA"/>
<path d="M239.5 339.38L239.14 339.35L94.12 327.16L103.74 172.81L104.23 172.83L249.51 178.72L262.91 225.5C269.35 248 267.88 272.26 258.77 293.82L239.51 339.38H239.5ZM95.18 326.24L238.86 338.32L257.84 293.43C266.86 272.08 268.32 248.06 261.94 225.78L248.74 179.69L104.67 173.84L95.18 326.24Z" fill="black"/>
<path d="M493.22 313.73C492.82 313.71 492.45 313.52 492.18 313.22C491.91 312.92 491.78 312.53 491.81 312.13L496.52 236.61C496.57 235.82 497.23 235.2 498.02 235.2L498.73 235.24C499.13 235.26 499.5 235.45 499.77 235.75C500.04 236.05 500.17 236.44 500.14 236.84L495.43 312.36C495.38 313.15 494.72 313.77 493.93 313.77L493.22 313.73Z" fill="#415E43"/>
<path d="M498.02 235.7C498.02 235.7 498.06 235.7 498.08 235.7L498.69 235.74C499.25 235.77 499.67 236.25 499.63 236.81L494.93 312.33C494.9 312.86 494.45 313.27 493.93 313.27C493.91 313.27 493.89 313.27 493.87 313.27L493.26 313.23C492.7 313.2 492.28 312.72 492.32 312.16L497.02 236.64C497.05 236.11 497.5 235.7 498.02 235.7ZM498.02 234.7C496.96 234.7 496.08 235.53 496.02 236.58L491.32 312.1C491.29 312.64 491.46 313.15 491.82 313.55C492.17 313.95 492.67 314.19 493.2 314.23L493.81 314.27C493.81 314.27 493.89 314.27 493.94 314.27C495 314.27 495.88 313.44 495.94 312.39L500.64 236.87C500.71 235.77 499.87 234.81 498.76 234.74L498.15 234.7C498.15 234.7 498.07 234.7 498.02 234.7Z" fill="black"/>
<path d="M-0.999985 0.959961C38.18 14.62 64.57 49.54 97.41 73.03C136.33 100.88 178 125.09 213.28 157.75C218.62 162.7 223.98 167.59 229.4 172.46C231.81 174.63 234.64 176.67 236.88 179.01C221.44 178.69 206.96 177.63 191.54 176.6C197.07 201.59 198.82 227.18 201.81 252.54C203.25 264.77 205.17 276.87 207.63 288.91C209.88 299.93 221.82 324.13 207.22 331.4C202.81 333.6 197.88 332.3 193.31 331.48C195.45 339.63 187.42 349 179.1 348.3C171.14 347.63 166.79 338.9 161.95 333.68C162.84 334.65 156.51 337.66 155.9 337.95C152.15 339.74 148.46 340.22 144.42 338.93C137.62 336.77 132.18 331.35 126.56 327.21C125.92 326.74 119.69 327.5 118.4 327.36C115.74 327.07 113.75 326.28 111.39 324.95C106.62 322.27 102.38 318.7 98.6 314.76C92.38 308.27 86.83 300.72 81.53 293.51C75.56 285.38 71.82 277.36 68.07 268.09C52.32 229.15 14.51 202.77 4.07002 161.31C2.30002 154.29 1.37001 146.92 -2.04999 140.54C-9.45999 126.7 -30.16 118.97 -43.68 112.73C-90.46 91.13 -139.05 74.88 -184.98 51C-187.38 49.75 -190.2 47.57 -189.35 44.99" fill="#FAF6EA"/>
<path d="M179.97 348.84C179.66 348.84 179.36 348.83 179.05 348.8C172.83 348.28 168.71 342.97 165.08 338.29C164.09 337.01 163.14 335.79 162.17 334.68C161.4 335.6 159.37 336.84 156.11 338.4C152 340.36 148.24 340.68 144.26 339.41C139.04 337.75 134.63 334.22 130.36 330.81C129.02 329.74 127.63 328.62 126.26 327.61C125.86 327.44 123.24 327.62 121.67 327.73C120.18 327.83 118.89 327.92 118.33 327.86C115.44 327.55 113.36 326.64 111.13 325.39C106.67 322.88 102.45 319.52 98.22 315.11C91.91 308.53 86.17 300.71 81.11 293.81C75.2 285.76 71.43 277.78 67.59 268.28C60.55 250.87 48.88 235.72 37.6 221.07C23.71 203.04 9.34999 184.39 3.56999 161.44C3.12 159.66 2.71999 157.82 2.32999 156.05C1.18999 150.86 0.019989 145.49 -2.50002 140.78C-8.91002 128.81 -25.34 121.49 -38.54 115.6C-40.41 114.77 -42.21 113.96 -43.9 113.18C-63.13 104.3 -83 96.19 -102.22 88.34C-129.72 77.11 -158.17 65.5 -185.22 51.44C-188.9 49.52 -190.59 47.12 -189.84 44.83L-188.89 45.14C-189.71 47.66 -186.28 49.76 -184.76 50.55C-157.74 64.59 -129.32 76.2 -101.84 87.41C-82.61 95.26 -62.74 103.37 -43.48 112.26C-41.79 113.04 -40 113.84 -38.13 114.67C-24.79 120.62 -8.19002 128.02 -1.62001 140.29C0.969986 145.12 2.15999 150.56 3.30998 155.82C3.69998 157.58 4.09998 159.41 4.53998 161.18C10.27 183.93 24.57 202.49 38.39 220.45C49.71 235.16 61.43 250.36 68.52 267.9C72.33 277.33 76.07 285.24 81.92 293.21C86.97 300.09 92.68 307.88 98.94 314.41C103.1 318.74 107.24 322.05 111.62 324.51C113.75 325.71 115.72 326.56 118.44 326.86C118.92 326.91 120.28 326.82 121.6 326.73C125.14 326.49 126.39 326.47 126.85 326.8C128.23 327.82 129.63 328.94 130.98 330.02C135.18 333.38 139.52 336.85 144.56 338.45C148.29 339.64 151.82 339.33 155.67 337.49C159.32 335.75 161.4 334.32 161.52 333.86C161.52 333.89 161.52 333.96 161.56 334L162.29 333.32C163.49 334.62 164.64 336.09 165.85 337.66C169.53 342.4 173.33 347.3 179.12 347.79C182.9 348.1 186.89 346.25 189.77 342.81C192.62 339.42 193.75 335.22 192.8 331.59L192.6 330.83L193.37 330.97C193.87 331.06 194.37 331.15 194.87 331.25C198.96 332.02 203.18 332.82 206.97 330.93C218.15 325.36 213.13 309.18 209.47 297.37C208.5 294.25 207.59 291.31 207.12 288.99C204.71 277.2 202.75 264.95 201.29 252.58C200.55 246.28 199.87 239.86 199.21 233.65C197.23 214.87 195.18 195.45 191.02 176.69L190.88 176.04L196.13 176.39C209.52 177.29 222.19 178.15 235.61 178.46C234.44 177.34 233.14 176.27 231.88 175.22C230.93 174.43 229.94 173.62 229.03 172.8C223.71 168.02 218.29 163.07 212.91 158.09C188.28 135.3 160.06 116.3 132.76 97.92C120.99 90 108.81 81.8 97.09 73.41C85.76 65.3 75.01 55.67 64.62 46.37C44.84 28.65 24.39 10.33 -1.19002 1.40997L-0.860016 0.469971C24.92 9.45997 45.44 27.85 65.29 45.63C75.66 54.92 86.38 64.53 97.67 72.61C109.39 80.99 121.55 89.18 133.32 97.1C160.65 115.49 188.91 134.52 213.59 157.36C218.97 162.34 224.39 167.29 229.7 172.06C230.6 172.86 231.57 173.67 232.51 174.45C234.12 175.78 235.78 177.15 237.2 178.64L238.03 179.51L236.83 179.49C222.91 179.2 209.87 178.32 196.05 177.39L192.13 177.13C196.2 195.74 198.23 214.95 200.19 233.55C200.85 239.76 201.52 246.17 202.27 252.47C203.73 264.82 205.68 277.04 208.08 288.8C208.54 291.07 209.45 293.99 210.41 297.08C214.18 309.24 219.34 325.89 207.4 331.83C203.32 333.86 198.92 333.03 194.67 332.23C194.42 332.18 194.17 332.13 193.92 332.09C194.63 335.85 193.38 340.05 190.52 343.46C187.66 346.87 183.76 348.83 179.94 348.83L179.97 348.84Z" fill="black"/>
<path d="M191.88 175.95L190.88 175.91C191.5 161.01 181.89 150.28 171.99 140.56C169.35 137.97 166.57 135.18 164.16 132.12C163.24 130.96 162.4 129.71 161.58 128.5C160.25 126.53 158.87 124.5 157.17 122.82L157.88 122.11C159.64 123.86 161.05 125.94 162.41 127.94C163.22 129.13 164.05 130.36 164.95 131.5C167.33 134.52 170.08 137.28 172.7 139.85C182.76 149.72 192.53 160.64 191.89 175.96L191.88 175.95Z" fill="black"/>
<path d="M193.61 332.5C181.89 320.62 176.68 303.7 173.45 290.28C171.51 282.22 168.97 274.17 166.52 266.38C163.87 257.98 161.14 249.29 159.13 240.54C155.36 224.07 155.48 205.61 159.48 187.15L160.46 187.36C156.49 205.68 156.37 223.99 160.11 240.31C162.1 249.02 164.83 257.69 167.48 266.07C169.94 273.87 172.48 281.94 174.43 290.03C177.63 303.32 182.78 320.08 194.33 331.78L193.62 332.48L193.61 332.5Z" fill="black"/>
<path d="M162.04 334.49C155.82 327.21 150.28 319.04 145.58 310.21C137.68 295.36 132.85 279.23 128.95 265.28C124.49 249.33 120.31 232.49 116.17 213.8L117.15 213.58C121.28 232.25 125.46 249.07 129.91 265C133.8 278.9 138.6 294.96 146.46 309.73C151.12 318.5 156.62 326.61 162.79 333.83L162.03 334.48L162.04 334.49Z" fill="black"/>
<path d="M125.73 327.44C124.59 326.57 123.47 325.64 122.4 324.69C110.16 313.8 101.06 298.26 93.74 275.78C91.75 269.65 89.96 263.36 88.23 257.27C86.92 252.67 85.58 247.91 84.15 243.27C80.8 232.36 75.34 223 69.94 214.51L70.78 213.97C76.22 222.52 81.72 231.95 85.11 242.97C86.54 247.63 87.89 252.39 89.2 256.99C90.92 263.07 92.71 269.36 94.7 275.46C101.96 297.77 110.97 313.17 123.07 323.93C124.13 324.87 125.23 325.78 126.35 326.64L125.74 327.43L125.73 327.44Z" fill="black"/>
<path d="M175.72 242.29C174.57 242.29 173.42 242.22 172.27 242.08L172.4 241.09C178.58 241.89 184.99 240.2 190.64 238.71L190.89 239.68C186.18 240.92 180.95 242.3 175.71 242.3L175.72 242.29Z" fill="black"/>
<path d="M180.04 250.11L179.8 249.14C181.79 248.65 183.84 248.34 185.88 248.22L185.93 249.22C183.95 249.33 181.96 249.63 180.03 250.11H180.04Z" fill="black"/>
<path d="M146.53 271.55L146.31 270.57C150.19 269.71 154.32 269.6 158.25 270.24L158.09 271.23C154.29 270.61 150.29 270.72 146.53 271.55Z" fill="black"/>
<path d="M152 289.62C150.47 289.62 148.94 289.44 147.44 289.09C146.6 288.89 146.5 288.38 146.49 288.17L147.49 288.14C147.49 288.08 147.46 288.04 147.45 288.03C147.46 288.04 147.53 288.08 147.67 288.11C151.01 288.89 154.51 288.76 157.79 287.71L158.09 288.66C156.12 289.29 154.06 289.61 152.01 289.61L152 289.62Z" fill="black"/>
<path d="M105.68 275.13L105.18 274.26C108.08 272.58 111.61 272.12 114.85 272.99L114.59 273.96C111.6 273.16 108.36 273.59 105.68 275.13Z" fill="black"/>
<path d="M110.04 290.29L109.99 289.29C113.78 289.1 117.51 288.34 121.07 287.03L121.42 287.97C117.76 289.32 113.93 290.1 110.04 290.29Z" fill="black"/>
<path d="M111.89 282.96C111.5 282.96 111.12 282.91 110.73 282.77L111.05 281.82C111.97 282.13 112.99 281.82 114.07 281.5C115.31 281.13 116.58 280.75 117.84 281.27L117.46 282.19C116.54 281.81 115.48 282.12 114.36 282.46C113.55 282.7 112.72 282.95 111.89 282.95V282.96Z" fill="black"/>
<path d="M77.3286 266.395L77.2636 267.393L83.0014 267.767L83.0665 266.769L77.3286 266.395Z" fill="black"/>
<path d="M201.2 330.83C199.58 330.83 198.04 330.41 196.69 329.56C194.02 327.87 191.69 324.94 190.46 321.73C189.24 318.55 188.32 314.26 190.89 311.89C192.08 310.79 193.71 310.57 194.91 310.6C198.82 310.65 201.59 312.9 203.33 314.6C205.83 317.04 208.29 319.73 209.28 322.94C209.62 324.05 209.7 325.01 209.51 325.87C209.23 327.14 208.29 328.33 206.95 329.14C205.07 330.27 203.09 330.84 201.21 330.84L201.2 330.83ZM194.8 311.6C193.81 311.6 192.48 311.79 191.56 312.63C189.29 314.72 190.48 319 191.39 321.37C192.55 324.39 194.73 327.14 197.22 328.72C199.8 330.35 203.24 330.19 206.42 328.28C207.54 327.61 208.3 326.65 208.52 325.65C208.67 324.96 208.6 324.17 208.31 323.23C207.38 320.24 205.03 317.66 202.62 315.31C200.02 312.78 197.63 311.63 194.89 311.6C194.86 311.6 194.83 311.6 194.79 311.6H194.8Z" fill="black"/>
<path d="M180.15 346.44C179.19 346.44 178.24 346.36 177.36 346.21C173.48 345.57 170.24 342.24 169.82 338.45C169.48 335.39 171.09 332.9 174.25 331.62C177.87 330.16 181.77 330.52 184.71 332.58C186.06 333.53 187.22 334.81 187.98 336.19C189.21 338.4 189.33 340.69 188.33 342.64C186.88 345.48 183.43 346.45 180.14 346.45L180.15 346.44ZM178.73 331.73C177.37 331.73 175.98 332 174.63 332.55C171.92 333.65 170.53 335.76 170.82 338.34C171.14 341.24 173.74 344.61 177.53 345.23C181.09 345.81 185.82 345.36 187.45 342.18C188.53 340.07 187.86 338.02 187.11 336.67C186.42 335.42 185.36 334.26 184.13 333.4C182.56 332.3 180.68 331.74 178.72 331.74L178.73 331.73Z" fill="black"/>
<path d="M158.5 336.68C157.35 333.9 155.74 330.88 152.47 329.55C149.9 328.5 145.89 328.86 142.72 330.43C140.39 331.58 138.84 333.24 138.34 335.09L137.37 334.83C137.95 332.69 139.69 330.81 142.27 329.53C145.68 327.84 150.03 327.46 152.85 328.62C156.48 330.11 158.28 333.5 159.43 336.3L158.51 336.68H158.5Z" fill="black"/>
<path d="M110.61 324.51L109.64 324.27L109.79 323.66C110.16 322.17 110.53 320.64 111.34 319.28C112.2 317.84 113.88 316.34 115.93 316.41L115.89 317.41C114.54 317.37 113.08 318.3 112.19 319.79C111.46 321.02 111.1 322.48 110.75 323.9L110.6 324.52L110.61 324.51Z" fill="black"/>
<path d="M97.43 196.48L96.44 196.37C97.01 191.13 97.67 185.18 96.21 179.76C94.87 174.78 91.83 170.38 88.9 166.12L88.14 165.02C81.43 155.25 75.38 144.9 70.16 134.26L71.06 133.82C76.26 144.42 82.29 154.72 88.97 164.45L89.73 165.55C92.72 169.88 95.81 174.35 97.19 179.5C98.69 185.1 98.03 191.15 97.45 196.48H97.43Z" fill="black"/>
<path d="M88.77 198.11C87.46 196.67 86.3 194.92 85.25 192.77C83.52 189.26 82.4 185.41 81.32 181.69C79.66 175.97 78.09 170.57 74.5 166.15L75.28 165.52C78.99 170.1 80.66 175.85 82.28 181.41C83.35 185.09 84.46 188.9 86.15 192.33C87.17 194.4 88.27 196.07 89.52 197.44L88.78 198.11H88.77Z" fill="black"/>
<path d="M66.87 200.71C66.52 197.81 65.58 194.93 64.13 192.4C63.58 191.44 62.71 190.33 61.66 190.44L61.55 189.45C62.81 189.32 64 190.16 65 191.91C66.51 194.56 67.5 197.57 67.87 200.6L66.88 200.72L66.87 200.71Z" fill="black"/>
<path d="M60.47 210.93C55.7 209.99 51.52 206.85 49.28 202.53L50.17 202.07C52.24 206.06 56.26 209.07 60.66 209.94L60.47 210.92V210.93Z" fill="black"/>
<path d="M5.86998 135.38L4.97998 134.93C6.62998 131.63 8.33999 128.22 10.72 125.28C12.6 122.95 15.73 119.95 19.99 118.88L20.24 119.85C16.25 120.86 13.29 123.7 11.5 125.91C9.18998 128.77 7.49998 132.13 5.86998 135.38Z" fill="black"/>
<path d="M-2.30002 123.59L-3.24002 123.24C-1.61002 118.84 0.939979 114.7 4.14998 111.27L4.87999 111.95C1.75999 115.28 -0.720018 119.3 -2.30002 123.58V123.59Z" fill="black"/>
<path d="M127.84 188.13L118.49 171.16C114.45 163.82 110.27 156.24 104.08 150.4L104.77 149.67C111.08 155.62 115.3 163.27 119.37 170.68L128.72 187.65L127.84 188.13Z" fill="black"/>
<path d="M162.64 171.67C161.64 171.57 160.83 170.94 160.1 170.31C155.55 166.43 151.45 162.02 147.91 157.21C147.51 156.66 147.11 156.11 146.71 155.55C145.25 153.52 143.75 151.42 141.94 149.68L142.63 148.96C144.51 150.76 146.04 152.9 147.52 154.97C147.92 155.52 148.31 156.07 148.71 156.62C152.21 161.37 156.26 165.72 160.75 169.55C161.4 170.1 162.03 170.6 162.75 170.68L162.65 171.67H162.64Z" fill="black"/>
<path d="M134.82 142.25L107.74 121.2C105.14 119.18 102.19 116.89 98.84 115.92L99.12 114.96C102.66 115.98 105.68 118.33 108.35 120.41L135.43 141.46L134.82 142.25Z" fill="black"/>
</svg>
