<svg width="1305" height="498" viewBox="0 0 1305 498" fill="none" xmlns="http://www.w3.org/2000/svg">
<path d="M1056.19 0.839844H248.3C111.251 0.839844 0.149994 111.94 0.149994 248.99V249C0.149994 386.049 111.251 497.15 248.3 497.15H1056.19C1193.24 497.15 1304.34 386.049 1304.34 249V248.99C1304.34 111.94 1193.24 0.839844 1056.19 0.839844Z" fill="#415E43"/>
<mask id="mask0_1_6168" style="mask-type:luminance" maskUnits="userSpaceOnUse" x="0" y="0" width="1305" height="498">
<path d="M1056.19 0.839844H248.3C111.251 0.839844 0.149994 111.94 0.149994 248.99V249C0.149994 386.049 111.251 497.15 248.3 497.15H1056.19C1193.24 497.15 1304.34 386.049 1304.34 249V248.99C1304.34 111.94 1193.24 0.839844 1056.19 0.839844Z" fill="white"/>
</mask>
<g mask="url(#mask0_1_6168)">
<path d="M799.51 340.25L937.64 416.46L905.02 435.49L821.55 454.68L799.51 340.25Z" fill="#FAF6EA" stroke="black" stroke-miterlimit="10"/>
<path d="M811.55 354.68C764.84 333.51 753.23 318.49 753.23 318.49C753.23 318.49 720.06 251.16 717.28 239.27C714.5 227.38 730.88 227.91 744.49 244.95C752.11 254.5 785.48 304.14 785.48 304.14C785.48 304.14 797.53 307.55 829.59 329.56C861.65 351.58 903.5 343.11 903.5 343.11C907.81 333.67 907.43 327.17 907.43 327.17C861.79 300.27 857.21 266.19 860.42 249.7C861.46 244.37 868.09 242.52 871.8 246.48C885.99 261.61 911.74 289.48 945.38 304.26C1002.75 329.47 1005.7 395.6 1005.7 395.6C1005.7 395.6 1032.55 490.09 1033.15 514.34L926.47 544.99C926.47 544.99 922.86 520.6 919.84 497.86C916.82 475.12 872.65 494.55 872.65 494.55C872.65 494.55 815.26 470.03 799.39 451.18C785.59 434.79 795.51 417.5 797.92 413.24C800.33 408.99 820.74 386.86 820.74 386.86C820.74 386.86 826.46 377.22 843.92 381.04C861.38 384.86 867.83 385.05 879.95 383.49C892.07 381.93 895.41 397.5 870.64 403.69C845.87 409.87 840.15 405.59 840.15 405.59C840.15 405.59 836.63 426.84 829.53 428.32C829.53 428.32 837.24 428.99 847.23 438.9C847.23 438.9 874.22 416.12 917.87 416.23" fill="#FAF6EA"/>
<path d="M811.55 354.68C764.84 333.51 753.23 318.49 753.23 318.49C753.23 318.49 720.06 251.16 717.28 239.27C714.5 227.38 730.88 227.91 744.49 244.95C752.11 254.5 785.48 304.14 785.48 304.14C785.48 304.14 797.53 307.55 829.59 329.56C861.65 351.58 903.5 343.11 903.5 343.11C907.81 333.67 907.43 327.17 907.43 327.17C861.79 300.27 857.21 266.19 860.42 249.7C861.46 244.37 868.09 242.52 871.8 246.48C885.99 261.61 911.74 289.48 945.38 304.26C1002.75 329.47 1005.7 395.6 1005.7 395.6C1005.7 395.6 1032.55 490.09 1033.15 514.34L926.47 544.99C926.47 544.99 922.86 520.6 919.84 497.86C916.82 475.12 872.65 494.55 872.65 494.55C872.65 494.55 815.26 470.03 799.39 451.18C785.59 434.79 795.51 417.5 797.92 413.24C800.33 408.99 820.74 386.86 820.74 386.86C820.74 386.86 826.46 377.22 843.92 381.04C861.38 384.86 867.83 385.05 879.95 383.49C892.07 381.93 895.41 397.5 870.64 403.69C845.87 409.87 840.15 405.59 840.15 405.59C840.15 405.59 836.63 426.84 829.53 428.32C829.53 428.32 837.24 428.99 847.23 438.9C847.23 438.9 874.22 416.12 917.87 416.23" stroke="black" stroke-miterlimit="10"/>
<path d="M825.83 273.77C825.83 273.77 766.47 325.99 764.73 341.02C763 356.05 775.13 378.54 785.21 387.08C795.29 395.62 810.81 379.25 810.81 379.25C810.81 379.25 802.22 343.91 803.27 338.8C804.89 330.91 818.18 308.31 833.34 293.76C841.22 286.2 846.51 256.54 825.83 273.76V273.77Z" fill="#FAF6EA" stroke="black" stroke-miterlimit="10"/>
<path d="M915.954 502.536C956.05 489.863 985.527 470.015 981.794 458.203C978.061 446.391 942.53 447.089 902.434 459.762C862.338 472.435 832.861 492.284 836.594 504.096C840.327 515.907 875.858 515.209 915.954 502.536Z" fill="#FAF6EA" stroke="black" stroke-miterlimit="10"/>
<path d="M921.07 472.11C912.95 466.67 907.21 454.85 904.79 448.37C879.93 381.8 863.96 326.46 842.41 251.76L831.72 255.15C856.83 328.72 876.36 386.32 893.18 452.06C894.9 458.77 896.97 471.74 893.44 480.89" fill="#FAF6EA"/>
<path d="M921.07 472.11C912.95 466.67 907.21 454.85 904.79 448.37C879.93 381.8 863.96 326.46 842.41 251.76L831.72 255.15C856.83 328.72 876.36 386.32 893.18 452.06C894.9 458.77 896.97 471.74 893.44 480.89" stroke="black" stroke-miterlimit="10"/>
<path d="M767.436 193.76L761.11 202.053L769.402 208.379L775.728 200.087L767.436 193.76Z" stroke="#E93323" stroke-width="2" stroke-miterlimit="10"/>
<path d="M870.58 155.78C854.98 163.24 837.28 170.31 818.23 176.5C817.11 176.86 815.96 177.23 814.83 177.58C813.69 177.94 812.54 178.3 811.42 178.65C792.27 184.54 773.73 188.93 756.68 191.79C758.86 165.01 775.49 141.56 800.91 133.53C826.33 125.49 853.42 135.12 870.59 155.78H870.58Z" fill="white" stroke="black" stroke-linecap="round" stroke-linejoin="round"/>
<path d="M936.4 94.1196C936.57 94.6796 936.73 95.2396 936.89 95.7996C936.8 95.3996 936.7 94.9996 936.58 94.5996C936.53 94.4396 936.46 94.2796 936.41 94.1196H936.4Z" stroke="black" stroke-linecap="round" stroke-linejoin="round"/>
<path d="M667.48 179.659C667.6 180.049 667.75 180.439 667.91 180.819C667.71 180.269 667.53 179.719 667.34 179.169C667.39 179.329 667.42 179.499 667.47 179.659H667.48Z" stroke="black" stroke-linecap="round" stroke-linejoin="round"/>
<path d="M938.94 106.28C939.37 109.63 939.56 113.02 939.53 116.4C939.31 148.14 920.02 180.53 888.32 204.6C889.17 235.82 873.2 266.91 845.58 275.68C817.96 284.45 787.11 268.23 769.94 242.19C730.22 240.81 695.89 225.44 677.56 199.59C675.59 196.85 673.81 193.97 672.24 190.98C672.53 190.03 673.01 189.03 673.68 187.99C686.84 197.38 717.92 198.73 756.66 192.19C773.71 189.32 792.25 184.91 811.4 178.99C812.53 178.64 813.67 178.28 814.81 177.91C815.94 177.55 817.09 177.19 818.21 176.82C837.27 170.6 854.97 163.5 870.56 156.01C906.01 138.99 930.66 119.94 936.05 104.66C937.19 105.13 938.15 105.67 938.94 106.28Z" fill="#FAF6EA" stroke="black" stroke-miterlimit="10"/>
<path d="M673.68 187.6C673.02 188.64 672.54 189.63 672.24 190.58C670.57 187.46 669.12 184.2 667.91 180.82C669.01 183.43 670.96 185.69 673.68 187.6Z" stroke="black" stroke-linecap="round" stroke-linejoin="round"/>
<path d="M936.89 95.7896C937.84 99.2496 938.52 102.75 938.95 106.27C938.16 105.66 937.21 105.13 936.06 104.66C937.18 101.54 937.48 98.5595 936.89 95.7995V95.7896Z" stroke="black" stroke-linecap="round" stroke-linejoin="round"/>
<path d="M932.5 111.53C932.71 111.37 932.92 111.2 933.12 111.03L934.13 113.96C934.48 116.63 934.63 119.3 934.6 121.98C934.52 133.57 931.21 145.28 925.19 156.4C918.16 169.4 894.17 195.04 880.57 205.33C881.25 230.08 867.6 261.56 843.74 269.11C820.09 276.59 789.94 258.3 776.26 237.66C744.64 236.57 701.66 221.57 687.07 201.09C684.9 198.1 683.06 194.91 681.49 191.54C678.44 190.44 675.82 189.12 673.68 187.6C683.67 171.84 734.53 146.37 798.55 126.13C862.56 105.89 918.83 97.4999 936.06 104.65C935.27 106.87 934.09 109.16 932.5 111.52V111.53Z" fill="url(#paint0_linear_1_6168)" stroke="url(#paint1_linear_1_6168)" stroke-miterlimit="10"/>
<path d="M936.4 94.12C936.56 94.68 936.73 95.24 936.89 95.8C937.48 98.56 937.18 101.54 936.07 104.66C928.31 126.58 880.59 156.26 818.23 176.49C817.11 176.86 815.96 177.22 814.83 177.58C813.69 177.94 812.55 178.3 811.42 178.65C748.77 197.94 692.66 201.08 673.7 187.61C670.99 185.7 669.04 183.43 667.93 180.83C667.73 180.28 667.55 179.72 667.36 179.17C661.24 156.78 715.49 120 789.25 96.68C863.02 73.36 928.55 72.28 936.41 94.12H936.4Z" stroke="black" stroke-linecap="round" stroke-linejoin="round"/>
<path d="M940.517 88.5479L930.106 89.1792L930.737 99.5901L941.148 98.9588L940.517 88.5479Z" fill="white" stroke="black" stroke-linecap="round" stroke-linejoin="round"/>
<path d="M933.708 100.617L926.555 108.069L934.007 115.223L941.16 107.771L933.708 100.617Z" fill="white" stroke="black" stroke-linecap="round" stroke-linejoin="round"/>
<path d="M924.315 115.844L915.02 120.141L919.317 129.436L928.612 125.139L924.315 115.844Z" fill="white" stroke="black" stroke-linecap="round" stroke-linejoin="round"/>
<path d="M905.018 132.263L895.128 134.548L897.413 144.438L907.303 142.153L905.018 132.263Z" fill="white" stroke="black" stroke-linecap="round" stroke-linejoin="round"/>
<path d="M878.023 148.424L867.976 149.237L868.789 159.284L878.836 158.471L878.023 148.424Z" fill="white" stroke="black" stroke-linecap="round" stroke-linejoin="round"/>
<path d="M834.903 163.314L834.473 173.315L844.474 173.745L844.903 163.744L834.903 163.314Z" fill="white" stroke="black" stroke-linecap="round" stroke-linejoin="round"/>
<path d="M797.522 175.437L795.937 185.26L805.759 186.846L807.345 177.023L797.522 175.437Z" fill="white" stroke="black" stroke-linecap="round" stroke-linejoin="round"/>
<path d="M761.18 183.963L758.435 193.485L767.957 196.23L770.702 186.707L761.18 183.963Z" fill="white" stroke="black" stroke-linecap="round" stroke-linejoin="round"/>
<path d="M728.536 188.249L724.536 197.272L733.559 201.272L737.559 192.249L728.536 188.249Z" fill="white" stroke="black" stroke-linecap="round" stroke-linejoin="round"/>
<path d="M701.656 188.54L696.119 196.687L704.266 202.223L709.803 194.076L701.656 188.54Z" fill="white" stroke="black" stroke-linecap="round" stroke-linejoin="round"/>
<path d="M682.477 184.877L674.832 191.056L681.012 198.701L688.657 192.521L682.477 184.877Z" fill="white" stroke="black" stroke-linecap="round" stroke-linejoin="round"/>
<path d="M673.623 178.628L663.814 179.271L664.457 189.08L674.266 188.437L673.623 178.628Z" fill="white" stroke="black" stroke-linecap="round" stroke-linejoin="round"/>
<path d="M667.745 167.462L659.96 173.464L665.962 181.249L673.747 175.247L667.745 167.462Z" fill="white" stroke="black" stroke-linecap="round" stroke-linejoin="round"/>
<path d="M675.947 158.634L666.389 161.014L668.768 170.572L678.327 168.192L675.947 158.634Z" fill="white" stroke="black" stroke-linecap="round" stroke-linejoin="round"/>
<path d="M688.429 147.738L678.565 148.063L678.89 157.928L688.755 157.603L688.429 147.738Z" fill="white" stroke="black" stroke-linecap="round" stroke-linejoin="round"/>
<path d="M696.053 134.164L694.9 144.007L704.743 145.16L705.895 135.317L696.053 134.164Z" fill="white" stroke="black" stroke-linecap="round" stroke-linejoin="round"/>
<path d="M718.355 120.096L715.95 129.751L725.605 132.156L728.01 122.501L718.355 120.096Z" fill="white" stroke="black" stroke-linecap="round" stroke-linejoin="round"/>
<path d="M744.934 106.41L741.366 115.762L750.719 119.33L754.287 109.977L744.934 106.41Z" fill="white" stroke="black" stroke-linecap="round" stroke-linejoin="round"/>
<path d="M775.556 94.1311L770.858 103.049L779.776 107.747L784.474 98.8292L775.556 94.1311Z" fill="white" stroke="black" stroke-linecap="round" stroke-linejoin="round"/>
<path d="M809.537 83.8572L803.726 92.1797L812.049 97.9899L817.859 89.6673L809.537 83.8572Z" fill="white" stroke="black" stroke-linecap="round" stroke-linejoin="round"/>
<path d="M846.633 76.7423L839.718 84.2944L847.27 91.2099L854.185 83.6577L846.633 76.7423Z" fill="white" stroke="black" stroke-linecap="round" stroke-linejoin="round"/>
<path d="M886.128 73.2997L878.153 79.8647L884.718 87.8402L892.693 81.2751L886.128 73.2997Z" fill="white" stroke="black" stroke-linecap="round" stroke-linejoin="round"/>
<path d="M927.667 74.6541L918.713 80.0024L924.061 88.9567L933.016 83.6083L927.667 74.6541Z" fill="white" stroke="black" stroke-linecap="round" stroke-linejoin="round"/>
<path d="M987.02 118.66C1001.94 18.2798 884.2 28.1198 883.79 82.6898L987.02 118.66Z" fill="#9ABD56" stroke="black" stroke-miterlimit="10"/>
<path d="M984.64 117.73C987.8 21.0096 887.1 41.0296 886 83.4396L984.64 117.73Z" fill="#F0F795"/>
<mask id="mask1_1_6168" style="mask-type:luminance" maskUnits="userSpaceOnUse" x="886" y="48" width="99" height="70">
<path d="M984.64 117.73C987.8 21.0096 887.1 41.0296 886 83.4396L984.64 117.73Z" fill="white"/>
</mask>
<g mask="url(#mask1_1_6168)">
<path d="M932.95 92.1399L910.35 69.7299C907.39 66.8599 905.29 64.2099 906.15 62.2799C908.63 56.7399 921.93 49.9199 924.98 59.4299C929.93 74.8699 935.41 90.0199 935.41 90.0199C935.41 90.0199 937.57 96.7299 932.94 92.1399H932.95Z" fill="#FCFFAB" stroke="black" stroke-miterlimit="10"/>
<path d="M919.85 59.3501C922.18 63.1001 922.78 64.6401 924.48 68.7101L919.85 59.3501Z" fill="#FCFFAB"/>
<path d="M919.85 59.3501C922.18 63.1001 922.78 64.6401 924.48 68.7101" stroke="black" stroke-miterlimit="10"/>
<path d="M919.03 66.1699C923.48 72.0599 927.02 78.6299 929.49 85.5899L919.03 66.1699Z" fill="#FCFFAB"/>
<path d="M919.03 66.1699C923.48 72.0599 927.02 78.6299 929.49 85.5899" stroke="black" stroke-miterlimit="10"/>
<path d="M909.93 63.8398C914.86 69.3398 915.46 70.6598 920.87 75.6898L909.93 63.8398Z" fill="#FCFFAB"/>
<path d="M909.93 63.8398C914.86 69.3398 915.46 70.6598 920.87 75.6898" stroke="black" stroke-miterlimit="10"/>
<path d="M930.15 98.5097L895.46 88.8797C891.35 87.7897 888.99 86.6797 888.95 85.1997C888.78 78.9397 897.85 65.0297 905.38 72.0397C917.62 83.4397 931.31 95.3497 931.31 95.3497C931.31 95.3497 936.64 100.3 930.16 98.5097H930.15Z" fill="#FCFFAB" stroke="black" stroke-miterlimit="10"/>
<path d="M897.94 74.9995C901.93 77.1995 903.42 77.9695 907.01 80.7695L897.94 74.9995Z" fill="#FCFFAB"/>
<path d="M897.94 74.9995C901.93 77.1995 903.42 77.9695 907.01 80.7695" stroke="black" stroke-miterlimit="10"/>
<path d="M903.38 83.9497C910.35 87.0097 917.32 89.3397 923.98 93.7897L903.38 83.9497Z" fill="#FCFFAB"/>
<path d="M903.38 83.9497C910.35 87.0097 917.32 89.3397 923.98 93.7897" stroke="black" stroke-miterlimit="10"/>
<path d="M938.88 91.6098L936.36 60.8498C936.3 57.0098 937.66 54.7998 939.02 54.3798C944.79 52.5898 960.08 56.7798 955.53 65.1498C948.14 78.7398 942.11 91.7798 942.11 91.7798C942.11 91.7798 938.9 97.6898 938.88 91.6098Z" fill="#FCFFAB" stroke="black" stroke-miterlimit="10"/>
<path d="M952.7 60.1597C951.7 64.1897 950.88 67.1397 949.21 70.9797L952.7 60.1597Z" fill="#FCFFAB"/>
<path d="M952.7 60.1597C951.7 64.1897 950.88 67.1397 949.21 70.9797" stroke="black" stroke-miterlimit="10"/>
<path d="M946.14 68.6899C945.12 75.5299 944.22 78.6999 941.06 84.9799L946.14 68.6899Z" fill="#FCFFAB"/>
<path d="M946.14 68.6899C945.12 75.5299 944.22 78.6999 941.06 84.9799" stroke="black" stroke-miterlimit="10"/>
<path d="M941.21 60.3896C940.81 67.2696 940.69 71.2496 940.95 78.1296L941.21 60.3896Z" fill="#FCFFAB"/>
<path d="M941.21 60.3896C940.81 67.2696 940.69 71.2496 940.95 78.1296" stroke="black" stroke-miterlimit="10"/>
<path d="M946.05 98.7498L971.77 85.3998C973.48 84.4198 975.02 83.0298 975.18 82.0698C975.98 77.3398 965.4 64.0998 960.74 71.4598C953.16 83.4198 944.54 96.0398 944.54 96.0398C944.54 96.0398 941.24 101.24 946.04 98.7498H946.05Z" fill="#FCFFAB" stroke="black" stroke-miterlimit="10"/>
<path d="M967.2 73.1499C964.45 75.6699 961.9 78.4599 959.58 81.4899L967.2 73.1499Z" fill="#FCFFAB"/>
<path d="M967.2 73.1499C964.45 75.6699 961.9 78.4599 959.58 81.4899" stroke="black" stroke-miterlimit="10"/>
<path d="M969.43 81.4497C964.17 84.6397 957.81 88.3497 952.28 90.9697L969.43 81.4497Z" fill="#FCFFAB"/>
<path d="M969.43 81.4497C964.17 84.6397 957.81 88.3497 952.28 90.9697" stroke="black" stroke-miterlimit="10"/>
<path d="M945.08 102.29L970.41 94.8C973.38 93.87 975.37 93.76 976.26 95.06C980.02 100.56 983 117.15 974.62 114.39C961.01 109.91 946.28 105.64 946.28 105.64C946.28 105.64 940.36 103.7 945.09 102.3L945.08 102.29Z" fill="#FCFFAB" stroke="black" stroke-miterlimit="10"/>
<path d="M977.11 108.32C973.56 108.21 969.93 107.73 966.25 106.89L977.11 108.32Z" fill="#FCFFAB"/>
<path d="M977.11 108.32C973.56 108.21 969.93 107.73 966.25 106.89" stroke="black" stroke-miterlimit="10"/>
<path d="M968.88 100.8C961.97 101.33 956.7 103.55 950.65 103.79L968.88 100.8Z" fill="#FCFFAB"/>
<path d="M968.88 100.8C961.97 101.33 956.7 103.55 950.65 103.79" stroke="black" stroke-miterlimit="10"/>
</g>
<path d="M984.64 117.73C987.8 21.0096 887.1 41.0296 886 83.4396L984.64 117.73Z" stroke="black" stroke-miterlimit="10"/>
<path d="M792.53 427.92C792.53 427.92 754.96 407.2 776.23 385.52C797.5 363.84 818.51 345.87 818.51 345.87C818.51 345.87 826.65 334.65 840.12 343.81C853.58 352.97 878.12 349.4 883.96 349.45C889.8 349.51 900.09 365.41 867.52 370.98C834.95 376.54 840.07 366.48 824.93 381.6C817.15 389.37 809.83 398.94 804.14 405.4C798.38 411.95 792.67 419.21 792.54 427.92H792.53Z" fill="#FAF6EA" stroke="black" stroke-miterlimit="10"/>
<path d="M820.15 467.52C811.2 462.09 803.42 456.44 799.02 451.21C785.22 434.82 795.14 417.53 797.55 413.27C799.96 409.02 820.37 386.89 820.37 386.89C820.37 386.89 826.09 377.25 843.55 381.07C861.01 384.89 867.46 385.08 879.58 383.52C891.7 381.96 895.04 397.53 870.27 403.72C845.5 409.9 839.78 405.62 839.78 405.62C839.78 405.62 836.26 426.87 829.16 428.35C829.16 428.35 836.13 429.43 844.3 436.19" fill="#FAF6EA"/>
<path d="M820.15 467.52C811.2 462.09 803.42 456.44 799.02 451.21C785.22 434.82 795.14 417.53 797.55 413.27C799.96 409.02 820.37 386.89 820.37 386.89C820.37 386.89 826.09 377.25 843.55 381.07C861.01 384.89 867.46 385.08 879.58 383.52C891.7 381.96 895.04 397.53 870.27 403.72C845.5 409.9 839.78 405.62 839.78 405.62C839.78 405.62 836.26 426.87 829.16 428.35C829.16 428.35 836.13 429.43 844.3 436.19" stroke="black" stroke-miterlimit="10"/>
<path d="M903.64 342.78C907.95 333.34 907.3 327.08 907.3 327.08C861.66 300.18 857.08 266.1 860.29 249.61C861.33 244.28 867.96 242.43 871.67 246.39C885.86 261.52 911.61 289.39 945.25 304.17C962.75 311.86 975.19 323.36 984.03 335.63" fill="#FAF6EA"/>
<path d="M903.64 342.78C907.95 333.34 907.3 327.08 907.3 327.08C861.66 300.18 857.08 266.1 860.29 249.61C861.33 244.28 867.96 242.43 871.67 246.39C885.86 261.52 911.61 289.39 945.25 304.17C962.75 311.86 975.19 323.36 984.03 335.63" stroke="black" stroke-miterlimit="10"/>
<path d="M539.76 400.419L396.64 466.789L427.85 488.049L509.77 513.029L539.76 400.419Z" fill="#FAF6EA" stroke="black" stroke-miterlimit="10"/>
<path d="M526.74 413.96C574.81 396.1 587.45 381.93 587.45 381.93C587.45 381.93 625.25 317.09 628.85 305.42C632.45 293.75 616.07 293.13 601.31 309.18C593.04 318.17 556.29 365.36 556.29 365.36C556.29 365.36 544.03 367.92 510.51 387.64C476.99 407.36 435.83 395.99 435.83 395.99C432.19 386.27 433.02 379.81 433.02 379.81C480.43 356.17 487.38 322.49 485.33 305.81C484.67 300.42 478.18 298.11 474.2 301.8C458.98 315.91 431.35 341.9 396.76 354.3C337.77 375.44 330.21 441.2 330.21 441.2C330.21 441.2 296.83 533.58 294.53 557.73L398.81 595.76C398.81 595.76 404.11 571.68 408.72 549.21C413.32 526.74 456.03 549.21 456.03 549.21C456.03 549.21 514.99 528.76 532.14 511.06C547.05 495.67 538.36 477.73 536.26 473.32C534.15 468.91 515.34 445.41 515.34 445.41C515.34 445.41 510.31 435.4 492.63 437.99C474.95 440.58 468.5 440.32 456.52 437.91C444.54 435.51 440.12 450.81 464.4 458.71C488.68 466.61 494.69 462.74 494.69 462.74C494.69 462.74 496.72 484.19 503.69 486.16C503.69 486.16 495.96 486.29 485.29 495.48C485.29 495.48 459.96 470.87 416.41 467.92" fill="#FAF6EA"/>
<path d="M526.74 413.96C574.81 396.1 587.45 381.93 587.45 381.93C587.45 381.93 625.25 317.09 628.85 305.42C632.45 293.75 616.07 293.13 601.31 309.18C593.04 318.17 556.29 365.36 556.29 365.36C556.29 365.36 544.03 367.92 510.51 387.64C476.99 407.36 435.83 395.99 435.83 395.99C432.19 386.27 433.02 379.81 433.02 379.81C480.43 356.17 487.38 322.49 485.33 305.81C484.67 300.42 478.18 298.11 474.2 301.8C458.98 315.91 431.35 341.9 396.76 354.3C337.77 375.44 330.21 441.2 330.21 441.2C330.21 441.2 296.83 533.58 294.53 557.73L398.81 595.76C398.81 595.76 404.11 571.68 408.72 549.21C413.32 526.74 456.03 549.21 456.03 549.21C456.03 549.21 514.99 528.76 532.14 511.06C547.05 495.67 538.36 477.73 536.26 473.32C534.15 468.91 515.34 445.41 515.34 445.41C515.34 445.41 510.31 435.4 492.63 437.99C474.95 440.58 468.5 440.32 456.52 437.91C444.54 435.51 440.12 450.81 464.4 458.71C488.68 466.61 494.69 462.74 494.69 462.74C494.69 462.74 496.72 484.19 503.69 486.16C503.69 486.16 495.96 486.29 485.29 495.48C485.29 495.48 459.96 470.87 416.41 467.92" stroke="black" stroke-miterlimit="10"/>
<path d="M518.15 332.25C518.15 332.25 573.72 388.49 574.4 403.61C575.08 418.73 561.4 440.31 550.75 448.13C540.1 455.95 525.76 438.53 525.76 438.53C525.76 438.53 536.79 403.87 536.11 398.71C535.05 390.73 523.36 367.25 509.26 351.68C501.93 343.59 498.72 313.63 518.15 332.25Z" fill="#FAF6EA" stroke="black" stroke-miterlimit="10"/>
<path d="M491.287 561.17C495.837 549.649 467.819 527.787 428.708 512.341C389.596 496.895 354.202 493.714 349.652 505.236C345.101 516.758 373.119 538.619 412.23 554.065C451.342 569.511 486.737 572.692 491.287 561.17Z" fill="white" stroke="black" stroke-linecap="round" stroke-linejoin="round"/>
<path d="M409.4 523.64C417.88 518.78 424.43 507.4 427.29 501.1C456.72 436.44 476.5 382.35 503.2 309.35L513.63 313.49C483.46 385.12 459.97 441.2 438.62 505.6C436.44 512.17 433.47 524.97 436.35 534.34" fill="#FAF6EA"/>
<path d="M409.4 523.64C417.88 518.78 424.43 507.4 427.29 501.1C456.72 436.44 476.5 382.35 503.2 309.35L513.63 313.49C483.46 385.12 459.97 441.2 438.62 505.6C436.44 512.17 433.47 524.97 436.35 534.34" stroke="black" stroke-miterlimit="10"/>
<path d="M573.284 262.185L579.015 270.899L587.73 265.169L581.999 256.454L573.284 262.185Z" stroke="#E93323" stroke-width="2" stroke-miterlimit="10"/>
<path d="M481.76 211.43C496.8 219.96 513.96 228.25 532.54 235.76C533.63 236.2 534.75 236.64 535.86 237.08C536.97 237.52 538.09 237.96 539.19 238.39C557.88 245.61 576.07 251.28 592.88 255.32C592.58 228.46 577.62 203.9 552.83 194.11C528.04 184.32 500.34 192.03 481.76 211.44V211.43Z" fill="white" stroke="black" stroke-linecap="round" stroke-linejoin="round"/>
<path d="M420.4 145.32C420.19 145.87 419.99 146.41 419.8 146.96C419.91 146.56 420.04 146.17 420.19 145.79C420.25 145.63 420.33 145.48 420.4 145.32Z" stroke="black" stroke-linecap="round" stroke-linejoin="round"/>
<path d="M682.68 249.45C682.53 249.83 682.35 250.21 682.17 250.58C682.4 250.05 682.63 249.51 682.85 248.97C682.79 249.13 682.75 249.29 682.68 249.45Z" stroke="black" stroke-linecap="round" stroke-linejoin="round"/>
<path d="M417.01 157.45C416.35 160.77 415.92 164.13 415.72 167.5C413.73 199.17 430.72 232.84 460.67 259.08C457.65 290.17 471.42 322.3 498.36 332.99C525.3 343.68 557.21 329.67 576.14 304.89C615.86 306.31 651.17 293.38 671.26 268.88C673.42 266.28 675.39 263.54 677.16 260.66C676.93 259.69 676.53 258.67 675.94 257.58C662.16 266.03 631.06 265.19 592.87 255.95C576.06 251.89 557.87 246.19 539.18 238.94C538.08 238.51 536.96 238.07 535.85 237.63C534.74 237.19 533.63 236.75 532.53 236.31C513.95 228.77 496.79 220.45 481.75 211.87C447.57 192.4 424.31 171.67 420 156.05C418.83 156.44 417.83 156.91 417.01 157.46V157.45Z" fill="#FAF6EA" stroke="black" stroke-miterlimit="10"/>
<path d="M675.94 256.94C676.53 258.02 676.94 259.04 677.16 260.01C679.04 257.02 680.71 253.86 682.16 250.58C680.88 253.1 678.77 255.23 675.93 256.94H675.94Z" stroke="black" stroke-linecap="round" stroke-linejoin="round"/>
<path d="M419.8 146.96C418.61 150.35 417.69 153.79 417.01 157.27C417.84 156.72 418.83 156.25 420 155.86C419.1 152.67 419.01 149.68 419.79 146.96H419.8Z" stroke="black" stroke-linecap="round" stroke-linejoin="round"/>
<path d="M423.07 162.96C422.87 162.78 422.68 162.6 422.48 162.42L421.27 165.27C420.74 167.91 420.4 170.57 420.24 173.24C419.51 184.81 421.99 196.72 427.22 208.24C433.32 221.7 455.46 248.96 468.31 260.16C465.9 284.8 477.32 317.16 500.59 326.35C523.66 335.46 555.02 319.33 570.1 299.69C601.72 300.81 645.64 288.85 661.63 269.44C664 266.61 666.06 263.55 667.87 260.3C670.99 259.41 673.7 258.29 675.94 256.92C667.08 240.5 618.12 211.54 555.67 186.88C493.23 162.22 437.69 149.91 420 155.85C420.63 158.12 421.65 160.49 423.07 162.95V162.96Z" fill="url(#paint2_linear_1_6168)" stroke="url(#paint3_linear_1_6168)" stroke-miterlimit="10"/>
<path d="M420.4 145.32C420.2 145.86 419.99 146.42 419.8 146.96C419.02 149.67 419.11 152.66 420 155.86C426.21 178.27 471.74 211.21 532.53 235.75C533.62 236.19 534.74 236.64 535.85 237.07C536.96 237.5 538.08 237.95 539.18 238.37C600.33 261.99 656.08 269.04 675.94 256.93C678.78 255.21 680.88 253.09 682.17 250.57C682.4 250.04 682.63 249.49 682.85 248.96C690.52 227.05 638.98 186.57 567.02 158.15C495.06 129.73 429.77 124.07 420.4 145.31V145.32Z" stroke="black" stroke-linecap="round" stroke-linejoin="round"/>
<path d="M416.631 139.351L415.273 149.692L425.614 151.05L426.972 140.708L416.631 139.351Z" fill="white" stroke="black" stroke-linecap="round" stroke-linejoin="round"/>
<path d="M422.649 151.989L414.715 158.604L421.33 166.538L429.264 159.923L422.649 151.989Z" fill="white" stroke="black" stroke-linecap="round" stroke-linejoin="round"/>
<path d="M430.967 167.943L426.031 176.915L435.002 181.851L439.939 172.88L430.967 167.943Z" fill="white" stroke="black" stroke-linecap="round" stroke-linejoin="round"/>
<path d="M449.05 185.557L446.079 195.262L455.785 198.233L458.756 188.528L449.05 185.557Z" fill="white" stroke="black" stroke-linecap="round" stroke-linejoin="round"/>
<path d="M474.796 203.558L473.284 213.524L483.249 215.036L484.762 205.071L474.796 203.558Z" fill="white" stroke="black" stroke-linecap="round" stroke-linejoin="round"/>
<path d="M506.841 221.182L506.57 231.188L516.576 231.459L516.847 221.453L506.841 221.182Z" fill="white" stroke="black" stroke-linecap="round" stroke-linejoin="round"/>
<path d="M553.163 236.24L543.253 237.135L544.148 247.044L554.058 246.15L553.163 236.24Z" fill="white" stroke="black" stroke-linecap="round" stroke-linejoin="round"/>
<path d="M588.906 247.22L579.215 249.292L581.288 258.983L590.978 256.911L588.906 247.22Z" fill="white" stroke="black" stroke-linecap="round" stroke-linejoin="round"/>
<path d="M621.117 253.767L611.837 257.128L615.198 266.408L624.478 263.047L621.117 253.767Z" fill="white" stroke="black" stroke-linecap="round" stroke-linejoin="round"/>
<path d="M647.966 255.978L639.452 260.932L644.406 269.446L652.92 264.492L647.966 255.978Z" fill="white" stroke="black" stroke-linecap="round" stroke-linejoin="round"/>
<path d="M667.368 253.521L660.669 260.715L667.863 267.414L674.562 260.22L667.368 253.521Z" fill="white" stroke="black" stroke-linecap="round" stroke-linejoin="round"/>
<path d="M676.635 247.968L675.307 257.708L685.047 259.035L686.375 249.295L676.635 247.968Z" fill="white" stroke="black" stroke-linecap="round" stroke-linejoin="round"/>
<path d="M683.284 237.188L676.753 244.534L684.099 251.066L690.63 243.719L683.284 237.188Z" fill="white" stroke="black" stroke-linecap="round" stroke-linejoin="round"/>
<path d="M675.747 227.905L672.705 237.273L682.074 240.316L685.116 230.947L675.747 227.905Z" fill="white" stroke="black" stroke-linecap="round" stroke-linejoin="round"/>
<path d="M663.96 216.052L662.945 225.87L672.763 226.885L673.778 217.067L663.96 216.052Z" fill="white" stroke="black" stroke-linecap="round" stroke-linejoin="round"/>
<path d="M657.357 202.086L647.458 202.547L647.92 212.447L657.819 211.985L657.357 202.086Z" fill="white" stroke="black" stroke-linecap="round" stroke-linejoin="round"/>
<path d="M636.141 186.426L626.342 188.15L628.066 197.95L637.866 196.225L636.141 186.426Z" fill="white" stroke="black" stroke-linecap="round" stroke-linejoin="round"/>
<path d="M610.494 171.055L600.914 173.96L603.819 183.539L613.399 180.634L610.494 171.055Z" fill="white" stroke="black" stroke-linecap="round" stroke-linejoin="round"/>
<path d="M580.866 156.576L571.641 160.639L575.704 169.864L584.929 165.801L580.866 156.576Z" fill="white" stroke="black" stroke-linecap="round" stroke-linejoin="round"/>
<path d="M547.62 143.938L538.912 149.154L544.128 157.861L552.835 152.646L547.62 143.938Z" fill="white" stroke="black" stroke-linecap="round" stroke-linejoin="round"/>
<path d="M511.19 134.199L503.172 140.569L509.543 148.587L517.56 142.216L511.19 134.199Z" fill="white" stroke="black" stroke-linecap="round" stroke-linejoin="round"/>
<path d="M472.009 128.093L464.902 135.589L472.399 142.696L479.506 135.199L472.009 128.093Z" fill="white" stroke="black" stroke-linecap="round" stroke-linejoin="round"/>
<path d="M430.487 126.449L424.526 135.008L433.084 140.969L439.046 132.411L430.487 126.449Z" fill="white" stroke="black" stroke-linecap="round" stroke-linejoin="round"/>
<path d="M378.43 176.95C374.78 75.5296 490.69 98.4197 485.02 152.7L378.43 176.95Z" fill="#9ABD56" stroke="black" stroke-miterlimit="10"/>
<path d="M380.91 176.299C388.54 79.8294 486.38 110.939 482.76 153.199L380.91 176.299Z" fill="#F0F795"/>
<mask id="mask2_1_6168" style="mask-type:luminance" maskUnits="userSpaceOnUse" x="380" y="112" width="103" height="65">
<path d="M380.91 176.299C388.54 79.8294 486.38 110.939 482.76 153.199L380.91 176.299Z" fill="white"/>
</mask>
<g mask="url(#mask2_1_6168)">
<path d="M435.12 156.619L460.07 136.869C463.33 134.349 465.71 131.949 465.07 129.929C463.23 124.149 450.77 115.889 446.68 124.999C440.04 139.789 432.9 154.239 432.9 154.239C432.9 154.239 430 160.669 435.12 156.629V156.619Z" fill="#FCFFAB" stroke="black" stroke-miterlimit="10"/>
<path d="M451.8 125.499C449.07 128.969 448.3 130.429 446.16 134.289L451.8 125.499Z" fill="#FCFFAB"/>
<path d="M451.8 125.499C449.07 128.969 448.3 130.429 446.16 134.289" stroke="black" stroke-miterlimit="10"/>
<path d="M451.84 132.369C446.76 137.729 442.51 143.869 439.28 150.499L451.84 132.369Z" fill="#FCFFAB"/>
<path d="M451.84 132.369C446.76 137.729 442.51 143.869 439.28 150.499" stroke="black" stroke-miterlimit="10"/>
<path d="M461.15 131.059C455.64 135.969 454.9 137.219 448.96 141.619L461.15 131.059Z" fill="#FCFFAB"/>
<path d="M461.15 131.059C455.64 135.969 454.9 137.219 448.96 141.619" stroke="black" stroke-miterlimit="10"/>
<path d="M437.2 163.259L472.75 157.559C476.96 156.929 479.43 156.099 479.63 154.629C480.5 148.429 473.04 133.589 464.77 139.729C451.34 149.689 436.41 159.999 436.41 159.999C436.41 159.999 430.56 164.329 437.2 163.269V163.259Z" fill="#FCFFAB" stroke="black" stroke-miterlimit="10"/>
<path d="M471.82 143.489C467.61 145.229 466.04 145.829 462.16 148.219L471.82 143.489Z" fill="#FCFFAB"/>
<path d="M471.82 143.489C467.61 145.229 466.04 145.829 462.16 148.219" stroke="black" stroke-miterlimit="10"/>
<path d="M465.42 151.779C458.15 154.039 450.96 155.579 443.85 159.259L465.42 151.779Z" fill="#FCFFAB"/>
<path d="M465.42 151.779C458.15 154.039 450.96 155.579 443.85 159.259" stroke="black" stroke-miterlimit="10"/>
<path d="M429.28 155.429L435.21 125.149C435.7 121.339 434.6 118.999 433.29 118.419C427.76 115.999 412.1 118.459 415.68 127.279C421.51 141.599 426.05 155.239 426.05 155.239C426.05 155.239 428.58 161.469 429.28 155.429Z" fill="#FCFFAB" stroke="black" stroke-miterlimit="10"/>
<path d="M419.06 122.649C419.6 126.759 420.09 129.789 421.32 133.799L419.06 122.649Z" fill="#FCFFAB"/>
<path d="M419.06 122.649C419.6 126.759 420.09 129.789 421.32 133.799" stroke="black" stroke-miterlimit="10"/>
<path d="M424.62 131.849C424.87 138.759 425.42 142.009 427.86 148.599L424.62 131.849Z" fill="#FCFFAB"/>
<path d="M424.62 131.849C424.87 138.759 425.42 142.009 427.86 148.599" stroke="black" stroke-miterlimit="10"/>
<path d="M430.45 124.149C430.08 131.029 429.76 134.999 428.73 141.799L430.45 124.149Z" fill="#FCFFAB"/>
<path d="M430.45 124.149C430.08 131.029 429.76 134.999 428.73 141.799" stroke="black" stroke-miterlimit="10"/>
<path d="M421.36 161.729L397.28 145.599C395.69 144.439 394.32 142.879 394.26 141.909C393.99 137.119 405.98 125.139 409.79 132.979C415.99 145.709 423.15 159.209 423.15 159.209C423.15 159.209 425.85 164.749 421.35 161.729H421.36Z" fill="#FCFFAB" stroke="black" stroke-miterlimit="10"/>
<path d="M403.2 133.939C405.65 136.749 407.88 139.809 409.85 143.069L403.2 133.939Z" fill="#FCFFAB"/>
<path d="M403.2 133.939C405.65 136.749 407.88 139.809 409.85 143.069" stroke="black" stroke-miterlimit="10"/>
<path d="M400.06 141.939C404.93 145.699 410.84 150.089 416.04 153.309L400.06 141.939Z" fill="#FCFFAB"/>
<path d="M400.06 141.939C404.93 145.699 410.84 150.089 416.04 153.309" stroke="black" stroke-miterlimit="10"/>
<path d="M421.93 165.359L397.6 155.089C394.75 153.829 392.79 153.499 391.76 154.699C387.42 159.739 382.61 175.899 391.24 174.089C405.27 171.149 420.38 168.549 420.38 168.549C420.38 168.549 426.48 167.279 421.94 165.359H421.93Z" fill="#FCFFAB" stroke="black" stroke-miterlimit="10"/>
<path d="M389.44 167.779C392.98 168.059 396.65 167.989 400.39 167.569L389.44 167.779Z" fill="#FCFFAB"/>
<path d="M389.44 167.779C392.98 168.059 396.65 167.989 400.39 167.569" stroke="black" stroke-miterlimit="10"/>
<path d="M398.45 161.229C405.26 162.519 410.25 165.319 416.23 166.229L398.45 161.229Z" fill="#FCFFAB"/>
<path d="M398.45 161.229C405.26 162.519 410.25 165.319 416.23 166.229" stroke="black" stroke-miterlimit="10"/>
</g>
<path d="M380.91 176.299C388.54 79.8294 486.38 110.939 482.76 153.199L380.91 176.299Z" stroke="black" stroke-miterlimit="10"/>
<path d="M540.59 488.359C540.59 488.359 579.52 470.31 559.81 447.2C540.11 424.08 520.41 404.69 520.41 404.69C520.41 404.69 513.07 392.93 499 401.12C484.93 409.31 460.71 404.04 454.88 403.69C449.05 403.34 437.68 418.49 469.77 426.31C501.87 434.14 497.47 423.74 511.52 439.88C518.74 448.18 525.38 458.23 530.59 465.07C535.87 472 541.07 479.649 540.59 488.349V488.359Z" fill="#FAF6EA" stroke="black" stroke-miterlimit="10"/>
<path d="M510.27 525.93C519.57 521.14 527.73 516.05 532.49 511.14C547.4 495.75 538.71 477.81 536.61 473.4C534.5 468.99 515.69 445.49 515.69 445.49C515.69 445.49 510.66 435.48 492.98 438.07C475.3 440.66 468.85 440.4 456.87 437.99C444.89 435.59 440.47 450.89 464.75 458.79C489.03 466.69 495.04 462.82 495.04 462.82C495.04 462.82 497.07 484.27 504.04 486.24C504.04 486.24 497.02 486.83 488.39 493.01" fill="#FAF6EA"/>
<path d="M510.27 525.93C519.57 521.14 527.73 516.05 532.49 511.14C547.4 495.75 538.71 477.81 536.61 473.4C534.5 468.99 515.69 445.49 515.69 445.49C515.69 445.49 510.66 435.48 492.98 438.07C475.3 440.66 468.85 440.4 456.87 437.99C444.89 435.59 440.47 450.89 464.75 458.79C489.03 466.69 495.04 462.82 495.04 462.82C495.04 462.82 497.07 484.27 504.04 486.24C504.04 486.24 497.02 486.83 488.39 493.01" stroke="black" stroke-miterlimit="10"/>
<path d="M435.71 395.66C432.07 385.94 433.16 379.74 433.16 379.74C480.57 356.1 487.52 322.42 485.47 305.74C484.81 300.35 478.32 298.04 474.34 301.73C459.12 315.84 431.49 341.83 396.9 354.23C378.9 360.68 365.69 371.28 356.02 382.91" fill="#FAF6EA"/>
<path d="M435.71 395.66C432.07 385.94 433.16 379.74 433.16 379.74C480.57 356.1 487.52 322.42 485.47 305.74C484.81 300.35 478.32 298.04 474.34 301.73C459.12 315.84 431.49 341.83 396.9 354.23C378.9 360.68 365.69 371.28 356.02 382.91" stroke="black" stroke-miterlimit="10"/>
</g>
<defs>
<linearGradient id="paint0_linear_1_6168" x1="813.067" y1="172.339" x2="847.029" y2="279.79" gradientUnits="userSpaceOnUse">
<stop stop-color="#FCC4A7"/>
<stop offset="0.13" stop-color="#FCC0A1"/>
<stop offset="0.3" stop-color="#FCB590"/>
<stop offset="0.49" stop-color="#FCA374"/>
<stop offset="0.71" stop-color="#FC8A4D"/>
<stop offset="0.93" stop-color="#FC6B1D"/>
<stop offset="1" stop-color="#FC600C"/>
</linearGradient>
<linearGradient id="paint1_linear_1_6168" x1="673.01" y1="186.48" x2="936.69" y2="186.48" gradientUnits="userSpaceOnUse">
<stop/>
<stop offset="1"/>
</linearGradient>
<linearGradient id="paint2_linear_1_6168" x1="569.3" y1="157.32" x2="492.07" y2="335.03" gradientUnits="userSpaceOnUse">
<stop stop-color="#FCC4A7"/>
<stop offset="0.13" stop-color="#FCC0A1"/>
<stop offset="0.3" stop-color="#FCB590"/>
<stop offset="0.49" stop-color="#FCA374"/>
<stop offset="0.71" stop-color="#FC8A4D"/>
<stop offset="0.93" stop-color="#FC6B1D"/>
<stop offset="1" stop-color="#FC600C"/>
</linearGradient>
<linearGradient id="paint3_linear_1_6168" x1="555.86" y1="186.43" x2="500.41" y2="326.82" gradientUnits="userSpaceOnUse">
<stop/>
<stop offset="1"/>
</linearGradient>
</defs>
</svg>
