<svg width="388" height="471" viewBox="0 0 388 471" fill="none" xmlns="http://www.w3.org/2000/svg">
<path d="M191.728 555.825C345.016 555.825 469.28 431.607 469.28 278.376C469.28 125.145 345.016 0.92627 191.728 0.92627C38.4398 0.92627 -85.8247 125.145 -85.8247 278.376C-85.8247 431.607 38.4398 555.825 191.728 555.825Z" fill="#415E43" stroke="black" stroke-miterlimit="10"/>
<path d="M443.741 363.428C443.741 347.252 383.674 334.138 309.577 334.138C235.48 334.138 175.412 347.252 175.412 363.428C175.412 367.837 179.882 372.018 187.872 375.767C181.281 375.603 174.56 375.519 167.731 375.519C99.8112 375.519 42.191 383.922 21.8928 395.571C-6.16009 397.502 -27.1489 405.289 -27.1489 414.603C-27.1489 425.369 0.879421 434.095 35.4565 434.095C52.2454 434.095 67.4919 432.038 78.7347 428.688C103.846 432.094 134.56 434.099 167.731 434.099C252.588 434.099 321.377 420.985 321.377 404.809C321.377 400.495 316.487 396.401 307.708 392.715C308.329 392.715 308.949 392.718 309.573 392.718C383.67 392.718 443.738 379.605 443.738 363.428H443.741Z" fill="#293A29"/>
<path d="M331.877 87.5483C332.049 90.5516 332.224 93.5549 332.396 96.5547C332.554 99.3197 332.683 102.13 333.777 104.717C336.887 112.072 344.715 116.442 351.376 120.105C360.088 124.892 368.992 129.223 377.893 133.646C385.087 137.217 395.979 140.973 398.584 149.472C399.699 153.116 399.709 156.992 399.709 160.801C399.709 196.655 399.776 232.506 399.825 268.359C399.843 282.269 399.86 296.178 399.874 310.09C399.874 311.555 399.874 313.02 399.878 314.485L402.528 316.461C404.144 317.663 405.094 319.559 405.094 321.574C405.094 321.574 405.094 346.302 405.094 346.309C405.094 361.71 388.34 365.39 376.091 365.874C333.048 367.577 289.819 367.612 246.775 365.975C245.92 365.944 245.064 365.909 244.206 365.874C231.957 365.383 215.203 361.71 215.203 346.309C215.203 346.302 215.203 321.574 215.203 321.574C215.203 319.559 216.156 317.663 217.769 316.461L220.419 314.485C220.419 313.02 220.419 311.555 220.423 310.09C220.44 296.181 220.454 282.272 220.472 268.359C220.521 232.506 220.584 196.655 220.587 160.801C220.587 156.992 220.598 153.116 221.713 149.472C224.314 140.977 235.206 137.22 242.404 133.646C251.305 129.227 260.209 124.895 268.921 120.105C275.582 116.442 283.407 112.072 286.52 104.717C287.614 102.127 287.743 99.3197 287.901 96.5547C288.073 93.5514 288.248 90.5481 288.42 87.5483" fill="#FAF6EA"/>
<path d="M331.877 87.5483C332.049 90.5516 332.224 93.5549 332.396 96.5547C332.554 99.3197 332.683 102.13 333.777 104.717C336.887 112.072 344.715 116.442 351.376 120.105C360.088 124.892 368.992 129.223 377.893 133.646C385.087 137.217 395.979 140.973 398.584 149.472C399.699 153.116 399.709 156.992 399.709 160.801C399.709 196.655 399.776 232.506 399.825 268.359C399.843 282.269 399.86 296.178 399.874 310.09C399.874 311.555 399.874 313.02 399.878 314.485L402.528 316.461C404.144 317.663 405.094 319.559 405.094 321.574C405.094 321.574 405.094 346.302 405.094 346.309C405.094 361.71 388.34 365.39 376.091 365.874C333.048 367.577 289.819 367.612 246.775 365.975C245.92 365.944 245.064 365.909 244.206 365.874C231.957 365.383 215.203 361.71 215.203 346.309C215.203 346.302 215.203 321.574 215.203 321.574C215.203 319.559 216.156 317.663 217.769 316.461L220.419 314.485C220.419 313.02 220.419 311.555 220.423 310.09C220.44 296.181 220.454 282.272 220.472 268.359C220.521 232.506 220.584 196.655 220.587 160.801C220.587 156.992 220.598 153.116 221.713 149.472C224.314 140.977 235.206 137.22 242.404 133.646C251.305 129.227 260.209 124.895 268.921 120.105C275.582 116.442 283.407 112.072 286.52 104.717C287.614 102.127 287.743 99.3197 287.901 96.5547C288.073 93.5514 288.248 90.5481 288.42 87.5483" stroke="black" stroke-miterlimit="10"/>
<path d="M402.528 316.591L399.878 314.615C399.878 313.15 399.874 311.685 399.871 310.22C399.853 296.311 399.839 282.402 399.822 268.49C399.773 232.636 399.71 196.785 399.706 160.932C399.706 157.122 399.696 153.246 398.581 149.602C395.98 141.107 385.087 137.35 377.89 133.779C368.989 129.36 360.084 125.029 351.373 120.238C344.712 116.576 336.887 112.206 333.774 104.85H333.574C331.79 104.132 321.984 103.582 310.152 103.582C298.32 103.582 288.515 104.132 286.73 104.85H286.531C283.417 112.206 275.593 116.576 268.932 120.238C260.22 125.025 251.315 129.357 242.414 133.779C235.221 137.35 224.328 141.107 221.724 149.602C220.609 153.246 220.598 157.122 220.598 160.932C220.598 196.785 220.532 232.636 220.482 268.49C220.465 282.399 220.447 296.308 220.433 310.22C220.433 311.685 220.433 313.15 220.43 314.615L217.78 316.591C216.163 317.793 215.213 319.689 215.213 321.704V346.439C215.213 361.841 231.967 365.513 244.216 366.004C245.072 366.039 245.927 366.07 246.786 366.105C289.829 367.746 333.055 367.707 376.102 366.004C388.351 365.52 405.105 361.841 405.105 346.439V321.704C405.105 319.689 404.151 317.793 402.539 316.591H402.528Z" fill="url(#paint0_linear_107_3)" stroke="black" stroke-miterlimit="10"/>
<path d="M310.152 106.595C323.25 106.595 333.869 105.922 333.869 105.092C333.869 104.261 323.25 103.588 310.152 103.588C297.054 103.588 286.436 104.261 286.436 105.092C286.436 105.922 297.054 106.595 310.152 106.595Z" fill="url(#paint1_linear_107_3)" stroke="black" stroke-miterlimit="10"/>
<path d="M216.665 320.762C219.76 326.554 228.121 326.446 233.762 327.038C241.187 327.816 248.651 328.079 256.111 328.307C276.953 328.948 297.801 329.281 318.653 329.267C338.755 329.253 358.878 329.477 378.861 326.915C383.913 326.267 388.947 325.451 393.935 324.417C397.389 323.702 400.789 322.184 403.646 320.113" stroke="black" stroke-miterlimit="10"/>
<path d="M375.523 173.723H244.788V299.066H375.523V173.723Z" fill="#FAF6EA" stroke="black" stroke-miterlimit="10"/>
<path d="M220.43 314.807C223.399 320.6 231.424 320.492 236.84 321.084C243.964 321.862 251.129 322.125 258.288 322.353C278.292 322.994 298.299 323.327 318.31 323.313C337.598 323.299 356.915 323.523 376.091 320.961C380.94 320.313 385.771 319.496 390.559 318.463C393.872 317.748 397.136 316.23 399.881 314.159" stroke="black" stroke-miterlimit="10"/>
<path d="M331.93 37.3896H288.301C287.34 37.3896 286.562 38.1676 286.562 39.1278V41.4478C286.562 42.2923 287.169 42.9967 287.968 43.1544V49.9986C287.968 50.1388 288.006 50.2684 288.066 50.3841C287.964 50.4682 287.898 50.6224 287.898 50.7976V52.3781C287.898 52.6479 288.055 52.8652 288.252 52.8652H289.514V53.3313H288.192C287.996 53.3313 287.838 53.489 287.838 53.6853V54.8347C287.838 55.031 287.996 55.1887 288.192 55.1887H289.514V55.455H288.806C288.343 55.455 287.968 55.8299 287.968 56.2925V61.2163C287.968 61.6789 288.343 62.0538 288.806 62.0538H289.514V65.0011C289.514 65.7475 289.531 66.4449 289.563 67.0441H288.806C288.343 67.0441 287.968 67.4191 287.968 67.8817V88.9188H332.336V67.8817C332.336 67.4191 331.961 67.0441 331.499 67.0441H330.741C330.773 66.4449 330.79 65.7475 330.79 65.0011V62.0538H331.499C331.961 62.0538 332.336 61.6789 332.336 61.2163V56.2925C332.336 55.8299 331.961 55.455 331.499 55.455H330.79V55.1887H331.996C332.193 55.1887 332.35 55.031 332.35 54.8347V53.6853C332.35 53.489 332.193 53.3313 331.996 53.3313H330.79V52.8652H332.052C332.249 52.8652 332.406 52.6479 332.406 52.3781V50.7976C332.406 50.6224 332.336 50.4682 332.238 50.3841C332.298 50.2684 332.336 50.1388 332.336 49.9986V43.1369C333.101 42.9512 333.669 42.2713 333.669 41.4513V39.1313C333.669 38.1711 332.89 37.3932 331.93 37.3932V37.3896Z" fill="black"/>
<path d="M310.064 230.277C310.124 230.431 310.152 230.585 310.152 230.743C310.152 235.789 278.859 239.879 240.258 239.879C201.656 239.879 170.364 235.789 170.364 230.743C170.364 230.592 170.392 230.445 170.448 230.294C168.664 235.123 167.724 240.212 167.724 245.539C167.724 276.406 187.184 301.431 240.275 301.431C293.366 301.431 312.826 276.406 312.826 245.539C312.826 240.247 311.859 235.127 310.067 230.277H310.064Z" fill="#FAF6EA" stroke="black" stroke-miterlimit="10"/>
<path d="M310.064 230.277C310.064 230.277 310.064 230.27 310.06 230.266C309.429 228.658 305.608 227.158 299.41 225.872C287.031 223.307 265.169 221.604 240.258 221.604C215.346 221.604 193.516 223.303 181.133 225.865C174.935 227.147 171.107 228.644 170.462 230.252C170.458 230.266 170.451 230.277 170.448 230.291C170.392 230.438 170.364 230.589 170.364 230.74C170.364 235.786 201.656 239.876 240.258 239.876C278.859 239.876 310.151 235.786 310.151 230.74C310.151 230.585 310.12 230.428 310.064 230.273V230.277Z" fill="#FAF6EA" stroke="black" stroke-miterlimit="10"/>
<path d="M240.282 248.521C202.119 248.521 171.163 251.346 170.988 254.836C170.988 254.857 170.988 254.878 170.988 254.899C171.188 258.39 202.133 261.211 240.282 261.211C278.432 261.211 309.377 258.39 309.576 254.899C309.576 254.878 309.576 254.857 309.576 254.836C309.401 251.346 278.449 248.521 240.282 248.521Z" fill="url(#paint2_linear_107_3)" stroke="black" stroke-miterlimit="10"/>
<path d="M309.563 254.973C308.935 258.428 278.158 261.211 240.275 261.211C202.392 261.211 171.689 258.435 170.988 254.987H170.981C175.346 279.563 195.395 298.035 240.272 298.035C285.149 298.035 305.079 279.374 309.577 254.976H309.563V254.973Z" fill="url(#paint3_linear_107_3)" stroke="black" stroke-miterlimit="10"/>
<path d="M292.525 399.159C292.525 406.529 269.212 410.068 240.454 410.068C211.696 410.068 188.383 406.532 188.383 399.159C188.383 391.786 211.696 382.401 240.454 382.401C269.212 382.401 292.525 391.789 292.525 399.159Z" fill="#FAF6EA" stroke="black" stroke-miterlimit="10"/>
<path d="M170.448 230.291C170.448 230.291 170.459 230.267 170.462 230.252C170.459 230.267 170.452 230.277 170.448 230.291Z" fill="white" stroke="black" stroke-linecap="round" stroke-linejoin="round"/>
<path d="M310.061 230.267C310.061 230.267 310.061 230.274 310.064 230.278C310.064 230.278 310.064 230.27 310.061 230.267Z" fill="white" stroke="black" stroke-linecap="round" stroke-linejoin="round"/>
<path d="M242.561 379.208V304.487C242.561 302.801 244.829 301.301 246.719 301.301C244.626 301.382 242.484 301.431 240.275 301.431C238.193 301.431 236.17 301.389 234.189 301.312C236.075 301.312 238.347 302.815 238.347 304.501V379.212C238.347 384.237 226.876 383.743 226.866 392.774C226.866 394.554 232.948 396.482 240.454 396.482C247.96 396.482 254.042 394.551 254.042 392.774C254.032 383.743 242.561 384.234 242.561 379.212V379.208Z" fill="#FAF6EA" stroke="black" stroke-miterlimit="10"/>
<path d="M289.509 272.891C291.798 272.891 293.653 271.036 293.653 268.749C293.653 266.461 291.798 264.606 289.509 264.606C287.221 264.606 285.366 266.461 285.366 268.749C285.366 271.036 287.221 272.891 289.509 272.891Z" stroke="black" stroke-miterlimit="10"/>
<path d="M271.017 284.697C272.314 284.697 273.366 283.646 273.366 282.349C273.366 281.053 272.314 280.001 271.017 280.001C269.72 280.001 268.668 281.053 268.668 282.349C268.668 283.646 269.72 284.697 271.017 284.697Z" stroke="black" stroke-miterlimit="10"/>
<path d="M246.561 269.226C245.264 269.226 244.212 270.277 244.212 271.574C244.212 272.87 245.264 273.921 246.561 273.921C247.858 273.921 248.91 272.87 248.91 271.574C248.91 270.277 247.858 269.226 246.561 269.226Z" stroke="black" stroke-miterlimit="10"/>
<path d="M214.904 280.191C213.607 280.191 212.555 281.242 212.555 282.539C212.555 283.836 213.607 284.887 214.904 284.887C216.201 284.887 217.253 283.836 217.253 282.539C217.253 281.242 216.201 280.191 214.904 280.191Z" stroke="black" stroke-miterlimit="10"/>
<path d="M194.627 265.118C192.685 265.118 191.114 266.692 191.114 268.63C191.114 270.571 192.688 272.141 194.627 272.141C196.569 272.141 198.14 270.568 198.14 268.63C198.14 266.692 196.566 265.118 194.627 265.118Z" stroke="black" stroke-miterlimit="10"/>
<path d="M246.561 292.092C248.348 292.092 249.797 290.644 249.797 288.857C249.797 287.071 248.348 285.623 246.561 285.623C244.774 285.623 243.325 287.071 243.325 288.857C243.325 290.644 244.774 292.092 246.561 292.092Z" stroke="black" stroke-miterlimit="10"/>
<path d="M231.564 265.118C230.592 265.118 229.807 265.903 229.807 266.874C229.807 267.845 230.592 268.63 231.564 268.63C232.535 268.63 233.32 267.845 233.32 266.874C233.32 265.903 232.535 265.118 231.564 265.118Z" stroke="black" stroke-miterlimit="10"/>
<path d="M226.294 273.925C225.323 273.925 224.538 274.71 224.538 275.681C224.538 276.651 225.323 277.436 226.294 277.436C227.266 277.436 228.051 276.651 228.051 275.681C228.051 274.71 227.266 273.925 226.294 273.925Z" stroke="black" stroke-miterlimit="10"/>
<path d="M263.539 264.603C261.615 264.603 260.055 266.163 260.055 268.086C260.055 270.01 261.615 271.57 263.539 271.57C265.464 271.57 267.024 270.01 267.024 268.086C267.024 266.163 265.464 264.603 263.539 264.603Z" stroke="black" stroke-miterlimit="10"/>
<path d="M180.552 230.277C180.611 230.431 180.639 230.585 180.639 230.743C180.639 235.789 149.347 239.879 110.746 239.879C72.1439 239.879 40.8517 235.789 40.8517 230.743C40.8517 230.592 40.8798 230.445 40.9359 230.294C39.1514 235.123 38.2119 240.212 38.2119 245.539C38.2119 276.406 57.6722 301.431 110.763 301.431C163.854 301.431 183.314 276.406 183.314 245.539C183.314 240.247 182.347 235.127 180.555 230.277H180.552Z" fill="#FAF6EA" stroke="black" stroke-miterlimit="10"/>
<path d="M180.552 230.277C180.552 230.277 180.552 230.27 180.548 230.266C179.917 228.658 176.096 227.158 169.898 225.872C157.519 223.307 135.657 221.604 110.745 221.604C85.8336 221.604 64.0034 223.303 51.6212 225.865C45.423 227.147 41.5948 228.644 40.9497 230.252C40.9462 230.266 40.9392 230.277 40.9357 230.291C40.8796 230.438 40.8516 230.589 40.8516 230.74C40.8516 235.786 72.1437 239.876 110.745 239.876C149.347 239.876 180.639 235.786 180.639 230.74C180.639 230.585 180.608 230.428 180.552 230.273V230.277Z" fill="#FAF6EA" stroke="black" stroke-miterlimit="10"/>
<path d="M110.77 248.521C72.6065 248.521 41.6509 251.346 41.4756 254.836C41.4756 254.857 41.4756 254.878 41.4756 254.899C41.6754 258.39 72.6205 261.211 110.77 261.211C148.919 261.211 179.864 258.39 180.064 254.899C180.064 254.878 180.064 254.857 180.064 254.836C179.889 251.346 148.937 248.521 110.77 248.521Z" fill="url(#paint4_linear_107_3)" stroke="black" stroke-miterlimit="10"/>
<path d="M180.05 254.973C179.423 258.428 148.646 261.211 110.763 261.211C72.8801 261.211 42.1769 258.435 41.4758 254.987H41.4688C45.8334 279.563 65.8827 298.035 110.76 298.035C155.636 298.035 175.567 279.374 180.064 254.976H180.05V254.973Z" fill="url(#paint5_linear_107_3)" stroke="black" stroke-miterlimit="10"/>
<path d="M163.012 399.159C163.012 406.529 139.699 410.068 110.942 410.068C82.1842 410.068 58.8711 406.532 58.8711 399.159C58.8711 391.786 82.1842 382.401 110.942 382.401C139.699 382.401 163.012 391.789 163.012 399.159Z" fill="#FAF6EA" stroke="black" stroke-miterlimit="10"/>
<path d="M40.936 230.291C40.936 230.291 40.9466 230.267 40.9501 230.252C40.9466 230.267 40.9396 230.277 40.936 230.291Z" fill="white" stroke="black" stroke-linecap="round" stroke-linejoin="round"/>
<path d="M180.548 230.267C180.548 230.267 180.548 230.274 180.552 230.278C180.552 230.278 180.552 230.27 180.548 230.267Z" fill="white" stroke="black" stroke-linecap="round" stroke-linejoin="round"/>
<path d="M113.049 379.208V304.487C113.049 302.801 115.317 301.301 117.206 301.301C115.114 301.382 112.972 301.431 110.763 301.431C108.681 301.431 106.658 301.389 104.677 301.312C106.563 301.312 108.835 302.815 108.835 304.501V379.212C108.835 384.237 97.364 383.743 97.3535 392.774C97.3535 394.554 103.436 396.482 110.942 396.482C118.448 396.482 124.53 394.551 124.53 392.774C124.519 383.743 113.049 384.234 113.049 379.212V379.208Z" fill="#FAF6EA" stroke="black" stroke-miterlimit="10"/>
<path d="M67.4218 268.23C67.4218 270.519 65.5673 272.372 63.2781 272.372C60.9888 272.372 59.1343 270.519 59.1343 268.23C59.1343 265.942 60.9888 264.088 63.2781 264.088C65.5673 264.088 67.4218 265.942 67.4218 268.23Z" stroke="black" stroke-miterlimit="10"/>
<path d="M81.7707 284.179C83.068 284.179 84.1196 283.128 84.1196 281.831C84.1196 280.534 83.068 279.483 81.7707 279.483C80.4735 279.483 79.4219 280.534 79.4219 281.831C79.4219 283.128 80.4735 284.179 81.7707 284.179Z" stroke="black" stroke-miterlimit="10"/>
<path d="M106.227 268.71C107.524 268.71 108.576 269.762 108.576 271.058C108.576 272.355 107.524 273.406 106.227 273.406C104.93 273.406 103.878 272.355 103.878 271.058C103.878 269.762 104.93 268.71 106.227 268.71Z" stroke="black" stroke-miterlimit="10"/>
<path d="M137.884 279.676C139.181 279.676 140.232 280.727 140.232 282.024C140.232 283.32 139.181 284.372 137.884 284.372C136.586 284.372 135.535 283.32 135.535 282.024C135.535 280.727 136.586 279.676 137.884 279.676Z" stroke="black" stroke-miterlimit="10"/>
<path d="M158.157 264.603C160.099 264.603 161.67 266.177 161.67 268.114C161.67 270.052 160.096 271.626 158.157 271.626C156.219 271.626 154.645 270.052 154.645 268.114C154.645 266.177 156.219 264.603 158.157 264.603Z" stroke="black" stroke-miterlimit="10"/>
<path d="M106.227 291.577C108.014 291.577 109.463 290.128 109.463 288.342C109.463 286.556 108.014 285.107 106.227 285.107C104.44 285.107 102.991 286.556 102.991 288.342C102.991 290.128 104.44 291.577 106.227 291.577Z" stroke="black" stroke-miterlimit="10"/>
<path d="M121.224 264.603C122.195 264.603 122.981 265.388 122.981 266.359C122.981 267.329 122.195 268.114 121.224 268.114C120.253 268.114 119.468 267.329 119.468 266.359C119.468 265.388 120.253 264.603 121.224 264.603Z" stroke="black" stroke-miterlimit="10"/>
<path d="M126.49 273.406C127.461 273.406 128.246 274.191 128.246 275.162C128.246 276.133 127.461 276.918 126.49 276.918C125.519 276.918 124.733 276.133 124.733 275.162C124.733 274.191 125.519 273.406 126.49 273.406Z" stroke="black" stroke-miterlimit="10"/>
<path d="M245.309 244.817C245.369 244.971 245.397 245.125 245.397 245.283C245.397 250.329 214.105 254.419 175.503 254.419C136.902 254.419 105.61 250.329 105.61 245.283C105.61 245.132 105.638 244.985 105.694 244.834C103.909 249.663 102.97 254.752 102.97 260.079C102.97 290.946 122.43 315.971 175.521 315.971C228.612 315.971 248.072 290.946 248.072 260.079C248.072 254.787 247.104 249.667 245.313 244.817H245.309Z" fill="#FAF6EA" stroke="black" stroke-miterlimit="10"/>
<path d="M245.309 244.817C245.309 244.817 245.309 244.81 245.306 244.806C244.675 243.198 240.854 241.698 234.655 240.412C222.277 237.847 200.415 236.144 175.503 236.144C150.591 236.144 128.761 237.843 116.379 240.405C110.181 241.688 106.353 243.184 105.708 244.792C105.704 244.806 105.697 244.817 105.694 244.831C105.637 244.978 105.609 245.129 105.609 245.28C105.609 250.326 136.902 254.416 175.503 254.416C214.105 254.416 245.397 250.326 245.397 245.28C245.397 245.125 245.365 244.968 245.309 244.814V244.817Z" fill="#FAF6EA" stroke="black" stroke-miterlimit="10"/>
<path d="M175.528 263.061C137.364 263.061 106.409 265.886 106.233 269.376C106.233 269.397 106.233 269.418 106.233 269.439C106.433 272.93 137.378 275.751 175.528 275.751C213.677 275.751 244.622 272.93 244.822 269.439C244.822 269.418 244.822 269.397 244.822 269.376C244.647 265.886 213.695 263.061 175.528 263.061Z" fill="url(#paint6_linear_107_3)" stroke="black" stroke-miterlimit="10"/>
<path d="M244.805 269.513C244.177 272.968 213.4 275.751 175.517 275.751C137.635 275.751 106.931 272.975 106.23 269.527H106.223C110.588 294.103 130.637 312.575 175.514 312.575C220.391 312.575 240.321 293.914 244.819 269.516H244.805V269.513Z" fill="url(#paint7_linear_107_3)" stroke="black" stroke-miterlimit="10"/>
<path d="M227.77 413.699C227.77 421.069 204.457 424.608 175.7 424.608C146.942 424.608 123.629 421.072 123.629 413.699C123.629 406.326 146.942 396.941 175.7 396.941C204.457 396.941 227.77 406.329 227.77 413.699Z" fill="#FAF6EA" stroke="black" stroke-miterlimit="10"/>
<path d="M105.69 244.831C105.69 244.831 105.701 244.807 105.704 244.792C105.701 244.807 105.693 244.817 105.69 244.831Z" fill="white" stroke="black" stroke-linecap="round" stroke-linejoin="round"/>
<path d="M245.306 244.807C245.306 244.807 245.306 244.814 245.31 244.818C245.31 244.818 245.31 244.81 245.306 244.807Z" fill="white" stroke="black" stroke-linecap="round" stroke-linejoin="round"/>
<path d="M177.807 393.748V319.027C177.807 317.341 180.075 315.841 181.964 315.841C179.871 315.922 177.729 315.971 175.521 315.971C173.438 315.971 171.416 315.929 169.435 315.852C171.321 315.852 173.593 317.355 173.593 319.041V393.752C173.593 398.777 162.122 398.283 162.111 407.314C162.111 409.094 168.194 411.022 175.7 411.022C183.205 411.022 189.288 409.091 189.288 407.314C189.277 398.283 177.807 398.774 177.807 393.752V393.748Z" fill="#FAF6EA" stroke="black" stroke-miterlimit="10"/>
<path d="M245.309 68.7295C245.369 68.8837 245.397 69.0379 245.397 69.1956C245.397 74.2419 214.105 78.3316 175.503 78.3316C136.902 78.3316 105.61 74.2419 105.61 69.1956C105.61 69.0449 105.638 68.8977 105.694 68.747C103.909 73.5761 102.97 78.6645 102.97 83.9913C102.97 114.858 122.43 139.883 175.521 139.883C228.612 139.883 248.072 114.858 248.072 83.9913C248.072 78.6996 247.104 73.5796 245.313 68.7295H245.309Z" fill="#FAF6EA" stroke="black" stroke-miterlimit="10"/>
<path d="M245.309 68.7296C245.309 68.7296 245.309 68.7226 245.306 68.7191C244.675 67.1106 240.854 65.6107 234.655 64.3245C222.277 61.7593 200.415 60.0562 175.503 60.0562C150.591 60.0562 128.761 61.7558 116.379 64.3175C110.181 65.6001 106.353 67.0965 105.708 68.7051C105.704 68.7191 105.697 68.7296 105.694 68.7436C105.637 68.8908 105.609 69.0415 105.609 69.1922C105.609 74.2386 136.902 78.3282 175.503 78.3282C214.105 78.3282 245.397 74.2386 245.397 69.1922C245.397 69.038 245.365 68.8803 245.309 68.7261V68.7296Z" fill="#FAF6EA" stroke="black" stroke-miterlimit="10"/>
<path d="M152.681 71.3368L111.825 56.6462C111.85 56.527 111.864 56.4009 111.864 56.2747C111.864 55.1989 110.987 54.3228 109.911 54.3228C108.835 54.3228 107.958 55.1989 107.958 56.2747C107.958 57.3506 108.835 58.2267 109.911 58.2267C110.504 58.2267 111.026 57.9569 111.384 57.5398L152.345 72.269C152.401 72.29 152.457 72.297 152.513 72.297C152.716 72.297 152.906 72.1709 152.979 71.9676C153.07 71.7083 152.937 71.4244 152.681 71.3333V71.3368ZM109.911 57.2174C109.392 57.2174 108.972 56.7969 108.972 56.2783C108.972 55.7596 109.392 55.339 109.911 55.339C110.43 55.339 110.851 55.7596 110.851 56.2783C110.851 56.7969 110.43 57.2174 109.911 57.2174Z" fill="#C4C4C4" stroke="black" stroke-linecap="round" stroke-linejoin="round"/>
<path d="M175.528 86.9736C137.364 86.9736 106.409 89.7982 106.233 93.2886C106.233 93.3097 106.233 93.3307 106.233 93.3517C106.433 96.8421 137.378 99.6632 175.528 99.6632C213.677 99.6632 244.622 96.8421 244.822 93.3517C244.822 93.3307 244.822 93.3097 244.822 93.2886C244.647 89.7982 213.695 86.9736 175.528 86.9736Z" fill="url(#paint8_linear_107_3)" stroke="black" stroke-miterlimit="10"/>
<path d="M244.805 93.4287C244.177 96.8841 213.4 99.6666 175.517 99.6666C137.635 99.6666 106.931 96.8911 106.23 93.4427H106.223C110.588 118.019 130.637 136.491 175.514 136.491C220.391 136.491 240.321 117.83 244.819 93.4322H244.805V93.4287Z" fill="url(#paint9_linear_107_3)" stroke="black" stroke-miterlimit="10"/>
<path d="M227.77 237.612C227.77 244.982 204.457 248.521 175.7 248.521C146.942 248.521 123.629 244.985 123.629 237.612C123.629 230.238 146.942 220.854 175.7 220.854C204.457 220.854 227.77 230.242 227.77 237.612Z" fill="#FAF6EA" stroke="black" stroke-miterlimit="10"/>
<path d="M105.69 68.7473C105.69 68.7473 105.701 68.7226 105.704 68.7085C105.701 68.7226 105.693 68.7332 105.69 68.7473Z" fill="white" stroke="black" stroke-linecap="round" stroke-linejoin="round"/>
<path d="M245.306 68.7192C245.306 68.7192 245.306 68.7268 245.31 68.7306C245.31 68.7306 245.31 68.723 245.306 68.7192Z" fill="white" stroke="black" stroke-linecap="round" stroke-linejoin="round"/>
<path d="M161.901 67.7766C161.901 77.116 154.325 84.689 144.983 84.689C135.64 84.689 128.064 77.116 128.064 67.7766C128.064 67.0407 128.117 66.3153 128.201 65.6039C128.835 60.3683 132.071 60.7818 134.048 58.3848C136.345 55.6023 135.885 52.3221 141.021 51.3304C142.304 51.0816 143.615 50.8643 144.979 50.8643C154.322 50.8643 161.898 58.4373 161.898 67.7766H161.901Z" fill="#B1262A" stroke="black" stroke-linecap="round" stroke-linejoin="round"/>
<path d="M200.426 88.5016L148.611 69.8721C148.583 69.8616 148.558 69.8581 148.53 69.8511C148.324 70.0648 148.176 70.3627 148.197 70.7692C148.222 70.7833 148.246 70.7973 148.274 70.8078L200.089 89.4373C200.145 89.4584 200.201 89.4654 200.257 89.4654C200.461 89.4654 200.65 89.3392 200.724 89.136C200.815 88.8766 200.682 88.5928 200.426 88.5016Z" fill="#C4C4C4" stroke="black" stroke-linecap="round" stroke-linejoin="round"/>
<path d="M148.443 71.6314C148.278 71.2984 148.208 71.0146 148.197 70.7693C148.176 70.3663 148.324 70.0684 148.53 69.8511C148.944 69.4236 149.586 69.3149 149.586 69.3149" stroke="black" stroke-linecap="round" stroke-linejoin="round"/>
<path d="M177.807 217.661V142.939C177.807 141.254 180.075 139.754 181.964 139.754C179.871 139.835 177.729 139.884 175.521 139.884C173.438 139.884 171.416 139.842 169.435 139.764C171.321 139.764 173.593 141.268 173.593 142.953V217.664C173.593 222.69 162.122 222.196 162.111 231.227C162.111 233.007 168.194 234.934 175.7 234.934C183.205 234.934 189.288 233.003 189.288 231.227C189.277 222.196 177.807 222.686 177.807 217.664V217.661Z" fill="#FAF6EA" stroke="black" stroke-miterlimit="10"/>
<path d="M138.757 38.1903C138.955 37.9391 138.678 37.3924 138.139 36.9692C137.6 36.546 137.003 36.4065 136.806 36.6576C136.608 36.9087 136.885 37.4554 137.424 37.8786C137.963 38.3019 138.56 38.4414 138.757 38.1903Z" fill="#385F25" stroke="black" stroke-linecap="round" stroke-linejoin="round"/>
<path d="M135.822 60.5116C135.853 60.4731 135.885 60.431 135.913 60.389C132.814 57.7046 131.208 54.6312 131.149 51.2459C131.058 46.2766 134.311 41.7454 136.32 39.4325C136.846 38.8087 138.153 38.644 138.746 38.1603L137.953 37.5366C137.946 37.47 137.925 37.4034 137.876 37.3508C137.799 37.2667 137.694 37.2387 137.589 37.2527L136.796 36.6289C136.327 37.0354 136.456 38.2655 136.053 38.7281C135.436 39.4219 134.672 40.3471 133.904 41.4615C132.309 43.7815 130.42 47.363 130.49 51.2564C130.553 54.8169 132.218 58.041 135.429 60.8411C135.573 60.7534 135.706 60.6483 135.825 60.5081L135.822 60.5116Z" fill="#538F37" stroke="black" stroke-linecap="round" stroke-linejoin="round"/>
<path d="M136.463 58.1494C136.463 58.1494 136.565 59.4916 135.913 60.3923C135.885 60.4343 135.853 60.4764 135.822 60.5149C135.706 60.6551 135.569 60.7602 135.426 60.8478C134.644 61.3174 133.599 61.0896 133.599 61.0896" stroke="black" stroke-linecap="round" stroke-linejoin="round"/>
<path d="M102.191 109.725C101.368 108.768 101.361 107.902 101.354 107.138C101.354 107.051 101.354 106.963 101.35 106.876C101.245 102.681 101.143 98.4825 101.038 94.2877C100.863 87.2403 100.691 80.1929 100.509 73.149C100.505 72.9843 100.523 72.802 100.544 72.6268C100.61 72.0135 100.617 71.6316 100.162 71.4809C100.113 71.4633 100.064 71.4563 100.014 71.4563C99.7164 71.4563 99.429 71.7717 99.152 72.0801C99.0469 72.1958 98.9452 72.3079 98.8435 72.406C97.0872 74.0636 95.3308 75.7247 93.5779 77.3858C92.2247 78.6684 90.8715 79.9476 89.5183 81.2267C88.8978 81.8119 88.1616 82.4778 87.2746 82.9789L86.5735 83.3714L87.0467 82.7231C89.5007 79.3553 92.3614 76.3906 95.3939 73.2541C96.7225 71.8769 98.0968 70.4541 99.4675 68.9647C85.2868 68.9542 73.4375 68.8525 61.3462 67.7732V67.4227C74.1877 66.4555 87.1168 66.2943 99.1976 66.2733L85.8162 52.0313L87.1554 52.9494C90.7102 55.392 93.7532 58.3252 96.975 61.4337C98.0793 62.499 99.2186 63.5994 100.386 64.6858L101.389 25.769H102.489L102.496 25.9408C103.131 41.2481 103.422 53.2754 103.443 64.8715C105.417 63.1298 107.247 61.3461 109.021 59.6149C111.562 57.1337 113.967 54.7928 116.649 52.6901L116.768 52.5955L117.378 53.1912L104.961 66.2908H107.086C121.129 66.2908 132.884 66.48 144.6 67.4052V67.7557C133.999 68.5757 122.591 68.9577 108.695 68.9577C107.454 68.9577 106.206 68.9576 104.958 68.9506C106.875 71.2776 108.947 73.3628 110.952 75.3848C113.168 77.6171 115.264 79.7268 117.14 82.1098L117.235 82.2324L116.604 82.8668L103.468 70.5242C103.419 83.1296 103.103 95.9243 102.504 109.623L102.482 110.065L102.195 109.728L102.191 109.725Z" fill="#FAF6EA"/>
<path d="M101.553 25.9443C101.806 25.9443 102.062 25.9443 102.314 25.9443C102.85 38.8651 103.243 51.7895 103.261 65.2535C108.151 60.9851 112.078 56.4854 116.747 52.8268C116.873 52.9495 117 53.0721 117.126 53.1947C113.056 57.4877 108.985 61.7841 104.547 66.4625C105.399 66.4625 106.251 66.4625 107.099 66.4625C119.892 66.4625 132.25 66.6027 144.583 67.5769C132.758 68.4916 120.915 68.7789 108.677 68.7789C107.317 68.7789 105.953 68.779 104.582 68.7685C108.624 73.7448 113.315 77.5401 116.996 82.2115C116.863 82.3446 116.73 82.4813 116.593 82.6145C112.277 78.5598 107.962 74.5052 103.285 70.1106C103.243 83.417 102.903 96.3273 102.321 109.606C101.448 108.589 101.539 107.703 101.518 106.865C101.234 95.6229 100.971 84.3807 100.677 73.1385C100.659 72.5007 101.034 71.5825 100.207 71.3057C100.137 71.2811 100.07 71.2706 100.007 71.2706C99.5025 71.2706 99.1063 71.8979 98.7137 72.2659C95.6006 75.2026 92.498 78.1498 89.3884 81.0865C88.7118 81.7243 88.0142 82.3411 87.1798 82.8107C90.7837 77.8624 95.3061 73.7552 99.853 68.7754C86.6399 68.7684 73.9772 68.7124 61.3496 67.584C73.9211 66.6343 86.5137 66.4555 99.5901 66.4345C95.1518 61.7105 91.0992 57.3966 87.0466 53.0826C91.9336 56.4364 95.9196 60.7994 100.54 65.0643C100.884 51.7124 101.217 38.8231 101.55 25.9303M101.213 25.5903L101.206 25.9338L100.218 64.2898C99.1484 63.291 98.1072 62.2853 97.094 61.3075C93.8687 58.1921 90.8188 55.2518 87.2499 52.8023L84.5715 50.9624L86.7977 53.3314L87.7618 54.3582L98.7908 66.0946C86.8222 66.1191 74.0368 66.2838 61.332 67.244V67.9414C73.3111 69.0103 85.0518 69.1189 99.0642 69.1329C97.7847 70.5171 96.5086 71.8383 95.264 73.1244C92.2281 76.2644 89.3639 79.2327 86.9029 82.611L85.9563 83.9111L87.3586 83.1226C88.2631 82.6145 89.0098 81.9381 89.6338 81.3459C90.98 80.0738 92.3262 78.7981 93.6724 77.526C95.4323 75.8579 97.1957 74.1898 98.9591 72.5252C99.0678 72.4236 99.1764 72.3044 99.2781 72.1888C99.5165 71.9225 99.7899 71.6245 100.011 71.6245C100.039 71.6245 100.07 71.6281 100.102 71.6386C100.41 71.7402 100.438 71.947 100.365 72.6023C100.344 72.7845 100.323 72.9703 100.33 73.149C100.516 80.2244 100.691 87.419 100.863 94.3753C100.964 98.5421 101.066 102.709 101.171 106.876C101.171 106.963 101.171 107.051 101.175 107.138C101.182 107.93 101.192 108.831 102.058 109.837L102.637 110.51L102.675 109.627C103.271 96.0645 103.583 83.3924 103.636 70.9237L110.703 77.5646L116.355 82.8738L116.603 83.1086L116.845 82.8668L117.248 82.4638L117.466 82.243L117.273 81.9977C115.39 79.6077 113.294 77.4945 111.075 75.2586C109.154 73.3242 107.177 71.3302 105.329 69.1259C106.451 69.1294 107.566 69.1329 108.68 69.1329C122.591 69.1329 134.009 68.7509 144.614 67.9309V67.2335C132.895 66.3083 121.143 66.1191 107.103 66.1191C106.524 66.1191 105.946 66.1191 105.368 66.1191L108.372 62.9511L117.385 53.4435L117.624 53.1947L117.378 52.953L117 52.585L116.779 52.3712L116.537 52.5605C113.848 54.6666 111.443 57.0146 108.894 59.4957C107.212 61.1393 105.476 62.8319 103.615 64.486C103.587 52.995 103.296 41.0659 102.668 25.9373L102.654 25.6044H102.318H101.935H101.557H101.213V25.5903Z" fill="black"/>
<path d="M312.213 261.841C311.592 261.119 311.585 260.471 311.578 259.896V259.7C311.498 256.598 311.421 253.497 311.344 250.396C311.214 245.167 311.088 239.942 310.951 234.713C310.951 234.587 310.961 234.45 310.975 234.321C311.028 233.841 311.021 233.616 310.723 233.518C310.691 233.508 310.66 233.504 310.628 233.504C310.429 233.504 310.222 233.732 310.022 233.949C309.945 234.037 309.868 234.121 309.79 234.191C308.479 235.425 307.175 236.665 305.868 237.902C304.872 238.845 303.88 239.784 302.884 240.727C302.421 241.161 301.875 241.659 301.215 242.03L300.514 242.426L300.988 241.775C302.807 239.276 304.928 237.079 307.175 234.755C308.139 233.76 309.131 232.733 310.12 231.657C299.655 231.65 290.909 231.57 281.979 230.774V230.424C291.459 229.709 300.998 229.59 309.917 229.572L299.789 218.793L301.128 219.711C303.764 221.523 306.022 223.699 308.409 226.005C309.202 226.772 310.022 227.561 310.86 228.342L311.603 199.571H312.504L312.511 199.743C312.977 211.03 313.195 219.918 313.212 228.482C314.646 227.214 315.978 225.917 317.268 224.656C319.154 222.816 320.932 221.081 322.919 219.525L323.039 219.43L323.55 219.932L314.393 229.59H315.841C326.257 229.59 334.976 229.73 343.656 230.417V230.767C335.803 231.373 327.347 231.657 317.044 231.657C316.16 231.657 315.27 231.657 314.379 231.65C315.782 233.343 317.293 234.864 318.755 236.339C320.399 237.993 321.948 239.56 323.34 241.323L323.435 241.445L322.909 241.974L313.223 232.873C313.188 242.178 312.953 251.622 312.511 261.736L312.49 262.177L312.202 261.841H312.213Z" fill="#FAF6EA"/>
<path d="M311.775 199.75C311.964 199.75 312.15 199.75 312.339 199.75C312.735 209.321 313.026 218.895 313.04 228.868C316.662 225.707 319.571 222.371 323.032 219.662C323.126 219.753 323.217 219.844 323.312 219.935C320.297 223.117 317.282 226.296 313.994 229.765C314.625 229.765 315.256 229.765 315.883 229.765C325.359 229.765 334.513 229.87 343.649 230.592C334.888 231.269 326.117 231.483 317.051 231.483C316.041 231.483 315.032 231.483 314.015 231.476C317.009 235.162 320.483 237.973 323.21 241.435C323.112 241.533 323.011 241.635 322.912 241.733C319.715 238.73 316.518 235.726 313.054 232.471C313.023 242.329 312.77 251.892 312.339 261.729C311.691 260.976 311.761 260.317 311.747 259.7C311.536 251.374 311.34 243.044 311.123 234.717C311.109 234.244 311.386 233.564 310.776 233.361C310.723 233.343 310.674 233.336 310.628 233.336C310.257 233.336 309.962 233.799 309.671 234.072C307.365 236.249 305.068 238.432 302.761 240.608C302.26 241.081 301.745 241.537 301.124 241.887C303.796 238.222 307.144 235.18 310.513 231.49C300.725 231.483 291.343 231.44 281.99 230.606C291.305 229.902 300.63 229.769 310.316 229.755C307.028 226.257 304.027 223.061 301.023 219.865C304.644 222.35 307.596 225.581 311.021 228.742C311.277 218.853 311.522 209.303 311.768 199.753M311.435 199.4L311.428 199.743L311.01 215.951L310.702 227.954C309.962 227.26 309.24 226.562 308.539 225.886C306.145 223.577 303.887 221.393 301.236 219.574L298.558 217.735L300.784 220.104L305.615 225.245L309.524 229.404C300.718 229.422 291.315 229.552 281.979 230.256V230.953C290.796 231.738 299.438 231.826 309.731 231.836C308.833 232.804 307.932 233.736 307.059 234.64C304.809 236.97 302.684 239.171 300.858 241.677L299.911 242.977L301.314 242.189C301.994 241.807 302.551 241.302 303.017 240.86C304.024 239.911 305.026 238.961 306.029 238.011C307.326 236.781 308.627 235.551 309.927 234.325C310.011 234.248 310.092 234.156 310.169 234.072C310.316 233.908 310.52 233.683 310.646 233.683C310.656 233.683 310.67 233.683 310.684 233.69C310.832 233.739 310.874 233.799 310.818 234.307C310.804 234.444 310.786 234.587 310.79 234.724C310.926 239.953 311.056 245.269 311.182 250.406C311.259 253.508 311.336 256.606 311.414 259.707C311.414 259.77 311.414 259.837 311.414 259.9C311.421 260.475 311.428 261.186 312.09 261.957L312.669 262.63L312.707 261.747C313.145 251.773 313.377 242.451 313.419 233.28L322.688 241.989L322.937 242.224L323.179 241.982L323.33 241.831L323.477 241.68L323.694 241.46L323.501 241.214C322.103 239.441 320.55 237.875 318.902 236.214C317.524 234.826 316.108 233.396 314.779 231.826C315.543 231.826 316.304 231.829 317.065 231.829C327.372 231.829 335.831 231.546 343.691 230.939V230.242C335.004 229.555 326.299 229.415 315.897 229.415C315.54 229.415 315.182 229.415 314.821 229.415L323.579 220.177L323.817 219.925L323.568 219.683L323.456 219.574L323.288 219.41L323.067 219.196L322.825 219.385C320.83 220.948 319.046 222.69 317.156 224.53C315.954 225.7 314.72 226.906 313.398 228.09C313.377 219.641 313.159 210.852 312.697 199.732L312.683 199.396H312.346H312.066H311.785H311.442L311.435 199.4Z" fill="black"/>
<path d="M125.494 110.923C127.783 110.923 129.638 109.069 129.638 106.781C129.638 104.493 127.783 102.639 125.494 102.639C123.206 102.639 121.351 104.493 121.351 106.781C121.351 109.069 123.206 110.923 125.494 110.923Z" stroke="black" stroke-miterlimit="10"/>
<path d="M143.987 122.73C145.284 122.73 146.336 121.678 146.336 120.382C146.336 119.085 145.284 118.034 143.987 118.034C142.69 118.034 141.638 119.085 141.638 120.382C141.638 121.678 142.69 122.73 143.987 122.73Z" stroke="black" stroke-miterlimit="10"/>
<path d="M168.443 107.261C169.74 107.261 170.792 108.313 170.792 109.609C170.792 110.906 169.74 111.957 168.443 111.957C167.146 111.957 166.094 110.906 166.094 109.609C166.094 108.313 167.146 107.261 168.443 107.261Z" stroke="black" stroke-miterlimit="10"/>
<path d="M200.1 118.227C201.397 118.227 202.449 119.278 202.449 120.575C202.449 121.871 201.397 122.922 200.1 122.922C198.803 122.922 197.751 121.871 197.751 120.575C197.751 119.278 198.803 118.227 200.1 118.227Z" stroke="black" stroke-miterlimit="10"/>
<path d="M220.377 103.154C222.319 103.154 223.89 104.727 223.89 106.665C223.89 108.603 222.316 110.177 220.377 110.177C218.438 110.177 216.864 108.603 216.864 106.665C216.864 104.727 218.438 103.154 220.377 103.154Z" stroke="black" stroke-miterlimit="10"/>
<path d="M168.443 130.127C170.23 130.127 171.679 128.679 171.679 126.893C171.679 125.106 170.23 123.658 168.443 123.658C166.656 123.658 165.208 125.106 165.208 126.893C165.208 128.679 166.656 130.127 168.443 130.127Z" stroke="black" stroke-miterlimit="10"/>
<path d="M183.44 103.154C184.412 103.154 185.197 103.939 185.197 104.91C185.197 105.88 184.412 106.665 183.44 106.665C182.469 106.665 181.684 105.88 181.684 104.91C181.684 103.939 182.469 103.154 183.44 103.154Z" stroke="black" stroke-miterlimit="10"/>
<path d="M188.71 111.957C189.681 111.957 190.466 112.742 190.466 113.713C190.466 114.683 189.681 115.468 188.71 115.468C187.739 115.468 186.954 114.683 186.954 113.713C186.954 112.742 187.739 111.957 188.71 111.957Z" stroke="black" stroke-miterlimit="10"/>
<path d="M222.652 287.837C224.941 287.837 226.796 285.983 226.796 283.695C226.796 281.407 224.941 279.553 222.652 279.553C220.364 279.553 218.508 281.407 218.508 283.695C218.508 285.983 220.364 287.837 222.652 287.837Z" stroke="black" stroke-miterlimit="10"/>
<path d="M204.159 299.644C205.457 299.644 206.508 298.592 206.508 297.296C206.508 295.999 205.457 294.948 204.159 294.948C202.862 294.948 201.811 295.999 201.811 297.296C201.811 298.592 202.862 299.644 204.159 299.644Z" stroke="black" stroke-miterlimit="10"/>
<path d="M179.703 284.171C178.406 284.171 177.354 285.223 177.354 286.519C177.354 287.816 178.406 288.867 179.703 288.867C181 288.867 182.052 287.816 182.052 286.519C182.052 285.223 181 284.171 179.703 284.171Z" stroke="black" stroke-miterlimit="10"/>
<path d="M148.047 295.137C146.749 295.137 145.698 296.188 145.698 297.485C145.698 298.781 146.749 299.833 148.047 299.833C149.344 299.833 150.395 298.781 150.395 297.485C150.395 296.188 149.344 295.137 148.047 295.137Z" stroke="black" stroke-miterlimit="10"/>
<path d="M127.77 280.068C125.827 280.068 124.257 281.641 124.257 283.579C124.257 285.521 125.831 287.091 127.77 287.091C129.708 287.091 131.282 285.517 131.282 283.579C131.282 281.641 129.708 280.068 127.77 280.068Z" stroke="black" stroke-miterlimit="10"/>
<path d="M179.704 307.038C181.491 307.038 182.939 305.59 182.939 303.803C182.939 302.017 181.491 300.569 179.704 300.569C177.916 300.569 176.468 302.017 176.468 303.803C176.468 305.59 177.916 307.038 179.704 307.038Z" stroke="black" stroke-miterlimit="10"/>
<path d="M164.706 280.068C163.735 280.068 162.95 280.853 162.95 281.824C162.95 282.794 163.735 283.579 164.706 283.579C165.677 283.579 166.462 282.794 166.462 281.824C166.462 280.853 165.677 280.068 164.706 280.068Z" stroke="black" stroke-miterlimit="10"/>
<path d="M159.437 288.871C158.466 288.871 157.681 289.656 157.681 290.627C157.681 291.598 158.466 292.383 159.437 292.383C160.408 292.383 161.193 291.598 161.193 290.627C161.193 289.656 160.408 288.871 159.437 288.871Z" stroke="black" stroke-miterlimit="10"/>
<path d="M36.0207 405.986L-15.7029 392.553C-15.6889 392.403 -15.6854 392.248 -15.6994 392.094C-15.8186 390.773 -16.993 389.799 -18.3111 389.918C-19.6293 390.037 -20.6074 391.211 -20.4882 392.532C-20.369 393.854 -19.1946 394.828 -17.8729 394.709C-17.1472 394.642 -16.5372 394.253 -16.1446 393.703L35.7122 407.17C35.7823 407.188 35.8524 407.195 35.9226 407.188C36.1715 407.167 36.3923 406.988 36.4589 406.732C36.5431 406.406 36.3467 406.073 36.0207 405.986ZM-17.9851 393.465C-18.6197 393.524 -19.1841 393.054 -19.2437 392.417C-19.3033 391.779 -18.8335 391.218 -18.1955 391.159C-17.5609 391.099 -16.9965 391.569 -16.9369 392.206C-16.8773 392.844 -17.3471 393.405 -17.9851 393.465Z" fill="#C4C4C4" stroke="black" stroke-linecap="round" stroke-linejoin="round"/>
<path d="M30.005 405.67C23.9752 414.982 11.5368 417.642 2.2221 411.61C-7.09263 405.583 -9.75348 393.149 -3.72012 383.838C-3.24334 383.105 -2.72449 382.415 -2.17759 381.76C1.83647 376.952 4.79531 379.45 8.31156 378.336C12.3992 377.043 14.0575 373.479 19.8139 375.802C21.2512 376.384 22.7026 377.011 24.0628 377.894C33.3776 383.922 36.0384 396.356 30.005 405.667V405.67Z" fill="#B1262A" stroke="black" stroke-miterlimit="10"/>
<path d="M49.5494 400.063C44.3013 417.803 25.6578 427.931 7.91179 422.681C0.57078 420.512 -5.4661 416.047 -9.64844 410.307C-9.16114 409.932 -8.6458 409.536 -8.10942 409.122C-4.16547 414.551 1.53135 418.77 8.46219 420.82C25.181 425.765 42.7412 416.222 47.6843 399.513C50.8605 388.776 48.0559 377.688 41.2092 369.824C41.6755 369.333 42.1207 368.856 42.5449 368.401C49.907 376.759 52.9429 388.597 49.5494 400.067V400.063Z" fill="#95B558" stroke="black" stroke-linecap="round" stroke-linejoin="round"/>
<path d="M21.1845 387.991C21.2406 388.215 21.3213 388.387 21.3703 388.488C21.5526 388.86 22.7516 389.778 25.7525 389.333C28.7534 388.888 34.8499 387.034 36.8201 386.796C38.7868 386.557 43.8701 386.228 44.5468 385.436C45.2269 384.644 45.1918 382.748 44.8307 380.845C44.2242 377.624 41.9069 376.524 41.3285 375.585C40.75 374.646 40.3434 372.809 39.4284 372.087C39.3513 372.028 39.2741 371.968 39.1935 371.912C39.8981 371.194 40.5747 370.496 41.2093 369.827C48.056 377.691 50.8641 388.779 47.6844 399.517C42.7378 416.229 25.1776 425.768 8.46224 420.824C1.5314 418.774 -4.16893 414.554 -8.10938 409.126C-0.554519 403.322 11.7436 394.029 17.4159 390.566C18.5833 389.855 19.8524 388.979 21.1845 387.994V387.991Z" fill="#E4EFBF" stroke="black" stroke-linecap="round" stroke-linejoin="round"/>
<path d="M41.3285 375.582C41.907 376.521 44.2243 377.621 44.8307 380.842C45.1918 382.745 45.2269 384.641 44.5468 385.433C43.8667 386.225 38.7869 386.554 36.8201 386.792C34.8534 387.03 28.7534 388.888 25.7525 389.329C22.7516 389.774 21.5562 388.856 21.3704 388.485C21.3213 388.383 21.2407 388.215 21.1846 387.987C26.9725 383.701 33.963 377.225 39.1935 371.902C39.2706 371.958 39.3513 372.018 39.4284 372.077C40.3434 372.799 40.7501 374.635 41.3285 375.574V375.582Z" fill="#BCD06A" stroke="black" stroke-linecap="round" stroke-linejoin="round"/>
<path d="M-2.74553 411.519C-0.761282 414.127 1.80141 414.078 2.74095 414.656C3.68049 415.238 4.86543 416.699 6.0083 416.934C7.15117 417.172 8.20989 417.179 9.33173 414.582C10.4536 411.986 14.3379 400.004 15.316 397.666C16.2941 395.329 15.1442 394.435 14.8147 394.183C14.4852 393.931 13.0022 393.647 10.5167 395.389C8.0311 397.127 3.41055 401.514 1.75584 402.611C0.104639 403.705 -4.29155 406.273 -4.54396 407.286C-4.79638 408.299 -3.91644 409.977 -2.74202 411.519H-2.74553Z" fill="#BCD06A" stroke="black" stroke-linecap="round" stroke-linejoin="round"/>
<path d="M33.6861 413.636C36.5468 412.035 38.8115 408.411 39.5196 407.56C40.2278 406.708 41.8369 405.741 42.2331 404.644C42.6257 403.547 42.51 403.379 40.0946 401.907C37.6791 400.435 26.5309 395.098 24.1575 394.204C22.1662 393.454 21.7701 393.724 21.4791 394.015C21.1846 394.306 20.6202 395.371 21.998 398.073C23.3757 400.775 24.7219 406.305 25.5773 408.092C26.4327 409.88 28.3644 414.59 29.332 414.979C30.2995 415.368 31.9998 414.575 33.6896 413.629L33.6861 413.636Z" fill="#BCD06A" stroke="black" stroke-linecap="round" stroke-linejoin="round"/>
<path d="M16.5181 419.019C18.1273 419.117 19.7574 419.457 22.1624 419.002C24.5638 418.546 27.7435 416.527 27.9188 415.939C28.0941 415.35 22.2956 401.465 21.5103 399.265C20.725 397.06 20.5007 394.492 18.4428 394.499C16.3884 394.506 16.3464 397.285 15.3472 400.235C14.3516 403.183 10.8389 413.847 10.1202 415.357C9.398 416.867 9.54524 418.038 11.9397 418.697C14.3341 419.355 15.2245 418.942 16.5181 419.019Z" fill="#BCD06A" stroke="black" stroke-linecap="round" stroke-linejoin="round"/>
<path d="M45.0867 387.251C44.0245 386.088 39.7931 387.262 36.9955 387.486C34.1944 387.71 26.6115 390.391 24.7359 390.573C22.8604 390.756 22.7026 391.057 22.4677 391.663C22.2328 392.27 23.0847 393.465 25.055 393.875C27.0217 394.285 31.5616 395.869 33.7316 396.906C35.9017 397.943 38.2225 400.028 40.7221 400.996C43.2217 401.963 44.2418 399.622 44.8799 397.61C45.5179 395.599 45.2234 393.433 45.7002 391.527C46.177 389.624 45.8895 388.131 45.0867 387.251Z" fill="#BCD06A" stroke="black" stroke-linecap="round" stroke-linejoin="round"/>
<path d="M30.8567 406.816C30.6183 406.427 30.4991 406.087 30.457 405.786C30.3869 405.292 30.5341 404.913 30.7655 404.626C31.2248 404.055 31.9995 403.848 31.9995 403.848" stroke="black" stroke-linecap="round" stroke-linejoin="round"/>
<path d="M96.463 421.678L30.8672 404.643C30.8321 404.636 30.8006 404.629 30.7655 404.629C30.5341 404.917 30.3869 405.299 30.457 405.789C30.4886 405.803 30.5236 405.817 30.5587 405.828L96.1545 422.863C96.2246 422.88 96.2947 422.887 96.3648 422.88C96.6137 422.859 96.8346 422.681 96.9012 422.425C96.9853 422.099 96.789 421.766 96.463 421.678Z" fill="#C4C4C4" stroke="black" stroke-linecap="round" stroke-linejoin="round"/>
<defs>
<linearGradient id="paint0_linear_107_3" x1="310.152" y1="103.592" x2="310.152" y2="367.311" gradientUnits="userSpaceOnUse">
<stop stop-color="#FFE2A3"/>
<stop offset="1" stop-color="#FFD279"/>
</linearGradient>
<linearGradient id="paint1_linear_107_3" x1="310.152" y1="-392.998" x2="310.152" y2="106.595" gradientUnits="userSpaceOnUse">
<stop stop-color="#FFE2A3"/>
<stop offset="1" stop-color="#FFD279"/>
</linearGradient>
<linearGradient id="paint2_linear_107_3" x1="240.282" y1="248.521" x2="240.282" y2="261.211" gradientUnits="userSpaceOnUse">
<stop stop-color="#FFE2A3"/>
<stop offset="1" stop-color="#FFD279"/>
</linearGradient>
<linearGradient id="paint3_linear_107_3" x1="240.279" y1="254.973" x2="240.279" y2="298.035" gradientUnits="userSpaceOnUse">
<stop stop-color="#FFE2A3"/>
<stop offset="1" stop-color="#FFD279"/>
</linearGradient>
<linearGradient id="paint4_linear_107_3" x1="110.77" y1="248.521" x2="110.77" y2="261.211" gradientUnits="userSpaceOnUse">
<stop stop-color="#FFE2A3"/>
<stop offset="1" stop-color="#FFD279"/>
</linearGradient>
<linearGradient id="paint5_linear_107_3" x1="110.767" y1="254.973" x2="110.767" y2="298.035" gradientUnits="userSpaceOnUse">
<stop stop-color="#FFE2A3"/>
<stop offset="1" stop-color="#FFD279"/>
</linearGradient>
<linearGradient id="paint6_linear_107_3" x1="175.528" y1="263.061" x2="175.528" y2="275.754" gradientUnits="userSpaceOnUse">
<stop stop-color="#FFE2A3"/>
<stop offset="1" stop-color="#FFD279"/>
</linearGradient>
<linearGradient id="paint7_linear_107_3" x1="175.524" y1="269.513" x2="175.524" y2="312.575" gradientUnits="userSpaceOnUse">
<stop stop-color="#FFE2A3"/>
<stop offset="1" stop-color="#FFD279"/>
</linearGradient>
<linearGradient id="paint8_linear_107_3" x1="175.528" y1="86.9736" x2="175.528" y2="99.6667" gradientUnits="userSpaceOnUse">
<stop stop-color="#FFE2A3"/>
<stop offset="1" stop-color="#FFD279"/>
</linearGradient>
<linearGradient id="paint9_linear_107_3" x1="175.524" y1="93.4287" x2="175.524" y2="136.488" gradientUnits="userSpaceOnUse">
<stop stop-color="#FFE2A3"/>
<stop offset="1" stop-color="#FFD279"/>
</linearGradient>
</defs>
</svg>
