<svg width="918" height="367" viewBox="0 0 918 367" fill="none" xmlns="http://www.w3.org/2000/svg">
<path d="M754.92 41.1401H255.35C165.565 41.1401 92.78 113.925 92.78 203.71C92.78 293.495 165.565 366.28 255.35 366.28H754.92C844.705 366.28 917.49 293.495 917.49 203.71C917.49 113.925 844.705 41.1401 754.92 41.1401Z" stroke="black" stroke-miterlimit="10"/>
<path d="M411.26 166.57C414.78 166.57 417.12 169.3 417.12 173.43C417.12 177.34 414.78 179.93 411.26 179.93C407.74 179.93 405.4 177.33 405.4 173.43C405.4 169.31 407.74 166.57 411.26 166.57ZM411.26 167.96C408.51 167.96 406.92 169.99 406.92 173.43C406.92 176.65 408.5 178.53 411.26 178.53C414.02 178.53 415.6 176.65 415.6 173.43C415.6 169.99 414 167.96 411.26 167.96Z" fill="black"/>
<path d="M423.07 178.6C424.61 178.6 425.78 177.45 425.78 175.83V169.78H427.24V179.78H425.78V178.16C425.06 179.33 423.81 180.02 422.64 180.02C420.53 180.02 419.01 178.59 419.01 176.02V169.79H420.49V175.73C420.49 177.76 421.51 178.62 423.07 178.62V178.6Z" fill="black"/>
<path d="M430.85 169.77V171.27C431.51 170.18 432.61 169.57 433.66 169.57H434.11V171.11H433.68C432.08 171.11 430.85 172.18 430.85 173.71V179.76H429.37V169.76H430.85V169.77Z" fill="black"/>
<path d="M441.06 169.77L443.19 177.969L445.69 169.77H447.37L449.79 177.969L452.04 169.77H453.64L450.57 179.77H448.97L446.53 171.51L444.03 179.77H442.39L439.46 169.77H441.06Z" fill="black"/>
<path d="M459.28 169.58C461.99 169.58 463.95 171.67 463.95 174.54V175.15H456.14C456.28 177.42 457.39 178.63 459.4 178.63C461.04 178.63 462.04 177.85 462.27 176.62H463.83C463.38 178.75 461.92 179.94 459.4 179.94C456.47 179.94 454.61 177.95 454.61 174.74C454.61 171.53 456.43 169.58 459.28 169.58ZM456.18 173.95H462.37C462.21 172.06 461 170.84 459.28 170.84C457.44 170.84 456.37 171.89 456.17 173.95H456.18Z" fill="black"/>
<path d="M467.35 165.77V171.63C468.05 170.32 469.26 169.539 470.79 169.539C473.43 169.539 475.18 171.61 475.18 174.74C475.18 177.87 473.42 179.969 470.79 179.969C469.27 179.969 468.06 179.189 467.35 177.859V179.77H465.87V165.77H467.35ZM470.51 170.909C468.5 170.909 467.35 172.32 467.35 174.74C467.35 177.16 468.5 178.609 470.51 178.609C472.52 178.609 473.65 177.18 473.65 174.74C473.65 172.3 472.5 170.909 470.51 170.909Z" fill="black"/>
<path d="M480.16 175.3C478.11 175.05 477 174.21 477 172.51C477 170.69 478.48 169.58 480.93 169.58C483.38 169.58 484.8 170.79 484.99 172.78H483.53C483.3 171.43 482.48 170.81 480.91 170.81C479.45 170.81 478.47 171.45 478.47 172.43C478.47 173.41 479.11 173.78 480.38 173.93L482.02 174.13C484.21 174.38 485.24 175.34 485.24 177.14C485.24 178.94 483.7 179.95 481.37 179.95C478.73 179.95 477.13 178.68 476.9 176.77H478.44C478.67 178.12 479.61 178.72 481.37 178.72C482.82 178.72 483.77 178.11 483.77 177.16C483.77 176.21 483.13 175.68 481.78 175.52L480.16 175.31V175.3Z" fill="black"/>
<path d="M488.76 166.729V168.37H487V166.729H488.76ZM488.62 169.77V179.77H487.14V169.77H488.62Z" fill="black"/>
<path d="M495.46 179.77H494.56C493.31 179.77 492.16 179.09 492.16 177.21V171.06H490.32V169.77H492.16V167.17H493.62V169.77H495.46V171.06H493.62V177.02C493.62 178.15 494.07 178.45 494.67 178.45H495.45V179.78L495.46 179.77Z" fill="black"/>
<path d="M501.37 169.58C504.08 169.58 506.04 171.67 506.04 174.54V175.15H498.23C498.37 177.42 499.48 178.63 501.49 178.63C503.13 178.63 504.13 177.85 504.36 176.62H505.92C505.47 178.75 504.01 179.94 501.49 179.94C498.56 179.94 496.7 177.95 496.7 174.74C496.7 171.53 498.52 169.58 501.37 169.58ZM498.27 173.95H504.46C504.3 172.06 503.09 170.84 501.37 170.84C499.53 170.84 498.46 171.89 498.26 173.95H498.27Z" fill="black"/>
<path d="M521.06 179.77H519.6V177.84C518.88 179.17 517.67 179.969 516.14 179.969C513.5 179.969 511.75 177.88 511.75 174.74C511.75 171.6 513.51 169.539 516.14 169.539C517.66 169.539 518.87 170.32 519.6 171.65V165.77H521.06V179.77ZM516.43 178.599C518.44 178.599 519.59 177.169 519.59 174.729C519.59 172.289 518.44 170.9 516.43 170.9C514.42 170.9 513.27 172.309 513.27 174.729C513.27 177.149 514.44 178.599 516.43 178.599Z" fill="black"/>
<path d="M527.64 169.58C530.35 169.58 532.31 171.67 532.31 174.54V175.15H524.5C524.64 177.42 525.75 178.63 527.76 178.63C529.4 178.63 530.4 177.85 530.63 176.62H532.19C531.74 178.75 530.28 179.94 527.76 179.94C524.83 179.94 522.97 177.95 522.97 174.74C522.97 171.53 524.79 169.58 527.64 169.58ZM524.54 173.95H530.73C530.57 172.06 529.36 170.84 527.64 170.84C525.8 170.84 524.73 171.89 524.53 173.95H524.54Z" fill="black"/>
<path d="M543.35 179.77H541.89V177.84C541.17 179.17 539.96 179.969 538.43 179.969C535.79 179.969 534.04 177.88 534.04 174.74C534.04 171.6 535.8 169.539 538.43 169.539C539.95 169.539 541.16 170.32 541.89 171.65V165.77H543.35V179.77ZM538.72 178.599C540.73 178.599 541.88 177.169 541.88 174.729C541.88 172.289 540.73 170.9 538.72 170.9C536.71 170.9 535.56 172.309 535.56 174.729C535.56 177.149 536.73 178.599 538.72 178.599Z" fill="black"/>
<path d="M547.08 166.729V168.37H545.32V166.729H547.08ZM546.94 169.77V179.77H545.46V169.77H546.94Z" fill="black"/>
<path d="M553.52 169.54C556.04 169.54 557.86 171.1 558.05 173.49H556.53C556.45 171.89 555.28 170.91 553.52 170.91C551.51 170.91 550.36 172.32 550.36 174.74C550.36 177.16 551.53 178.61 553.52 178.61C555.26 178.61 556.43 177.71 556.53 176.21H558.05C557.82 178.51 556.02 179.98 553.52 179.98C550.73 179.98 548.83 177.89 548.83 174.75C548.83 171.61 550.71 169.55 553.52 169.55V169.54Z" fill="black"/>
<path d="M568.09 179.77H566.61V177.99C565.87 179.2 564.58 179.98 563.06 179.98C561.13 179.98 559.76 178.75 559.76 176.99C559.76 175.37 560.81 174.37 562.63 174.26L565.44 174.05C566.3 174.01 566.61 173.72 566.61 173.05V173.01C566.61 171.76 565.52 170.8 564.09 170.8C562.43 170.8 561.53 171.5 561.38 172.93H559.84C559.98 170.88 561.64 169.55 564.08 169.55C566.52 169.55 568.1 171.07 568.1 173.12V179.76L568.09 179.77ZM563.48 178.7C565.28 178.7 566.6 177.33 566.6 175.5V175.19L563.12 175.42C561.87 175.52 561.24 176.03 561.24 176.96C561.24 178.01 562.1 178.7 563.47 178.7H563.48Z" fill="black"/>
<path d="M574.71 179.77H573.81C572.56 179.77 571.41 179.09 571.41 177.21V171.06H569.57V169.77H571.41V167.17H572.87V169.77H574.71V171.06H572.87V177.02C572.87 178.15 573.32 178.45 573.92 178.45H574.7V179.78L574.71 179.77Z" fill="black"/>
<path d="M580.63 169.58C583.34 169.58 585.3 171.67 585.3 174.54V175.15H577.49C577.63 177.42 578.74 178.63 580.75 178.63C582.39 178.63 583.39 177.85 583.62 176.62H585.18C584.73 178.75 583.27 179.94 580.75 179.94C577.82 179.94 575.96 177.95 575.96 174.74C575.96 171.53 577.78 169.58 580.63 169.58ZM577.53 173.95H583.72C583.56 172.06 582.35 170.84 580.63 170.84C578.79 170.84 577.72 171.89 577.52 173.95H577.53Z" fill="black"/>
<path d="M596.33 179.77H594.87V177.84C594.15 179.17 592.94 179.969 591.41 179.969C588.77 179.969 587.02 177.88 587.02 174.74C587.02 171.6 588.78 169.539 591.41 169.539C592.93 169.539 594.14 170.32 594.87 171.65V165.77H596.33V179.77ZM591.71 178.599C593.72 178.599 594.87 177.169 594.87 174.729C594.87 172.289 593.72 170.9 591.71 170.9C589.7 170.9 588.55 172.309 588.55 174.729C588.55 177.149 589.72 178.599 591.71 178.599Z" fill="black"/>
<path d="M607.17 179.77H606.27C605.02 179.77 603.87 179.09 603.87 177.21V171.06H602.03V169.77H603.87V167.17H605.33V169.77H607.17V171.06H605.33V177.02C605.33 178.15 605.78 178.45 606.38 178.45H607.16V179.78L607.17 179.77Z" fill="black"/>
<path d="M613.13 169.54C615.92 169.54 617.8 171.61 617.8 174.74C617.8 177.87 615.92 179.97 613.13 179.97C610.34 179.97 608.42 177.88 608.42 174.74C608.42 171.6 610.31 169.54 613.13 169.54ZM613.13 170.91C611.12 170.91 609.95 172.32 609.95 174.74C609.95 177.16 611.12 178.61 613.13 178.61C615.14 178.61 616.27 177.18 616.27 174.74C616.27 172.3 615.12 170.91 613.13 170.91Z" fill="black"/>
<path d="M628.44 179.77H627.54C626.29 179.77 625.14 179.09 625.14 177.21V171.06H623.3V169.77H625.14V167.17H626.6V169.77H628.44V171.06H626.6V177.02C626.6 178.15 627.05 178.45 627.65 178.45H628.43V179.78L628.44 179.77Z" fill="black"/>
<path d="M634.4 170.95C632.82 170.95 631.63 172.04 631.63 173.59V179.78H630.15V165.78H631.63V171.33C632.35 170.2 633.64 169.55 634.83 169.55C637 169.55 638.56 170.92 638.56 173.42V179.79H637.1V173.74C637.1 171.79 636.05 170.97 634.4 170.97V170.95Z" fill="black"/>
<path d="M645.12 169.58C647.83 169.58 649.79 171.67 649.79 174.54V175.15H641.98C642.12 177.42 643.23 178.63 645.24 178.63C646.88 178.63 647.88 177.85 648.11 176.62H649.67C649.22 178.75 647.76 179.94 645.24 179.94C642.31 179.94 640.45 177.95 640.45 174.74C640.45 171.53 642.27 169.58 645.12 169.58ZM642.02 173.95H648.21C648.05 172.06 646.84 170.84 645.12 170.84C643.28 170.84 642.21 171.89 642.01 173.95H642.02Z" fill="black"/>
<path d="M664.81 179.77H663.35V177.84C662.63 179.17 661.42 179.969 659.89 179.969C657.25 179.969 655.5 177.88 655.5 174.74C655.5 171.6 657.26 169.539 659.89 169.539C661.41 169.539 662.62 170.32 663.35 171.65V165.77H664.81V179.77ZM660.18 178.599C662.19 178.599 663.34 177.169 663.34 174.729C663.34 172.289 662.19 170.9 660.18 170.9C658.17 170.9 657.02 172.309 657.02 174.729C657.02 177.149 658.19 178.599 660.18 178.599Z" fill="black"/>
<path d="M671.39 169.58C674.1 169.58 676.06 171.67 676.06 174.54V175.15H668.25C668.39 177.42 669.5 178.63 671.51 178.63C673.15 178.63 674.15 177.85 674.38 176.62H675.94C675.49 178.75 674.03 179.94 671.51 179.94C668.58 179.94 666.72 177.95 666.72 174.74C666.72 171.53 668.54 169.58 671.39 169.58ZM668.29 173.95H674.48C674.32 172.06 673.11 170.84 671.39 170.84C669.55 170.84 668.48 171.89 668.28 173.95H668.29Z" fill="black"/>
<path d="M679.46 165.77V179.77H677.98V165.77H679.46Z" fill="black"/>
<path d="M683.17 166.729V168.37H681.41V166.729H683.17ZM683.03 169.77V179.77H681.55V169.77H683.03Z" fill="black"/>
<path d="M694.24 179.99C694.24 182.2 692.48 183.68 689.83 183.68C687.18 183.68 685.4 182.39 685.08 180.42H686.62C686.78 181.63 687.95 182.35 689.78 182.35C691.61 182.35 692.77 181.45 692.77 179.89V177.55C692.05 178.84 690.82 179.6 689.29 179.6C686.67 179.6 684.91 177.59 684.91 174.56C684.91 171.53 686.67 169.56 689.29 169.56C690.81 169.56 692.04 170.3 692.77 171.59V169.77H694.23V179.98L694.24 179.99ZM689.62 178.23C691.63 178.23 692.78 176.88 692.78 174.56C692.78 172.24 691.63 170.91 689.62 170.91C687.61 170.91 686.46 172.26 686.46 174.56C686.46 176.86 687.63 178.23 689.62 178.23Z" fill="black"/>
<path d="M700.61 170.95C699.03 170.95 697.84 172.04 697.84 173.59V179.78H696.36V165.78H697.84V171.33C698.56 170.2 699.85 169.55 701.04 169.55C703.21 169.55 704.77 170.92 704.77 173.42V179.79H703.31V173.74C703.31 171.79 702.26 170.97 700.61 170.97V170.95Z" fill="black"/>
<path d="M711.35 179.77H710.45C709.2 179.77 708.05 179.09 708.05 177.21V171.06H706.21V169.77H708.05V167.17H709.51V169.77H711.35V171.06H709.51V177.02C709.51 178.15 709.96 178.45 710.56 178.45H711.34V179.78L711.35 179.77Z" fill="black"/>
<path d="M712.66 169.77H714.24V168.32C714.24 166.44 715.53 165.76 716.9 165.76H717.8V167.05H717.02C716.26 167.05 715.71 167.32 715.71 168.44V169.77H717.8V171.06H715.71V179.77H714.25V171.06H712.67V169.77H712.66Z" fill="black"/>
<path d="M723.56 178.6C725.1 178.6 726.27 177.45 726.27 175.83V169.78H727.73V179.78H726.27V178.16C725.55 179.33 724.3 180.02 723.13 180.02C721.02 180.02 719.5 178.59 719.5 176.02V169.79H720.98V175.73C720.98 177.76 722 178.62 723.56 178.62V178.6Z" fill="black"/>
<path d="M731.33 165.77V179.77H729.85V165.77H731.33Z" fill="black"/>
<path d="M738.62 169.77L740.75 177.969L743.25 169.77H744.93L747.35 177.969L749.6 169.77H751.2L748.13 179.77H746.53L744.09 171.51L741.59 179.77H739.95L737.02 169.77H738.62Z" fill="black"/>
<path d="M756.88 169.54C759.67 169.54 761.55 171.61 761.55 174.74C761.55 177.87 759.67 179.97 756.88 179.97C754.09 179.97 752.17 177.88 752.17 174.74C752.17 171.6 754.06 169.54 756.88 169.54ZM756.88 170.91C754.87 170.91 753.7 172.32 753.7 174.74C753.7 177.16 754.87 178.61 756.88 178.61C758.89 178.61 760.02 177.18 760.02 174.74C760.02 172.3 758.87 170.91 756.88 170.91Z" fill="black"/>
<path d="M764.95 169.77V171.27C765.61 170.18 766.71 169.57 767.76 169.57H768.21V171.11H767.78C766.18 171.11 764.95 172.18 764.95 173.71V179.76H763.47V169.76H764.95V169.77Z" fill="black"/>
<path d="M771.45 165.77V179.77H769.97V165.77H771.45Z" fill="black"/>
<path d="M782.66 179.77H781.2V177.84C780.48 179.17 779.27 179.969 777.74 179.969C775.1 179.969 773.35 177.88 773.35 174.74C773.35 171.6 775.11 169.539 777.74 169.539C779.26 169.539 780.47 170.32 781.2 171.65V165.77H782.66V179.77ZM778.03 178.599C780.04 178.599 781.19 177.169 781.19 174.729C781.19 172.289 780.04 170.9 778.03 170.9C776.02 170.9 774.87 172.309 774.87 174.729C774.87 177.149 776.04 178.599 778.03 178.599Z" fill="black"/>
<path d="M793.27 169.54C796.06 169.54 797.94 171.61 797.94 174.74C797.94 177.87 796.06 179.97 793.27 179.97C790.48 179.97 788.56 177.88 788.56 174.74C788.56 171.6 790.45 169.54 793.27 169.54ZM793.27 170.91C791.26 170.91 790.09 172.32 790.09 174.74C790.09 177.16 791.26 178.61 793.27 178.61C795.28 178.61 796.41 177.18 796.41 174.74C796.41 172.3 795.26 170.91 793.27 170.91Z" fill="black"/>
<path d="M798.91 169.77H800.49V168.32C800.49 166.44 801.78 165.76 803.15 165.76H804.05V167.05H803.27C802.51 167.05 801.96 167.32 801.96 168.44V169.77H804.05V171.06H801.96V179.77H800.5V171.06H798.92V169.77H798.91Z" fill="black"/>
<path d="M410.08 193.54C412.6 193.54 414.42 195.1 414.61 197.49H413.09C413.01 195.89 411.84 194.91 410.08 194.91C408.07 194.91 406.92 196.32 406.92 198.74C406.92 201.16 408.09 202.61 410.08 202.61C411.82 202.61 412.99 201.71 413.09 200.21H414.61C414.38 202.51 412.58 203.98 410.08 203.98C407.29 203.98 405.39 201.89 405.39 198.75C405.39 195.61 407.27 193.55 410.08 193.55V193.54Z" fill="black"/>
<path d="M421.02 193.54C423.81 193.54 425.69 195.61 425.69 198.74C425.69 201.87 423.81 203.97 421.02 203.97C418.23 203.97 416.31 201.88 416.31 198.74C416.31 195.6 418.2 193.54 421.02 193.54ZM421.02 194.91C419.01 194.91 417.84 196.32 417.84 198.74C417.84 201.16 419.01 202.61 421.02 202.61C423.03 202.61 424.16 201.18 424.16 198.74C424.16 196.3 423.01 194.91 421.02 194.91Z" fill="black"/>
<path d="M432.1 193.54C434.62 193.54 436.44 195.1 436.63 197.49H435.11C435.03 195.89 433.86 194.91 432.1 194.91C430.09 194.91 428.94 196.32 428.94 198.74C428.94 201.16 430.11 202.61 432.1 202.61C433.84 202.61 435.01 201.71 435.11 200.21H436.63C436.4 202.51 434.6 203.98 432.1 203.98C429.31 203.98 427.41 201.89 427.41 198.75C427.41 195.61 429.29 193.55 432.1 193.55V193.54Z" fill="black"/>
<path d="M446.51 193.77L442.23 198.669L446.7 203.77H444.88L441.17 199.609L440 200.96V203.77H438.52V189.77H440V199.219L444.65 193.77H446.51Z" fill="black"/>
<path d="M453.11 203.77H452.21C450.96 203.77 449.81 203.09 449.81 201.21V195.06H447.97V193.77H449.81V191.17H451.27V193.77H453.11V195.06H451.27V201.02C451.27 202.15 451.72 202.45 452.32 202.45H453.1V203.78L453.11 203.77Z" fill="black"/>
<path d="M462.7 203.77H461.22V201.99C460.48 203.2 459.19 203.98 457.67 203.98C455.74 203.98 454.37 202.75 454.37 200.99C454.37 199.37 455.42 198.37 457.24 198.26L460.05 198.05C460.91 198.01 461.22 197.72 461.22 197.05V197.01C461.22 195.76 460.13 194.8 458.7 194.8C457.04 194.8 456.14 195.5 455.99 196.93H454.45C454.59 194.88 456.25 193.55 458.69 193.55C461.13 193.55 462.71 195.07 462.71 197.12V203.76L462.7 203.77ZM458.09 202.7C459.89 202.7 461.21 201.33 461.21 199.5V199.19L457.73 199.42C456.48 199.52 455.85 200.03 455.85 200.96C455.85 202.01 456.71 202.7 458.08 202.7H458.09Z" fill="black"/>
<path d="M466.45 190.729V192.37H464.69V190.729H466.45ZM466.31 193.77V203.77H464.83V193.77H466.31Z" fill="black"/>
<path d="M469.89 189.77V203.77H468.41V189.77H469.89Z" fill="black"/>
<path d="M475.04 199.3C472.99 199.05 471.88 198.21 471.88 196.51C471.88 194.69 473.36 193.58 475.81 193.58C478.26 193.58 479.68 194.79 479.87 196.78H478.41C478.18 195.43 477.36 194.81 475.79 194.81C474.33 194.81 473.35 195.45 473.35 196.43C473.35 197.41 473.99 197.78 475.26 197.93L476.9 198.13C479.09 198.38 480.12 199.34 480.12 201.14C480.12 202.94 478.58 203.95 476.25 203.95C473.61 203.95 472.01 202.68 471.78 200.77H473.32C473.55 202.12 474.49 202.72 476.25 202.72C477.7 202.72 478.65 202.11 478.65 201.16C478.65 200.21 478.01 199.68 476.66 199.52L475.04 199.31V199.3Z" fill="black"/>
<path d="M481.88 203.77V202.109H483.64V203.77H481.88ZM482.15 200.729L482.01 190.77H483.49L483.33 200.729H482.14H482.15Z" fill="black"/>
<path d="M498.37 192.169H491.07V196.43H497.81V197.84H491.07V202.39H498.37V203.78H489.58V190.77H498.37V192.18V192.169Z" fill="black"/>
<path d="M501.55 193.77L504.26 197.95L507.07 193.77H508.75L505.49 198.71L508.75 203.77H507.07L504.36 199.45L501.57 203.77H499.87L503.13 198.69L499.87 193.77H501.55Z" fill="black"/>
<path d="M511.94 193.77V195.63C512.64 194.32 513.85 193.54 515.38 193.54C518.02 193.54 519.77 195.61 519.77 198.74C519.77 201.87 518.01 203.97 515.38 203.97C513.86 203.97 512.65 203.19 511.94 201.86V207.04H510.46V193.78H511.94V193.77ZM515.1 194.91C513.09 194.91 511.94 196.32 511.94 198.74C511.94 201.16 513.09 202.61 515.1 202.61C517.11 202.61 518.24 201.18 518.24 198.74C518.24 196.3 517.09 194.91 515.1 194.91Z" fill="black"/>
<path d="M523.17 189.77V203.77H521.69V189.77H523.17Z" fill="black"/>
<path d="M529.77 193.54C532.56 193.54 534.44 195.61 534.44 198.74C534.44 201.87 532.56 203.97 529.77 203.97C526.98 203.97 525.06 201.88 525.06 198.74C525.06 195.6 526.95 193.54 529.77 193.54ZM529.77 194.91C527.76 194.91 526.59 196.32 526.59 198.74C526.59 201.16 527.76 202.61 529.77 202.61C531.78 202.61 532.91 201.18 532.91 198.74C532.91 196.3 531.76 194.91 529.77 194.91Z" fill="black"/>
<path d="M537.84 193.77V195.27C538.5 194.18 539.6 193.57 540.65 193.57H541.1V195.11H540.67C539.07 195.11 537.84 196.18 537.84 197.71V203.76H536.36V193.76H537.84V193.77Z" fill="black"/>
<path d="M546.96 193.58C549.67 193.58 551.63 195.67 551.63 198.54V199.15H543.82C543.96 201.42 545.07 202.63 547.08 202.63C548.72 202.63 549.72 201.85 549.95 200.62H551.51C551.06 202.75 549.6 203.94 547.08 203.94C544.15 203.94 542.29 201.95 542.29 198.74C542.29 195.53 544.11 193.58 546.96 193.58ZM543.85 197.95H550.04C549.88 196.06 548.67 194.84 546.95 194.84C545.11 194.84 544.04 195.89 543.84 197.95H543.85Z" fill="black"/>
<path d="M562.04 193.54C564.83 193.54 566.71 195.61 566.71 198.74C566.71 201.87 564.83 203.97 562.04 203.97C559.25 203.97 557.33 201.88 557.33 198.74C557.33 195.6 559.22 193.54 562.04 193.54ZM562.04 194.91C560.03 194.91 558.86 196.32 558.86 198.74C558.86 201.16 560.03 202.61 562.04 202.61C564.05 202.61 565.18 201.18 565.18 198.74C565.18 196.3 564.03 194.91 562.04 194.91Z" fill="black"/>
<path d="M572.68 202.6C574.22 202.6 575.39 201.45 575.39 199.83V193.78H576.85V203.78H575.39V202.16C574.67 203.33 573.42 204.02 572.25 204.02C570.14 204.02 568.62 202.59 568.62 200.02V193.79H570.1V199.73C570.1 201.76 571.12 202.62 572.68 202.62V202.6Z" fill="black"/>
<path d="M580.46 193.77V195.27C581.12 194.18 582.22 193.57 583.27 193.57H583.72V195.11H583.29C581.69 195.11 580.46 196.18 580.46 197.71V203.76H578.98V193.76H580.46V193.77Z" fill="black"/>
<path d="M593.52 194.95C592.06 194.95 590.94 196.04 590.94 197.59V203.78H589.46V193.78H590.94V195.26C591.64 194.17 592.83 193.54 593.95 193.54C595.45 193.54 596.66 194.3 597.17 195.71C597.81 194.34 599.2 193.54 600.49 193.54C602.5 193.54 603.99 194.91 603.99 197.41V203.78H602.53V197.73C602.53 195.78 601.57 194.96 600.07 194.96C598.57 194.96 597.47 196.05 597.47 197.6V203.79H596.01V197.74C596.01 195.79 595.05 194.97 593.53 194.97L593.52 194.95Z" fill="black"/>
<path d="M610.57 193.58C613.28 193.58 615.24 195.67 615.24 198.54V199.15H607.43C607.57 201.42 608.68 202.63 610.69 202.63C612.33 202.63 613.33 201.85 613.56 200.62H615.12C614.67 202.75 613.21 203.94 610.69 203.94C607.76 203.94 605.9 201.95 605.9 198.74C605.9 195.53 607.72 193.58 610.57 193.58ZM607.47 197.95H613.66C613.5 196.06 612.29 194.84 610.57 194.84C608.73 194.84 607.66 195.89 607.46 197.95H607.47Z" fill="black"/>
<path d="M621.35 203.77H620.45C619.2 203.77 618.05 203.09 618.05 201.21V195.06H616.21V193.77H618.05V191.17H619.51V193.77H621.35V195.06H619.51V201.02C619.51 202.15 619.96 202.45 620.56 202.45H621.34V203.78L621.35 203.77Z" fill="black"/>
<path d="M624.67 190.729V192.37H622.91V190.729H624.67ZM624.54 193.77V203.77H623.06V193.77H624.54Z" fill="black"/>
<path d="M631.12 193.54C633.64 193.54 635.46 195.1 635.65 197.49H634.13C634.05 195.89 632.88 194.91 631.12 194.91C629.11 194.91 627.96 196.32 627.96 198.74C627.96 201.16 629.13 202.61 631.12 202.61C632.86 202.61 634.03 201.71 634.13 200.21H635.65C635.42 202.51 633.62 203.98 631.12 203.98C628.33 203.98 626.43 201.89 626.43 198.75C626.43 195.61 628.31 193.55 631.12 193.55V193.54Z" fill="black"/>
<path d="M641.61 202.6C643.15 202.6 644.32 201.45 644.32 199.83V193.78H645.78V203.78H644.32V202.16C643.6 203.33 642.35 204.02 641.18 204.02C639.07 204.02 637.55 202.59 637.55 200.02V193.79H639.03V199.73C639.03 201.76 640.05 202.62 641.61 202.62V202.6Z" fill="black"/>
<path d="M649.38 189.77V203.77H647.9V189.77H649.38Z" fill="black"/>
<path d="M655.98 193.54C658.77 193.54 660.65 195.61 660.65 198.74C660.65 201.87 658.77 203.97 655.98 203.97C653.19 203.97 651.27 201.88 651.27 198.74C651.27 195.6 653.16 193.54 655.98 193.54ZM655.98 194.91C653.97 194.91 652.8 196.32 652.8 198.74C652.8 201.16 653.97 202.61 655.98 202.61C657.99 202.61 659.12 201.18 659.12 198.74C659.12 196.3 657.97 194.91 655.98 194.91Z" fill="black"/>
<path d="M666.63 202.6C668.17 202.6 669.34 201.45 669.34 199.83V193.78H670.8V203.78H669.34V202.16C668.62 203.33 667.37 204.02 666.2 204.02C664.09 204.02 662.57 202.59 662.57 200.02V193.79H664.05V199.73C664.05 201.76 665.07 202.62 666.63 202.62V202.6Z" fill="black"/>
<path d="M675.98 199.3C673.93 199.05 672.82 198.21 672.82 196.51C672.82 194.69 674.3 193.58 676.75 193.58C679.2 193.58 680.62 194.79 680.81 196.78H679.35C679.12 195.43 678.3 194.81 676.73 194.81C675.27 194.81 674.29 195.45 674.29 196.43C674.29 197.41 674.93 197.78 676.2 197.93L677.84 198.13C680.03 198.38 681.06 199.34 681.06 201.14C681.06 202.94 679.52 203.95 677.19 203.95C674.55 203.95 672.95 202.68 672.72 200.77H674.26C674.49 202.12 675.43 202.72 677.19 202.72C678.64 202.72 679.59 202.11 679.59 201.16C679.59 200.21 678.95 199.68 677.6 199.52L675.98 199.31V199.3Z" fill="black"/>
<path d="M684.44 189.77V203.77H682.96V189.77H684.44Z" fill="black"/>
<path d="M688.07 205.53C689.03 205.53 689.52 205.2 689.85 204.24L690.08 203.669L686.13 193.77H687.73L690.93 202.01L694.05 193.77H695.67L691.57 204.39C690.85 206.23 690.03 206.95 688.58 206.95H686.67V205.52H688.06L688.07 205.53Z" fill="black"/>
<path d="M705.88 193.54C708.4 193.54 710.22 195.1 710.41 197.49H708.89C708.81 195.89 707.64 194.91 705.88 194.91C703.87 194.91 702.72 196.32 702.72 198.74C702.72 201.16 703.89 202.61 705.88 202.61C707.62 202.61 708.79 201.71 708.89 200.21H710.41C710.18 202.51 708.38 203.98 705.88 203.98C703.09 203.98 701.19 201.89 701.19 198.75C701.19 195.61 703.07 193.55 705.88 193.55V193.54Z" fill="black"/>
<path d="M716.37 202.6C717.91 202.6 719.08 201.45 719.08 199.83V193.78H720.54V203.78H719.08V202.16C718.36 203.33 717.11 204.02 715.94 204.02C713.83 204.02 712.31 202.59 712.31 200.02V193.79H713.79V199.73C713.79 201.76 714.81 202.62 716.37 202.62V202.6Z" fill="black"/>
<path d="M724.15 193.77V195.27C724.81 194.18 725.91 193.57 726.96 193.57H727.41V195.11H726.98C725.38 195.11 724.15 196.18 724.15 197.71V203.76H722.67V193.76H724.15V193.77Z" fill="black"/>
<path d="M737.06 203.77H735.58V201.99C734.84 203.2 733.55 203.98 732.03 203.98C730.1 203.98 728.73 202.75 728.73 200.99C728.73 199.37 729.78 198.37 731.6 198.26L734.41 198.05C735.27 198.01 735.58 197.72 735.58 197.05V197.01C735.58 195.76 734.49 194.8 733.06 194.8C731.4 194.8 730.5 195.5 730.35 196.93H728.81C728.95 194.88 730.61 193.55 733.05 193.55C735.49 193.55 737.07 195.07 737.07 197.12V203.76L737.06 203.77ZM732.45 202.7C734.25 202.7 735.57 201.33 735.57 199.5V199.19L732.09 199.42C730.84 199.52 730.21 200.03 730.21 200.96C730.21 202.01 731.07 202.7 732.44 202.7H732.45Z" fill="black"/>
<path d="M743.68 203.77H742.78C741.53 203.77 740.38 203.09 740.38 201.21V195.06H738.54V193.77H740.38V191.17H741.84V193.77H743.68V195.06H741.84V201.02C741.84 202.15 742.29 202.45 742.89 202.45H743.67V203.78L743.68 203.77Z" fill="black"/>
<path d="M749.6 193.58C752.31 193.58 754.27 195.67 754.27 198.54V199.15H746.46C746.6 201.42 747.71 202.63 749.72 202.63C751.36 202.63 752.36 201.85 752.59 200.62H754.15C753.7 202.75 752.24 203.94 749.72 203.94C746.79 203.94 744.93 201.95 744.93 198.74C744.93 195.53 746.75 193.58 749.6 193.58ZM746.49 197.95H752.68C752.52 196.06 751.31 194.84 749.59 194.84C747.75 194.84 746.68 195.89 746.48 197.95H746.49Z" fill="black"/>
<path d="M765.3 203.77H763.84V201.84C763.12 203.17 761.91 203.969 760.38 203.969C757.74 203.969 755.99 201.88 755.99 198.74C755.99 195.6 757.75 193.539 760.38 193.539C761.9 193.539 763.11 194.32 763.84 195.65V189.77H765.3V203.77ZM760.67 202.599C762.68 202.599 763.83 201.169 763.83 198.729C763.83 196.289 762.68 194.9 760.67 194.9C758.66 194.9 757.51 196.309 757.51 198.729C757.51 201.149 758.68 202.599 760.67 202.599Z" fill="black"/>
<path d="M775.88 193.54C778.4 193.54 780.22 195.1 780.41 197.49H778.89C778.81 195.89 777.64 194.91 775.88 194.91C773.87 194.91 772.72 196.32 772.72 198.74C772.72 201.16 773.89 202.61 775.88 202.61C777.62 202.61 778.79 201.71 778.89 200.21H780.41C780.18 202.51 778.38 203.98 775.88 203.98C773.09 203.98 771.19 201.89 771.19 198.75C771.19 195.61 773.07 193.55 775.88 193.55V193.54Z" fill="black"/>
<path d="M786.82 193.54C789.61 193.54 791.49 195.61 791.49 198.74C791.49 201.87 789.61 203.97 786.82 203.97C784.03 203.97 782.11 201.88 782.11 198.74C782.11 195.6 784 193.54 786.82 193.54ZM786.82 194.91C784.81 194.91 783.64 196.32 783.64 198.74C783.64 201.16 784.81 202.61 786.82 202.61C788.83 202.61 789.96 201.18 789.96 198.74C789.96 196.3 788.81 194.91 786.82 194.91Z" fill="black"/>
<path d="M797.9 193.54C800.42 193.54 802.24 195.1 802.43 197.49H800.91C800.83 195.89 799.66 194.91 797.9 194.91C795.89 194.91 794.74 196.32 794.74 198.74C794.74 201.16 795.91 202.61 797.9 202.61C799.64 202.61 800.81 201.71 800.91 200.21H802.43C802.2 202.51 800.4 203.98 797.9 203.98C795.11 203.98 793.21 201.89 793.21 198.75C793.21 195.61 795.09 193.55 797.9 193.55V193.54Z" fill="black"/>
<path d="M812.31 193.77L808.03 198.669L812.5 203.77H810.68L806.97 199.609L805.8 200.96V203.77H804.32V189.77H805.8V199.219L810.45 193.77H812.31Z" fill="black"/>
<path d="M818.91 203.77H818.01C816.76 203.77 815.61 203.09 815.61 201.21V195.06H813.77V193.77H815.61V191.17H817.07V193.77H818.91V195.06H817.07V201.02C817.07 202.15 817.52 202.45 818.12 202.45H818.9V203.78L818.91 203.77Z" fill="black"/>
<path d="M828.5 203.77H827.02V201.99C826.28 203.2 824.99 203.98 823.47 203.98C821.54 203.98 820.17 202.75 820.17 200.99C820.17 199.37 821.22 198.37 823.04 198.26L825.85 198.05C826.71 198.01 827.02 197.72 827.02 197.05V197.01C827.02 195.76 825.93 194.8 824.5 194.8C822.84 194.8 821.94 195.5 821.79 196.93H820.25C820.39 194.88 822.05 193.55 824.49 193.55C826.93 193.55 828.51 195.07 828.51 197.12V203.76L828.5 203.77ZM823.89 202.7C825.69 202.7 827.01 201.33 827.01 199.5V199.19L823.53 199.42C822.28 199.52 821.65 200.03 821.65 200.96C821.65 202.01 822.51 202.7 823.88 202.7H823.89Z" fill="black"/>
<path d="M832.25 190.729V192.37H830.49V190.729H832.25ZM832.12 193.77V203.77H830.64V193.77H832.12Z" fill="black"/>
<path d="M835.69 189.77V203.77H834.21V189.77H835.69Z" fill="black"/>
<path d="M409.65 218.95C408.19 218.95 407.07 220.04 407.07 221.59V227.78H405.59V217.78H407.07V219.26C407.77 218.17 408.96 217.54 410.08 217.54C411.58 217.54 412.79 218.3 413.3 219.71C413.94 218.34 415.33 217.54 416.62 217.54C418.63 217.54 420.12 218.91 420.12 221.41V227.78H418.66V221.73C418.66 219.78 417.7 218.96 416.2 218.96C414.7 218.96 413.6 220.05 413.6 221.6V227.79H412.14V221.74C412.14 219.79 411.18 218.97 409.66 218.97L409.65 218.95Z" fill="black"/>
<path d="M426.71 217.58C429.42 217.58 431.38 219.67 431.38 222.54V223.15H423.57C423.71 225.42 424.82 226.63 426.83 226.63C428.47 226.63 429.47 225.85 429.7 224.62H431.26C430.81 226.75 429.35 227.94 426.83 227.94C423.9 227.94 422.04 225.95 422.04 222.74C422.04 219.53 423.86 217.58 426.71 217.58ZM423.6 221.95H429.79C429.63 220.06 428.42 218.84 426.7 218.84C424.86 218.84 423.79 219.89 423.59 221.95H423.6Z" fill="black"/>
<path d="M437.56 218.95C435.98 218.95 434.77 220.04 434.77 221.59V227.78H433.29V217.78H434.77V219.32C435.51 218.19 436.78 217.54 437.99 217.54C440.14 217.54 441.7 218.91 441.7 221.41V227.78H440.24V221.73C440.24 219.78 439.19 218.96 437.56 218.96V218.95Z" fill="black"/>
<path d="M447.86 226.6C449.4 226.6 450.57 225.45 450.57 223.83V217.78H452.03V227.78H450.57V226.16C449.85 227.33 448.6 228.02 447.43 228.02C445.32 228.02 443.8 226.59 443.8 224.02V217.79H445.28V223.73C445.28 225.76 446.3 226.62 447.86 226.62V226.6Z" fill="black"/>
<path d="M455.77 225.94V227.78H454.01V225.94H455.77Z" fill="black"/>
<path d="M463.07 214.77V222.799C463.07 225.139 464.36 226.51 466.57 226.51C468.78 226.51 469.99 225.139 469.99 222.799V214.77H471.47V222.799C471.47 225.889 469.5 227.94 466.57 227.94C463.64 227.94 461.61 225.889 461.61 222.799V214.77H463.07Z" fill="black"/>
<path d="M477.74 218.95C476.16 218.95 474.95 220.04 474.95 221.59V227.78H473.47V217.78H474.95V219.32C475.69 218.19 476.96 217.54 478.17 217.54C480.32 217.54 481.88 218.91 481.88 221.41V227.78H480.42V221.73C480.42 219.78 479.37 218.96 477.74 218.96V218.95Z" fill="black"/>
<path d="M488.46 217.54C490.98 217.54 492.8 219.1 492.99 221.49H491.47C491.39 219.89 490.22 218.91 488.46 218.91C486.45 218.91 485.3 220.32 485.3 222.74C485.3 225.16 486.47 226.61 488.46 226.61C490.2 226.61 491.37 225.71 491.47 224.21H492.99C492.76 226.51 490.96 227.98 488.46 227.98C485.67 227.98 483.77 225.89 483.77 222.75C483.77 219.61 485.65 217.55 488.46 217.55V217.54Z" fill="black"/>
<path d="M499.4 217.54C502.19 217.54 504.07 219.61 504.07 222.74C504.07 225.87 502.19 227.97 499.4 227.97C496.61 227.97 494.69 225.88 494.69 222.74C494.69 219.6 496.58 217.54 499.4 217.54ZM499.4 218.91C497.39 218.91 496.22 220.32 496.22 222.74C496.22 225.16 497.39 226.61 499.4 226.61C501.41 226.61 502.54 225.18 502.54 222.74C502.54 220.3 501.39 218.91 499.4 218.91Z" fill="black"/>
<path d="M506.65 217.77L509.81 226.109L512.92 217.77H514.54L510.63 227.77H508.95L505.04 217.77H506.64H506.65Z" fill="black"/>
<path d="M520.18 217.58C522.89 217.58 524.85 219.67 524.85 222.54V223.15H517.04C517.18 225.42 518.29 226.63 520.3 226.63C521.94 226.63 522.94 225.85 523.17 224.62H524.73C524.28 226.75 522.82 227.94 520.3 227.94C517.37 227.94 515.51 225.95 515.51 222.74C515.51 219.53 517.33 217.58 520.18 217.58ZM517.08 221.95H523.27C523.11 220.06 521.9 218.84 520.18 218.84C518.34 218.84 517.27 219.89 517.07 221.95H517.08Z" fill="black"/>
<path d="M528.25 217.77V219.27C528.91 218.18 530.01 217.57 531.06 217.57H531.51V219.11H531.08C529.48 219.11 528.25 220.18 528.25 221.71V227.76H526.77V217.76H528.25V217.77Z" fill="black"/>
<path d="M542 227.77H541.1C539.85 227.77 538.7 227.09 538.7 225.21V219.06H536.86V217.77H538.7V215.17H540.16V217.77H542V219.06H540.16V225.02C540.16 226.15 540.61 226.45 541.21 226.45H541.99V227.78L542 227.77Z" fill="black"/>
<path d="M547.96 218.95C546.38 218.95 545.19 220.04 545.19 221.59V227.78H543.71V213.78H545.19V219.33C545.91 218.2 547.2 217.55 548.39 217.55C550.56 217.55 552.12 218.92 552.12 221.42V227.79H550.66V221.74C550.66 219.79 549.61 218.97 547.96 218.97V218.95Z" fill="black"/>
<path d="M558.68 217.58C561.39 217.58 563.35 219.67 563.35 222.54V223.15H555.54C555.68 225.42 556.79 226.63 558.8 226.63C560.44 226.63 561.44 225.85 561.67 224.62H563.23C562.78 226.75 561.32 227.94 558.8 227.94C555.87 227.94 554.01 225.95 554.01 222.74C554.01 219.53 555.83 217.58 558.68 217.58ZM555.57 221.95H561.76C561.6 220.06 560.39 218.84 558.67 218.84C556.83 218.84 555.76 219.89 555.56 221.95H555.57Z" fill="black"/>
<path d="M578.37 227.77H576.91V225.84C576.19 227.17 574.98 227.969 573.45 227.969C570.81 227.969 569.06 225.88 569.06 222.74C569.06 219.6 570.82 217.539 573.45 217.539C574.97 217.539 576.18 218.32 576.91 219.65V213.77H578.37V227.77ZM573.74 226.599C575.75 226.599 576.9 225.169 576.9 222.729C576.9 220.289 575.75 218.9 573.74 218.9C571.73 218.9 570.58 220.309 570.58 222.729C570.58 225.149 571.75 226.599 573.74 226.599Z" fill="black"/>
<path d="M582.1 214.729V216.37H580.34V214.729H582.1ZM581.96 217.77V227.77H580.48V217.77H581.96Z" fill="black"/>
<path d="M585.26 217.77L588.42 226.109L591.53 217.77H593.15L589.24 227.77H587.56L583.65 217.77H585.25H585.26Z" fill="black"/>
<path d="M598.79 217.58C601.5 217.58 603.46 219.67 603.46 222.54V223.15H595.65C595.79 225.42 596.9 226.63 598.91 226.63C600.55 226.63 601.55 225.85 601.78 224.62H603.34C602.89 226.75 601.43 227.94 598.91 227.94C595.98 227.94 594.12 225.95 594.12 222.74C594.12 219.53 595.94 217.58 598.79 217.58ZM595.69 221.95H601.88C601.72 220.06 600.51 218.84 598.79 218.84C596.95 218.84 595.88 219.89 595.68 221.95H595.69Z" fill="black"/>
<path d="M606.86 217.77V219.27C607.52 218.18 608.62 217.57 609.67 217.57H610.12V219.11H609.69C608.09 219.11 606.86 220.18 606.86 221.71V227.76H605.38V217.76H606.86V217.77Z" fill="black"/>
<path d="M614.69 223.3C612.64 223.05 611.53 222.21 611.53 220.51C611.53 218.69 613.01 217.58 615.46 217.58C617.91 217.58 619.33 218.79 619.52 220.78H618.06C617.83 219.43 617.01 218.81 615.44 218.81C613.98 218.81 613 219.45 613 220.43C613 221.41 613.64 221.78 614.91 221.93L616.55 222.13C618.74 222.38 619.77 223.34 619.77 225.14C619.77 226.94 618.23 227.95 615.9 227.95C613.26 227.95 611.66 226.68 611.43 224.77H612.97C613.2 226.12 614.14 226.72 615.9 226.72C617.35 226.72 618.3 226.11 618.3 225.16C618.3 224.21 617.66 223.68 616.31 223.52L614.69 223.31V223.3Z" fill="black"/>
<path d="M626.14 217.58C628.85 217.58 630.81 219.67 630.81 222.54V223.15H623C623.14 225.42 624.25 226.63 626.26 226.63C627.9 226.63 628.9 225.85 629.13 224.62H630.69C630.24 226.75 628.78 227.94 626.26 227.94C623.33 227.94 621.47 225.95 621.47 222.74C621.47 219.53 623.29 217.58 626.14 217.58ZM623.03 221.95H629.22C629.06 220.06 627.85 218.84 626.13 218.84C624.29 218.84 623.22 219.89 623.02 221.95H623.03Z" fill="black"/>
<path d="M644.85 227.77H643.37V225.99C642.63 227.2 641.34 227.98 639.82 227.98C637.89 227.98 636.52 226.75 636.52 224.99C636.52 223.37 637.57 222.37 639.39 222.26L642.2 222.05C643.06 222.01 643.37 221.72 643.37 221.05V221.01C643.37 219.76 642.28 218.8 640.85 218.8C639.19 218.8 638.29 219.5 638.14 220.93H636.6C636.74 218.88 638.4 217.55 640.84 217.55C643.28 217.55 644.86 219.07 644.86 221.12V227.76L644.85 227.77ZM640.24 226.7C642.04 226.7 643.36 225.33 643.36 223.5V223.19L639.88 223.42C638.63 223.52 638 224.03 638 224.96C638 226.01 638.86 226.7 640.23 226.7H640.24Z" fill="black"/>
<path d="M648.46 217.77V219.27C649.12 218.18 650.22 217.57 651.27 217.57H651.72V219.11H651.29C649.69 219.11 648.46 220.18 648.46 221.71V227.76H646.98V217.76H648.46V217.77Z" fill="black"/>
<path d="M654.97 217.77V219.27C655.63 218.18 656.73 217.57 657.78 217.57H658.23V219.11H657.8C656.2 219.11 654.97 220.18 654.97 221.71V227.76H653.49V217.76H654.97V217.77Z" fill="black"/>
<path d="M667.88 227.77H666.4V225.99C665.66 227.2 664.37 227.98 662.85 227.98C660.92 227.98 659.55 226.75 659.55 224.99C659.55 223.37 660.6 222.37 662.42 222.26L665.23 222.05C666.09 222.01 666.4 221.72 666.4 221.05V221.01C666.4 219.76 665.31 218.8 663.88 218.8C662.22 218.8 661.32 219.5 661.17 220.93H659.63C659.77 218.88 661.43 217.55 663.87 217.55C666.31 217.55 667.89 219.07 667.89 221.12V227.76L667.88 227.77ZM663.27 226.7C665.07 226.7 666.39 225.33 666.39 223.5V223.19L662.91 223.42C661.66 223.52 661.03 224.03 661.03 224.96C661.03 226.01 661.89 226.7 663.26 226.7H663.27Z" fill="black"/>
<path d="M671 229.53C671.96 229.53 672.45 229.2 672.78 228.24L673.01 227.669L669.06 217.77H670.66L673.86 226.01L676.98 217.77H678.6L674.5 228.39C673.78 230.23 672.96 230.95 671.51 230.95H669.6V229.52H670.99L671 229.53Z" fill="black"/>
<path d="M688.83 217.54C691.62 217.54 693.5 219.61 693.5 222.74C693.5 225.87 691.62 227.97 688.83 227.97C686.04 227.97 684.12 225.88 684.12 222.74C684.12 219.6 686.01 217.54 688.83 217.54ZM688.83 218.91C686.82 218.91 685.65 220.32 685.65 222.74C685.65 225.16 686.82 226.61 688.83 226.61C690.84 226.61 691.97 225.18 691.97 222.74C691.97 220.3 690.82 218.91 688.83 218.91Z" fill="black"/>
<path d="M694.48 217.77H696.06V216.32C696.06 214.44 697.35 213.76 698.72 213.76H699.62V215.05H698.84C698.08 215.05 697.53 215.32 697.53 216.44V217.77H699.62V219.06H697.53V227.77H696.07V219.06H694.49V217.77H694.48Z" fill="black"/>
<path d="M709.79 217.54C712.31 217.54 714.13 219.1 714.32 221.49H712.8C712.72 219.89 711.55 218.91 709.79 218.91C707.78 218.91 706.63 220.32 706.63 222.74C706.63 225.16 707.8 226.61 709.79 226.61C711.53 226.61 712.7 225.71 712.8 224.21H714.32C714.09 226.51 712.29 227.98 709.79 227.98C707 227.98 705.1 225.89 705.1 222.75C705.1 219.61 706.98 217.55 709.79 217.55V217.54Z" fill="black"/>
<path d="M720.73 217.54C723.52 217.54 725.4 219.61 725.4 222.74C725.4 225.87 723.52 227.97 720.73 227.97C717.94 227.97 716.02 225.88 716.02 222.74C716.02 219.6 717.91 217.54 720.73 217.54ZM720.73 218.91C718.72 218.91 717.55 220.32 717.55 222.74C717.55 225.16 718.72 226.61 720.73 226.61C722.74 226.61 723.87 225.18 723.87 222.74C723.87 220.3 722.72 218.91 720.73 218.91Z" fill="black"/>
<path d="M731.8 217.54C734.32 217.54 736.14 219.1 736.33 221.49H734.81C734.73 219.89 733.56 218.91 731.8 218.91C729.79 218.91 728.64 220.32 728.64 222.74C728.64 225.16 729.81 226.61 731.8 226.61C733.54 226.61 734.71 225.71 734.81 224.21H736.33C736.1 226.51 734.3 227.98 731.8 227.98C729.01 227.98 727.11 225.89 727.11 222.75C727.11 219.61 728.99 217.55 731.8 217.55V217.54Z" fill="black"/>
<path d="M746.22 217.77L741.94 222.669L746.41 227.77H744.59L740.88 223.609L739.71 224.96V227.77H738.23V213.77H739.71V223.219L744.36 217.77H746.22Z" fill="black"/>
<path d="M752.82 227.77H751.92C750.67 227.77 749.52 227.09 749.52 225.21V219.06H747.68V217.77H749.52V215.17H750.98V217.77H752.82V219.06H750.98V225.02C750.98 226.15 751.43 226.45 752.03 226.45H752.81V227.78L752.82 227.77Z" fill="black"/>
<path d="M762.41 227.77H760.93V225.99C760.19 227.2 758.9 227.98 757.38 227.98C755.45 227.98 754.08 226.75 754.08 224.99C754.08 223.37 755.13 222.37 756.95 222.26L759.76 222.05C760.62 222.01 760.93 221.72 760.93 221.05V221.01C760.93 219.76 759.84 218.8 758.41 218.8C756.75 218.8 755.85 219.5 755.7 220.93H754.16C754.3 218.88 755.96 217.55 758.4 217.55C760.84 217.55 762.42 219.07 762.42 221.12V227.76L762.41 227.77ZM757.8 226.7C759.6 226.7 760.92 225.33 760.92 223.5V223.19L757.44 223.42C756.19 223.52 755.56 224.03 755.56 224.96C755.56 226.01 756.42 226.7 757.79 226.7H757.8Z" fill="black"/>
<path d="M766.16 214.729V216.37H764.4V214.729H766.16ZM766.02 217.77V227.77H764.54V217.77H766.02Z" fill="black"/>
<path d="M769.6 213.77V227.77H768.12V213.77H769.6Z" fill="black"/>
<path d="M777.15 213.77V219.63C777.85 218.32 779.06 217.539 780.59 217.539C783.23 217.539 784.98 219.61 784.98 222.74C784.98 225.87 783.22 227.969 780.59 227.969C779.07 227.969 777.86 227.189 777.15 225.859V227.77H775.67V213.77H777.15ZM780.32 218.909C778.31 218.909 777.16 220.32 777.16 222.74C777.16 225.16 778.31 226.609 780.32 226.609C782.33 226.609 783.46 225.18 783.46 222.74C783.46 220.3 782.31 218.909 780.32 218.909Z" fill="black"/>
<path d="M795.04 227.77H793.56V225.99C792.82 227.2 791.53 227.98 790.01 227.98C788.08 227.98 786.71 226.75 786.71 224.99C786.71 223.37 787.76 222.37 789.58 222.26L792.39 222.05C793.25 222.01 793.56 221.72 793.56 221.05V221.01C793.56 219.76 792.47 218.8 791.04 218.8C789.38 218.8 788.48 219.5 788.33 220.93H786.79C786.93 218.88 788.59 217.55 791.03 217.55C793.47 217.55 795.05 219.07 795.05 221.12V227.76L795.04 227.77ZM790.44 226.7C792.24 226.7 793.56 225.33 793.56 223.5V223.19L790.08 223.42C788.83 223.52 788.2 224.03 788.2 224.96C788.2 226.01 789.06 226.7 790.43 226.7H790.44Z" fill="black"/>
<path d="M800.24 223.3C798.19 223.05 797.08 222.21 797.08 220.51C797.08 218.69 798.56 217.58 801.01 217.58C803.46 217.58 804.88 218.79 805.07 220.78H803.61C803.38 219.43 802.56 218.81 800.99 218.81C799.53 218.81 798.55 219.45 798.55 220.43C798.55 221.41 799.19 221.78 800.46 221.93L802.1 222.13C804.29 222.38 805.32 223.34 805.32 225.14C805.32 226.94 803.78 227.95 801.45 227.95C798.81 227.95 797.21 226.68 796.98 224.77H798.52C798.75 226.12 799.69 226.72 801.45 226.72C802.9 226.72 803.85 226.11 803.85 225.16C803.85 224.21 803.21 223.68 801.86 223.52L800.24 223.31V223.3Z" fill="black"/>
<path d="M811.69 217.58C814.4 217.58 816.36 219.67 816.36 222.54V223.15H808.55C808.69 225.42 809.8 226.63 811.81 226.63C813.45 226.63 814.45 225.85 814.68 224.62H816.24C815.79 226.75 814.33 227.94 811.81 227.94C808.88 227.94 807.02 225.95 807.02 222.74C807.02 219.53 808.84 217.58 811.69 217.58ZM808.58 221.95H814.77C814.61 220.06 813.4 218.84 811.68 218.84C809.84 218.84 808.77 219.89 808.57 221.95H808.58Z" fill="black"/>
<path d="M821.33 223.3C819.28 223.05 818.17 222.21 818.17 220.51C818.17 218.69 819.65 217.58 822.1 217.58C824.55 217.58 825.97 218.79 826.16 220.78H824.7C824.47 219.43 823.65 218.81 822.08 218.81C820.62 218.81 819.64 219.45 819.64 220.43C819.64 221.41 820.28 221.78 821.55 221.93L823.19 222.13C825.38 222.38 826.41 223.34 826.41 225.14C826.41 226.94 824.87 227.95 822.54 227.95C819.9 227.95 818.3 226.68 818.07 224.77H819.61C819.84 226.12 820.78 226.72 822.54 226.72C823.99 226.72 824.94 226.11 824.94 225.16C824.94 224.21 824.3 223.68 822.95 223.52L821.33 223.31V223.3Z" fill="black"/>
<path d="M829.93 225.94V227.78L829.17 230.48H828.04L829.23 227.78H828.18V225.94H829.94H829.93Z" fill="black"/>
<path d="M405.2 241.77H406.78V240.32C406.78 238.44 408.07 237.76 409.44 237.76H410.34V239.05H409.56C408.8 239.05 408.25 239.32 408.25 240.44V241.77H410.34V243.06H408.25V251.77H406.79V243.06H405.21V241.77H405.2Z" fill="black"/>
<path d="M413.52 241.77V243.27C414.18 242.18 415.28 241.57 416.33 241.57H416.78V243.11H416.35C414.75 243.11 413.52 244.18 413.52 245.71V251.76H412.04V241.76H413.52V241.77Z" fill="black"/>
<path d="M422.68 241.54C425.47 241.54 427.35 243.61 427.35 246.74C427.35 249.87 425.47 251.97 422.68 251.97C419.89 251.97 417.97 249.88 417.97 246.74C417.97 243.6 419.86 241.54 422.68 241.54ZM422.68 242.91C420.67 242.91 419.5 244.32 419.5 246.74C419.5 249.16 420.67 250.61 422.68 250.61C424.69 250.61 425.82 249.18 425.82 246.74C425.82 244.3 424.67 242.91 422.68 242.91Z" fill="black"/>
<path d="M433.33 242.95C431.87 242.95 430.75 244.04 430.75 245.59V251.78H429.27V241.78H430.75V243.26C431.45 242.17 432.64 241.54 433.76 241.54C435.26 241.54 436.47 242.3 436.98 243.71C437.62 242.34 439.01 241.54 440.3 241.54C442.31 241.54 443.8 242.91 443.8 245.41V251.78H442.34V245.73C442.34 243.78 441.38 242.96 439.88 242.96C438.38 242.96 437.28 244.05 437.28 245.6V251.79H435.82V245.74C435.82 243.79 434.86 242.97 433.34 242.97L433.33 242.95Z" fill="black"/>
<path d="M452.96 247.3C450.91 247.05 449.8 246.21 449.8 244.51C449.8 242.69 451.28 241.58 453.73 241.58C456.18 241.58 457.6 242.79 457.79 244.78H456.33C456.1 243.43 455.28 242.81 453.71 242.81C452.25 242.81 451.27 243.45 451.27 244.43C451.27 245.41 451.91 245.78 453.18 245.93L454.82 246.13C457.01 246.38 458.04 247.34 458.04 249.14C458.04 250.94 456.5 251.95 454.17 251.95C451.53 251.95 449.93 250.68 449.7 248.77H451.24C451.47 250.12 452.41 250.72 454.17 250.72C455.62 250.72 456.57 250.11 456.57 249.16C456.57 248.21 455.93 247.68 454.58 247.52L452.96 247.31V247.3Z" fill="black"/>
<path d="M461.41 241.77V243.63C462.11 242.32 463.32 241.54 464.85 241.54C467.49 241.54 469.24 243.61 469.24 246.74C469.24 249.87 467.48 251.97 464.85 251.97C463.33 251.97 462.12 251.19 461.41 249.86V255.04H459.93V241.78H461.41V241.77ZM464.58 242.91C462.57 242.91 461.42 244.32 461.42 246.74C461.42 249.16 462.57 250.61 464.58 250.61C466.59 250.61 467.72 249.18 467.72 246.74C467.72 244.3 466.57 242.91 464.58 242.91Z" fill="black"/>
<path d="M472.78 238.729V240.37H471.02V238.729H472.78ZM472.64 241.77V251.77H471.16V241.77H472.64Z" fill="black"/>
<path d="M476.22 241.77V243.27C476.88 242.18 477.98 241.57 479.03 241.57H479.48V243.11H479.05C477.45 243.11 476.22 244.18 476.22 245.71V251.76H474.74V241.76H476.22V241.77Z" fill="black"/>
<path d="M482.86 238.729V240.37H481.1V238.729H482.86ZM482.72 241.77V251.77H481.24V241.77H482.72Z" fill="black"/>
<path d="M489.56 251.77H488.66C487.41 251.77 486.26 251.09 486.26 249.21V243.06H484.42V241.77H486.26V239.17H487.72V241.77H489.56V243.06H487.72V249.02C487.72 250.15 488.17 250.45 488.77 250.45H489.55V251.78L489.56 251.77Z" fill="black"/>
<path d="M494.07 247.3C492.02 247.05 490.91 246.21 490.91 244.51C490.91 242.69 492.39 241.58 494.84 241.58C497.29 241.58 498.71 242.79 498.9 244.78H497.44C497.21 243.43 496.39 242.81 494.82 242.81C493.36 242.81 492.38 243.45 492.38 244.43C492.38 245.41 493.02 245.78 494.29 245.93L495.93 246.13C498.12 246.38 499.15 247.34 499.15 249.14C499.15 250.94 497.61 251.95 495.28 251.95C492.64 251.95 491.04 250.68 490.81 248.77H492.35C492.58 250.12 493.52 250.72 495.28 250.72C496.73 250.72 497.68 250.11 497.68 249.16C497.68 248.21 497.04 247.68 495.69 247.52L494.07 247.31V247.3Z" fill="black"/>
<path d="M509.77 251.77H508.87C507.62 251.77 506.47 251.09 506.47 249.21V243.06H504.63V241.77H506.47V239.17H507.93V241.77H509.77V243.06H507.93V249.02C507.93 250.15 508.38 250.45 508.98 250.45H509.76V251.78L509.77 251.77Z" fill="black"/>
<path d="M515.73 241.54C518.52 241.54 520.4 243.61 520.4 246.74C520.4 249.87 518.52 251.97 515.73 251.97C512.94 251.97 511.02 249.88 511.02 246.74C511.02 243.6 512.91 241.54 515.73 241.54ZM515.73 242.91C513.72 242.91 512.55 244.32 512.55 246.74C512.55 249.16 513.72 250.61 515.73 250.61C517.74 250.61 518.87 249.18 518.87 246.74C518.87 244.3 517.72 242.91 515.73 242.91Z" fill="black"/>
<path d="M527.78 237.77V251.77H526.3V237.77H527.78Z" fill="black"/>
<path d="M531.49 238.729V240.37H529.73V238.729H531.49ZM531.35 241.77V251.77H529.87V241.77H531.35Z" fill="black"/>
<path d="M542.56 255.04H541.1V249.84C540.38 251.17 539.17 251.97 537.64 251.97C535 251.97 533.25 249.88 533.25 246.74C533.25 243.6 535.01 241.54 537.64 241.54C539.16 241.54 540.37 242.32 541.1 243.65V241.77H542.56V255.03V255.04ZM537.94 250.6C539.95 250.6 541.1 249.17 541.1 246.73C541.1 244.29 539.95 242.9 537.94 242.9C535.93 242.9 534.78 244.31 534.78 246.73C534.78 249.15 535.95 250.6 537.94 250.6Z" fill="black"/>
<path d="M548.74 250.6C550.28 250.6 551.45 249.45 551.45 247.83V241.78H552.91V251.78H551.45V250.16C550.73 251.33 549.48 252.02 548.31 252.02C546.2 252.02 544.68 250.59 544.68 248.02V241.79H546.16V247.73C546.16 249.76 547.18 250.62 548.74 250.62V250.6Z" fill="black"/>
<path d="M559.5 241.58C562.21 241.58 564.17 243.67 564.17 246.54V247.15H556.36C556.5 249.42 557.61 250.63 559.62 250.63C561.26 250.63 562.26 249.85 562.49 248.62H564.05C563.6 250.75 562.14 251.94 559.62 251.94C556.69 251.94 554.83 249.95 554.83 246.74C554.83 243.53 556.65 241.58 559.5 241.58ZM556.39 245.95H562.58C562.42 244.06 561.21 242.84 559.49 242.84C557.65 242.84 556.58 243.89 556.38 245.95H556.39Z" fill="black"/>
<path d="M570.14 250.6C571.68 250.6 572.85 249.45 572.85 247.83V241.78H574.31V251.78H572.85V250.16C572.13 251.33 570.88 252.02 569.71 252.02C567.6 252.02 566.08 250.59 566.08 248.02V241.79H567.56V247.73C567.56 249.76 568.58 250.62 570.14 250.62V250.6Z" fill="black"/>
<path d="M577.92 241.77V243.27C578.58 242.18 579.68 241.57 580.73 241.57H581.18V243.11H580.75C579.15 243.11 577.92 244.18 577.92 245.71V251.76H576.44V241.76H577.92V241.77Z" fill="black"/>
<path d="M585.75 247.3C583.7 247.05 582.59 246.21 582.59 244.51C582.59 242.69 584.07 241.58 586.52 241.58C588.97 241.58 590.39 242.79 590.58 244.78H589.12C588.89 243.43 588.07 242.81 586.5 242.81C585.04 242.81 584.06 243.45 584.06 244.43C584.06 245.41 584.7 245.78 585.97 245.93L587.61 246.13C589.8 246.38 590.83 247.34 590.83 249.14C590.83 250.94 589.29 251.95 586.96 251.95C584.32 251.95 582.72 250.68 582.49 248.77H584.03C584.26 250.12 585.2 250.72 586.96 250.72C588.41 250.72 589.36 250.11 589.36 249.16C589.36 248.21 588.72 247.68 587.37 247.52L585.75 247.31V247.3Z" fill="black"/>
<path d="M594.34 249.94V251.78L593.58 254.48H592.45L593.64 251.78H592.59V249.94H594.35H594.34Z" fill="black"/>
<path d="M604.79 241.54C607.58 241.54 609.46 243.61 609.46 246.74C609.46 249.87 607.58 251.97 604.79 251.97C602 251.97 600.08 249.88 600.08 246.74C600.08 243.6 601.97 241.54 604.79 241.54ZM604.79 242.91C602.78 242.91 601.61 244.32 601.61 246.74C601.61 249.16 602.78 250.61 604.79 250.61C606.8 250.61 607.93 249.18 607.93 246.74C607.93 244.3 606.78 242.91 604.79 242.91Z" fill="black"/>
<path d="M610.44 241.77H612.02V240.32C612.02 238.44 613.31 237.76 614.68 237.76H615.58V239.05H614.8C614.04 239.05 613.49 239.32 613.49 240.44V241.77H615.58V243.06H613.49V251.77H612.03V243.06H610.45V241.77H610.44Z" fill="black"/>
<path d="M616.88 241.77H618.46V240.32C618.46 238.44 619.75 237.76 621.12 237.76H622.02V239.05H621.24C620.48 239.05 619.93 239.32 619.93 240.44V241.77H622.02V243.06H619.93V251.77H618.47V243.06H616.89V241.77H616.88Z" fill="black"/>
<path d="M627.82 241.58C630.53 241.58 632.49 243.67 632.49 246.54V247.15H624.68C624.82 249.42 625.93 250.63 627.94 250.63C629.58 250.63 630.58 249.85 630.81 248.62H632.37C631.92 250.75 630.46 251.94 627.94 251.94C625.01 251.94 623.15 249.95 623.15 246.74C623.15 243.53 624.97 241.58 627.82 241.58ZM624.71 245.95H630.9C630.74 244.06 629.53 242.84 627.81 242.84C625.97 242.84 624.9 243.89 624.7 245.95H624.71Z" fill="black"/>
<path d="M635.88 241.77V243.27C636.54 242.18 637.64 241.57 638.69 241.57H639.14V243.11H638.71C637.11 243.11 635.88 244.18 635.88 245.71V251.76H634.4V241.76H635.88V241.77Z" fill="black"/>
<path d="M642.53 238.729V240.37H640.77V238.729H642.53ZM642.39 241.77V251.77H640.91V241.77H642.39Z" fill="black"/>
<path d="M648.76 242.95C647.18 242.95 645.97 244.04 645.97 245.59V251.78H644.49V241.78H645.97V243.32C646.71 242.19 647.98 241.54 649.19 241.54C651.34 241.54 652.9 242.91 652.9 245.41V251.78H651.44V245.73C651.44 243.78 650.39 242.96 648.76 242.96V242.95Z" fill="black"/>
<path d="M664.11 251.99C664.11 254.2 662.35 255.68 659.7 255.68C657.05 255.68 655.27 254.39 654.95 252.42H656.49C656.65 253.63 657.82 254.35 659.65 254.35C661.48 254.35 662.64 253.45 662.64 251.89V249.55C661.92 250.84 660.69 251.6 659.16 251.6C656.54 251.6 654.78 249.59 654.78 246.56C654.78 243.53 656.54 241.56 659.16 241.56C660.68 241.56 661.91 242.3 662.64 243.59V241.77H664.1V251.98L664.11 251.99ZM659.48 250.23C661.49 250.23 662.64 248.88 662.64 246.56C662.64 244.24 661.49 242.91 659.48 242.91C657.47 242.91 656.32 244.26 656.32 246.56C656.32 248.86 657.49 250.23 659.48 250.23Z" fill="black"/>
<path d="M674.67 241.58C677.38 241.58 679.34 243.67 679.34 246.54V247.15H671.53C671.67 249.42 672.78 250.63 674.79 250.63C676.43 250.63 677.43 249.85 677.66 248.62H679.22C678.77 250.75 677.31 251.94 674.79 251.94C671.86 251.94 670 249.95 670 246.74C670 243.53 671.82 241.58 674.67 241.58ZM671.57 245.95H677.76C677.6 244.06 676.39 242.84 674.67 242.84C672.83 242.84 671.76 243.89 671.56 245.95H671.57Z" fill="black"/>
<path d="M685.53 242.95C683.95 242.95 682.74 244.04 682.74 245.59V251.78H681.26V241.78H682.74V243.32C683.48 242.19 684.75 241.54 685.96 241.54C688.11 241.54 689.67 242.91 689.67 245.41V251.78H688.21V245.73C688.21 243.78 687.16 242.96 685.53 242.96V242.95Z" fill="black"/>
<path d="M700.88 251.77H699.42V249.84C698.7 251.17 697.49 251.969 695.96 251.969C693.32 251.969 691.57 249.88 691.57 246.74C691.57 243.6 693.33 241.539 695.96 241.539C697.48 241.539 698.69 242.32 699.42 243.65V237.77H700.88V251.77ZM696.26 250.599C698.27 250.599 699.42 249.169 699.42 246.729C699.42 244.289 698.27 242.9 696.26 242.9C694.25 242.9 693.1 244.309 693.1 246.729C693.1 249.149 694.27 250.599 696.26 250.599Z" fill="black"/>
<path d="M704.48 237.77V251.77H703V237.77H704.48Z" fill="black"/>
<path d="M711.04 241.58C713.75 241.58 715.71 243.67 715.71 246.54V247.15H707.9C708.04 249.42 709.15 250.63 711.16 250.63C712.8 250.63 713.8 249.85 714.03 248.62H715.59C715.14 250.75 713.68 251.94 711.16 251.94C708.23 251.94 706.37 249.95 706.37 246.74C706.37 243.53 708.19 241.58 711.04 241.58ZM707.94 245.95H714.13C713.97 244.06 712.76 242.84 711.04 242.84C709.2 242.84 708.13 243.89 707.93 245.95H707.94Z" fill="black"/>
<path d="M720.69 247.3C718.64 247.05 717.53 246.21 717.53 244.51C717.53 242.69 719.01 241.58 721.46 241.58C723.91 241.58 725.33 242.79 725.52 244.78H724.06C723.83 243.43 723.01 242.81 721.44 242.81C719.98 242.81 719 243.45 719 244.43C719 245.41 719.64 245.78 720.91 245.93L722.55 246.13C724.74 246.38 725.77 247.34 725.77 249.14C725.77 250.94 724.23 251.95 721.9 251.95C719.26 251.95 717.66 250.68 717.43 248.77H718.97C719.2 250.12 720.14 250.72 721.9 250.72C723.35 250.72 724.3 250.11 724.3 249.16C724.3 248.21 723.66 247.68 722.31 247.52L720.69 247.31V247.3Z" fill="black"/>
<path d="M730.73 247.3C728.68 247.05 727.57 246.21 727.57 244.51C727.57 242.69 729.05 241.58 731.5 241.58C733.95 241.58 735.37 242.79 735.56 244.78H734.1C733.87 243.43 733.05 242.81 731.48 242.81C730.02 242.81 729.04 243.45 729.04 244.43C729.04 245.41 729.68 245.78 730.95 245.93L732.59 246.13C734.78 246.38 735.81 247.34 735.81 249.14C735.81 250.94 734.27 251.95 731.94 251.95C729.3 251.95 727.7 250.68 727.47 248.77H729.01C729.24 250.12 730.18 250.72 731.94 250.72C733.39 250.72 734.34 250.11 734.34 249.16C734.34 248.21 733.7 247.68 732.35 247.52L730.73 247.31V247.3Z" fill="black"/>
<path d="M743.17 241.77V243.63C743.87 242.32 745.08 241.54 746.61 241.54C749.25 241.54 751 243.61 751 246.74C751 249.87 749.24 251.97 746.61 251.97C745.09 251.97 743.88 251.19 743.17 249.86V255.04H741.69V241.78H743.17V241.77ZM746.33 242.91C744.32 242.91 743.17 244.32 743.17 246.74C743.17 249.16 744.32 250.61 746.33 250.61C748.34 250.61 749.47 249.18 749.47 246.74C749.47 244.3 748.32 242.91 746.33 242.91Z" fill="black"/>
<path d="M757.43 241.54C760.22 241.54 762.1 243.61 762.1 246.74C762.1 249.87 760.22 251.97 757.43 251.97C754.64 251.97 752.72 249.88 752.72 246.74C752.72 243.6 754.61 241.54 757.43 241.54ZM757.43 242.91C755.42 242.91 754.25 244.32 754.25 246.74C754.25 249.16 755.42 250.61 757.43 250.61C759.44 250.61 760.57 249.18 760.57 246.74C760.57 244.3 759.42 242.91 757.43 242.91Z" fill="black"/>
<path d="M767.08 247.3C765.03 247.05 763.92 246.21 763.92 244.51C763.92 242.69 765.4 241.58 767.85 241.58C770.3 241.58 771.72 242.79 771.91 244.78H770.45C770.22 243.43 769.4 242.81 767.83 242.81C766.37 242.81 765.39 243.45 765.39 244.43C765.39 245.41 766.03 245.78 767.3 245.93L768.94 246.13C771.13 246.38 772.16 247.34 772.16 249.14C772.16 250.94 770.62 251.95 768.29 251.95C765.65 251.95 764.05 250.68 763.82 248.77H765.36C765.59 250.12 766.53 250.72 768.29 250.72C769.74 250.72 770.69 250.11 770.69 249.16C770.69 248.21 770.05 247.68 768.7 247.52L767.08 247.31V247.3Z" fill="black"/>
<path d="M777.12 247.3C775.07 247.05 773.96 246.21 773.96 244.51C773.96 242.69 775.44 241.58 777.89 241.58C780.34 241.58 781.76 242.79 781.95 244.78H780.49C780.26 243.43 779.44 242.81 777.87 242.81C776.41 242.81 775.43 243.45 775.43 244.43C775.43 245.41 776.07 245.78 777.34 245.93L778.98 246.13C781.17 246.38 782.2 247.34 782.2 249.14C782.2 250.94 780.66 251.95 778.33 251.95C775.69 251.95 774.09 250.68 773.86 248.77H775.4C775.63 250.12 776.57 250.72 778.33 250.72C779.78 250.72 780.73 250.11 780.73 249.16C780.73 248.21 780.09 247.68 778.74 247.52L777.12 247.31V247.3Z" fill="black"/>
<path d="M785.71 238.729V240.37H783.95V238.729H785.71ZM785.57 241.77V251.77H784.09V241.77H785.57Z" fill="black"/>
<path d="M789.15 237.77V243.63C789.85 242.32 791.06 241.539 792.59 241.539C795.23 241.539 796.98 243.61 796.98 246.74C796.98 249.87 795.22 251.969 792.59 251.969C791.07 251.969 789.86 251.189 789.15 249.859V251.77H787.67V237.77H789.15ZM792.31 242.909C790.3 242.909 789.15 244.32 789.15 246.74C789.15 249.16 790.3 250.609 792.31 250.609C794.32 250.609 795.45 249.18 795.45 246.74C795.45 244.3 794.3 242.909 792.31 242.909Z" fill="black"/>
<path d="M800.51 238.729V240.37H798.75V238.729H800.51ZM800.38 241.77V251.77H798.9V241.77H800.38Z" fill="black"/>
<path d="M803.95 237.77V251.77H802.47V237.77H803.95Z" fill="black"/>
<path d="M807.66 238.729V240.37H805.9V238.729H807.66ZM807.53 241.77V251.77H806.05V241.77H807.53Z" fill="black"/>
<path d="M814.36 251.77H813.46C812.21 251.77 811.06 251.09 811.06 249.21V243.06H809.22V241.77H811.06V239.17H812.52V241.77H814.36V243.06H812.52V249.02C812.52 250.15 812.97 250.45 813.57 250.45H814.35V251.78L814.36 251.77Z" fill="black"/>
<path d="M817.68 238.729V240.37H815.92V238.729H817.68ZM817.54 241.77V251.77H816.06V241.77H817.54Z" fill="black"/>
<path d="M824.11 241.58C826.82 241.58 828.78 243.67 828.78 246.54V247.15H820.97C821.11 249.42 822.22 250.63 824.23 250.63C825.87 250.63 826.87 249.85 827.1 248.62H828.66C828.21 250.75 826.75 251.94 824.23 251.94C821.3 251.94 819.44 249.95 819.44 246.74C819.44 243.53 821.26 241.58 824.11 241.58ZM821 245.95H827.19C827.03 244.06 825.82 242.84 824.1 242.84C822.26 242.84 821.19 243.89 820.99 245.95H821Z" fill="black"/>
<path d="M833.76 247.3C831.71 247.05 830.6 246.21 830.6 244.51C830.6 242.69 832.08 241.58 834.53 241.58C836.98 241.58 838.4 242.79 838.59 244.78H837.13C836.9 243.43 836.08 242.81 834.51 242.81C833.05 242.81 832.07 243.45 832.07 244.43C832.07 245.41 832.71 245.78 833.98 245.93L835.62 246.13C837.81 246.38 838.84 247.34 838.84 249.14C838.84 250.94 837.3 251.95 834.97 251.95C832.33 251.95 830.73 250.68 830.5 248.77H832.04C832.27 250.12 833.21 250.72 834.97 250.72C836.42 250.72 837.37 250.11 837.37 249.16C837.37 248.21 836.73 247.68 835.38 247.52L833.76 247.31V247.3Z" fill="black"/>
<path d="M405.2 265.77H406.78V264.32C406.78 262.44 408.07 261.76 409.44 261.76H410.34V263.05H409.56C408.8 263.05 408.25 263.32 408.25 264.44V265.77H410.34V267.06H408.25V275.77H406.79V267.06H405.21V265.77H405.2Z" fill="black"/>
<path d="M416.18 265.54C418.97 265.54 420.85 267.61 420.85 270.74C420.85 273.87 418.97 275.97 416.18 275.97C413.39 275.97 411.47 273.88 411.47 270.74C411.47 267.6 413.36 265.54 416.18 265.54ZM416.18 266.91C414.17 266.91 413 268.32 413 270.74C413 273.16 414.17 274.61 416.18 274.61C418.19 274.61 419.32 273.18 419.32 270.74C419.32 268.3 418.17 266.91 416.18 266.91Z" fill="black"/>
<path d="M424.24 265.77V267.27C424.9 266.18 426 265.57 427.05 265.57H427.5V267.11H427.07C425.47 267.11 424.24 268.18 424.24 269.71V275.76H422.76V265.76H424.24V265.77Z" fill="black"/>
<path d="M437.74 265.54C440.26 265.54 442.08 267.1 442.27 269.49H440.75C440.67 267.89 439.5 266.91 437.74 266.91C435.73 266.91 434.58 268.32 434.58 270.74C434.58 273.16 435.75 274.61 437.74 274.61C439.48 274.61 440.65 273.71 440.75 272.21H442.27C442.04 274.51 440.24 275.98 437.74 275.98C434.95 275.98 433.05 273.89 433.05 270.75C433.05 267.61 434.93 265.55 437.74 265.55V265.54Z" fill="black"/>
<path d="M445.65 265.77V267.27C446.31 266.18 447.41 265.57 448.46 265.57H448.91V267.11H448.48C446.88 267.11 445.65 268.18 445.65 269.71V275.76H444.17V265.76H445.65V265.77Z" fill="black"/>
<path d="M454.77 265.58C457.48 265.58 459.44 267.67 459.44 270.54V271.15H451.63C451.77 273.42 452.88 274.63 454.89 274.63C456.53 274.63 457.53 273.85 457.76 272.62H459.32C458.87 274.75 457.41 275.94 454.89 275.94C451.96 275.94 450.1 273.95 450.1 270.74C450.1 267.53 451.92 265.58 454.77 265.58ZM451.67 269.95H457.86C457.7 268.06 456.49 266.84 454.77 266.84C452.93 266.84 451.86 267.89 451.66 269.95H451.67Z" fill="black"/>
<path d="M469.5 275.77H468.02V273.99C467.28 275.2 465.99 275.98 464.47 275.98C462.54 275.98 461.17 274.75 461.17 272.99C461.17 271.37 462.22 270.37 464.04 270.26L466.85 270.05C467.71 270.01 468.02 269.72 468.02 269.05V269.01C468.02 267.76 466.93 266.8 465.5 266.8C463.84 266.8 462.94 267.5 462.79 268.93H461.25C461.39 266.88 463.05 265.55 465.49 265.55C467.93 265.55 469.51 267.07 469.51 269.12V275.76L469.5 275.77ZM464.89 274.7C466.69 274.7 468.01 273.33 468.01 271.5V271.19L464.53 271.42C463.28 271.52 462.65 272.03 462.65 272.96C462.65 274.01 463.51 274.7 464.88 274.7H464.89Z" fill="black"/>
<path d="M476.12 275.77H475.22C473.97 275.77 472.82 275.09 472.82 273.21V267.06H470.98V265.77H472.82V263.17H474.28V265.77H476.12V267.06H474.28V273.02C474.28 274.15 474.73 274.45 475.33 274.45H476.11V275.78L476.12 275.77Z" fill="black"/>
<path d="M479.44 262.729V264.37H477.68V262.729H479.44ZM479.3 265.77V275.77H477.82V265.77H479.3Z" fill="black"/>
<path d="M482.6 265.77L485.76 274.109L488.87 265.77H490.49L486.58 275.77H484.9L480.99 265.77H482.59H482.6Z" fill="black"/>
<path d="M496.14 265.58C498.85 265.58 500.81 267.67 500.81 270.54V271.15H493C493.14 273.42 494.25 274.63 496.26 274.63C497.9 274.63 498.9 273.85 499.13 272.62H500.69C500.24 274.75 498.78 275.94 496.26 275.94C493.33 275.94 491.47 273.95 491.47 270.74C491.47 267.53 493.29 265.58 496.14 265.58ZM493.03 269.95H499.22C499.06 268.06 497.85 266.84 496.13 266.84C494.29 266.84 493.22 267.89 493.02 269.95H493.03Z" fill="black"/>
<path d="M511.18 265.58C513.89 265.58 515.85 267.67 515.85 270.54V271.15H508.04C508.18 273.42 509.29 274.63 511.3 274.63C512.94 274.63 513.94 273.85 514.17 272.62H515.73C515.28 274.75 513.82 275.94 511.3 275.94C508.37 275.94 506.51 273.95 506.51 270.74C506.51 267.53 508.33 265.58 511.18 265.58ZM508.07 269.95H514.26C514.1 268.06 512.89 266.84 511.17 266.84C509.33 266.84 508.26 267.89 508.06 269.95H508.07Z" fill="black"/>
<path d="M518.37 265.77L521.08 269.95L523.89 265.77H525.57L522.31 270.71L525.57 275.77H523.89L521.18 271.45L518.39 275.77H516.69L519.95 270.69L516.69 265.77H518.37Z" fill="black"/>
<path d="M528.76 265.77V267.63C529.46 266.32 530.67 265.54 532.2 265.54C534.84 265.54 536.59 267.61 536.59 270.74C536.59 273.87 534.83 275.97 532.2 275.97C530.68 275.97 529.47 275.19 528.76 273.86V279.04H527.28V265.78H528.76V265.77ZM531.92 266.91C529.91 266.91 528.76 268.32 528.76 270.74C528.76 273.16 529.91 274.61 531.92 274.61C533.93 274.61 535.06 273.18 535.06 270.74C535.06 268.3 533.91 266.91 531.92 266.91Z" fill="black"/>
<path d="M539.99 265.77V267.27C540.65 266.18 541.75 265.57 542.8 265.57H543.25V267.11H542.82C541.22 267.11 539.99 268.18 539.99 269.71V275.76H538.51V265.76H539.99V265.77Z" fill="black"/>
<path d="M549.11 265.58C551.82 265.58 553.78 267.67 553.78 270.54V271.15H545.97C546.11 273.42 547.22 274.63 549.23 274.63C550.87 274.63 551.87 273.85 552.1 272.62H553.66C553.21 274.75 551.75 275.94 549.23 275.94C546.3 275.94 544.44 273.95 544.44 270.74C544.44 267.53 546.26 265.58 549.11 265.58ZM546 269.95H552.19C552.03 268.06 550.82 266.84 549.1 266.84C547.26 266.84 546.19 267.89 545.99 269.95H546Z" fill="black"/>
<path d="M558.76 271.3C556.71 271.05 555.6 270.21 555.6 268.51C555.6 266.69 557.08 265.58 559.53 265.58C561.98 265.58 563.4 266.79 563.59 268.78H562.13C561.9 267.43 561.08 266.81 559.51 266.81C558.05 266.81 557.07 267.45 557.07 268.43C557.07 269.41 557.71 269.78 558.98 269.93L560.62 270.13C562.81 270.38 563.84 271.34 563.84 273.14C563.84 274.94 562.3 275.95 559.97 275.95C557.33 275.95 555.73 274.68 555.5 272.77H557.04C557.27 274.12 558.21 274.72 559.97 274.72C561.42 274.72 562.37 274.11 562.37 273.16C562.37 272.21 561.73 271.68 560.38 271.52L558.76 271.31V271.3Z" fill="black"/>
<path d="M568.79 271.3C566.74 271.05 565.63 270.21 565.63 268.51C565.63 266.69 567.11 265.58 569.56 265.58C572.01 265.58 573.43 266.79 573.62 268.78H572.16C571.93 267.43 571.11 266.81 569.54 266.81C568.08 266.81 567.1 267.45 567.1 268.43C567.1 269.41 567.74 269.78 569.01 269.93L570.65 270.13C572.84 270.38 573.87 271.34 573.87 273.14C573.87 274.94 572.33 275.95 570 275.95C567.36 275.95 565.76 274.68 565.53 272.77H567.07C567.3 274.12 568.24 274.72 570 274.72C571.45 274.72 572.4 274.11 572.4 273.16C572.4 272.21 571.76 271.68 570.41 271.52L568.79 271.31V271.3Z" fill="black"/>
<path d="M577.39 262.729V264.37H575.63V262.729H577.39ZM577.25 265.77V275.77H575.77V265.77H577.25Z" fill="black"/>
<path d="M583.85 265.54C586.64 265.54 588.52 267.61 588.52 270.74C588.52 273.87 586.64 275.97 583.85 275.97C581.06 275.97 579.14 273.88 579.14 270.74C579.14 267.6 581.03 265.54 583.85 265.54ZM583.85 266.91C581.84 266.91 580.67 268.32 580.67 270.74C580.67 273.16 581.84 274.61 583.85 274.61C585.86 274.61 586.99 273.18 586.99 270.74C586.99 268.3 585.84 266.91 583.85 266.91Z" fill="black"/>
<path d="M594.71 266.95C593.13 266.95 591.92 268.04 591.92 269.59V275.78H590.44V265.78H591.92V267.32C592.66 266.19 593.93 265.54 595.14 265.54C597.29 265.54 598.85 266.91 598.85 269.41V275.78H597.39V269.73C597.39 267.78 596.34 266.96 594.71 266.96V266.95Z" fill="black"/>
<path d="M602.56 273.94V275.78H600.8V273.94H602.56Z" fill="black"/>
<path d="M613.95 262.57C617.02 262.57 619.24 264.35 619.46 267.12H617.94C617.84 265.17 616.3 263.96 613.98 263.96C611.36 263.96 609.84 265.89 609.84 269.23C609.84 272.57 611.36 274.52 613.98 274.52C616.28 274.52 617.81 273.31 617.94 271.36H619.46C619.21 274.19 617 275.93 613.95 275.93C610.57 275.93 608.31 273.25 608.31 269.23C608.31 265.21 610.56 262.57 613.95 262.57Z" fill="black"/>
<path d="M625.63 266.95C624.05 266.95 622.86 268.04 622.86 269.59V275.78H621.38V261.78H622.86V267.33C623.58 266.2 624.87 265.55 626.06 265.55C628.23 265.55 629.79 266.92 629.79 269.42V275.79H628.33V269.74C628.33 267.79 627.28 266.97 625.63 266.97V266.95Z" fill="black"/>
<path d="M636.35 265.58C639.06 265.58 641.02 267.67 641.02 270.54V271.15H633.21C633.35 273.42 634.46 274.63 636.47 274.63C638.11 274.63 639.11 273.85 639.34 272.62H640.9C640.45 274.75 638.99 275.94 636.47 275.94C633.54 275.94 631.68 273.95 631.68 270.74C631.68 267.53 633.5 265.58 636.35 265.58ZM633.25 269.95H639.44C639.28 268.06 638.07 266.84 636.35 266.84C634.51 266.84 633.44 267.89 633.24 269.95H633.25Z" fill="black"/>
<path d="M647.41 265.58C650.12 265.58 652.08 267.67 652.08 270.54V271.15H644.27C644.41 273.42 645.52 274.63 647.53 274.63C649.17 274.63 650.17 273.85 650.4 272.62H651.96C651.51 274.75 650.05 275.94 647.53 275.94C644.6 275.94 642.74 273.95 642.74 270.74C642.74 267.53 644.56 265.58 647.41 265.58ZM644.3 269.95H650.49C650.33 268.06 649.12 266.84 647.4 266.84C645.56 266.84 644.49 267.89 644.29 269.95H644.3Z" fill="black"/>
<path d="M655.47 265.77V267.27C656.13 266.18 657.23 265.57 658.28 265.57H658.73V267.11H658.3C656.7 267.11 655.47 268.18 655.47 269.71V275.76H653.99V265.76H655.47V265.77Z" fill="black"/>
<path d="M663.31 271.3C661.26 271.05 660.15 270.21 660.15 268.51C660.15 266.69 661.63 265.58 664.08 265.58C666.53 265.58 667.95 266.79 668.14 268.78H666.68C666.45 267.43 665.63 266.81 664.06 266.81C662.6 266.81 661.62 267.45 661.62 268.43C661.62 269.41 662.26 269.78 663.53 269.93L665.17 270.13C667.36 270.38 668.39 271.34 668.39 273.14C668.39 274.94 666.85 275.95 664.52 275.95C661.88 275.95 660.28 274.68 660.05 272.77H661.59C661.82 274.12 662.76 274.72 664.52 274.72C665.97 274.72 666.92 274.11 666.92 273.16C666.92 272.21 666.28 271.68 664.93 271.52L663.31 271.31V271.3Z" fill="black"/>
<path d="M679.01 275.77H678.11C676.86 275.77 675.71 275.09 675.71 273.21V267.06H673.87V265.77H675.71V263.17H677.17V265.77H679.01V267.06H677.17V273.02C677.17 274.15 677.62 274.45 678.22 274.45H679V275.78L679.01 275.77Z" fill="black"/>
<path d="M684.97 265.54C687.76 265.54 689.64 267.61 689.64 270.74C689.64 273.87 687.76 275.97 684.97 275.97C682.18 275.97 680.26 273.88 680.26 270.74C680.26 267.6 682.15 265.54 684.97 265.54ZM684.97 266.91C682.96 266.91 681.79 268.32 681.79 270.74C681.79 273.16 682.96 274.61 684.97 274.61C686.98 274.61 688.11 273.18 688.11 270.74C688.11 268.3 686.96 266.91 684.97 266.91Z" fill="black"/>
<path d="M700.01 265.58C702.72 265.58 704.68 267.67 704.68 270.54V271.15H696.87C697.01 273.42 698.12 274.63 700.13 274.63C701.77 274.63 702.77 273.85 703 272.62H704.56C704.11 274.75 702.65 275.94 700.13 275.94C697.2 275.94 695.34 273.95 695.34 270.74C695.34 267.53 697.16 265.58 700.01 265.58ZM696.9 269.95H703.09C702.93 268.06 701.72 266.84 700 266.84C698.16 266.84 697.09 267.89 696.89 269.95H696.9Z" fill="black"/>
<path d="M710.87 266.95C709.29 266.95 708.08 268.04 708.08 269.59V275.78H706.6V265.78H708.08V267.32C708.82 266.19 710.09 265.54 711.3 265.54C713.45 265.54 715.01 266.91 715.01 269.41V275.78H713.55V269.73C713.55 267.78 712.5 266.96 710.87 266.96V266.95Z" fill="black"/>
<path d="M726.22 275.77H724.76V273.84C724.04 275.17 722.83 275.969 721.3 275.969C718.66 275.969 716.91 273.88 716.91 270.74C716.91 267.6 718.67 265.539 721.3 265.539C722.82 265.539 724.03 266.32 724.76 267.65V261.77H726.22V275.77ZM721.59 274.599C723.6 274.599 724.75 273.169 724.75 270.729C724.75 268.289 723.6 266.9 721.59 266.9C719.58 266.9 718.43 268.309 718.43 270.729C718.43 273.149 719.6 274.599 721.59 274.599Z" fill="black"/>
<path d="M729.81 261.77V275.77H728.33V261.77H729.81Z" fill="black"/>
<path d="M736.37 265.58C739.08 265.58 741.04 267.67 741.04 270.54V271.15H733.23C733.37 273.42 734.48 274.63 736.49 274.63C738.13 274.63 739.13 273.85 739.36 272.62H740.92C740.47 274.75 739.01 275.94 736.49 275.94C733.56 275.94 731.7 273.95 731.7 270.74C731.7 267.53 733.52 265.58 736.37 265.58ZM733.27 269.95H739.46C739.3 268.06 738.09 266.84 736.37 266.84C734.53 266.84 733.46 267.89 733.26 269.95H733.27Z" fill="black"/>
<path d="M746.02 271.3C743.97 271.05 742.86 270.21 742.86 268.51C742.86 266.69 744.34 265.58 746.79 265.58C749.24 265.58 750.66 266.79 750.85 268.78H749.39C749.16 267.43 748.34 266.81 746.77 266.81C745.31 266.81 744.33 267.45 744.33 268.43C744.33 269.41 744.97 269.78 746.24 269.93L747.88 270.13C750.07 270.38 751.1 271.34 751.1 273.14C751.1 274.94 749.56 275.95 747.23 275.95C744.59 275.95 742.99 274.68 742.76 272.77H744.3C744.53 274.12 745.47 274.72 747.23 274.72C748.68 274.72 749.63 274.11 749.63 273.16C749.63 272.21 748.99 271.68 747.64 271.52L746.02 271.31V271.3Z" fill="black"/>
<path d="M756.06 271.3C754.01 271.05 752.9 270.21 752.9 268.51C752.9 266.69 754.38 265.58 756.83 265.58C759.28 265.58 760.7 266.79 760.89 268.78H759.43C759.2 267.43 758.38 266.81 756.81 266.81C755.35 266.81 754.37 267.45 754.37 268.43C754.37 269.41 755.01 269.78 756.28 269.93L757.92 270.13C760.11 270.38 761.14 271.34 761.14 273.14C761.14 274.94 759.6 275.95 757.27 275.95C754.63 275.95 753.03 274.68 752.8 272.77H754.34C754.57 274.12 755.51 274.72 757.27 274.72C758.72 274.72 759.67 274.11 759.67 273.16C759.67 272.21 759.03 271.68 757.68 271.52L756.06 271.31V271.3Z" fill="black"/>
<path d="M410.06 289.58C412.77 289.58 414.73 291.67 414.73 294.54V295.15H406.92C407.06 297.42 408.17 298.63 410.18 298.63C411.82 298.63 412.82 297.85 413.05 296.62H414.61C414.16 298.75 412.7 299.94 410.18 299.94C407.25 299.94 405.39 297.95 405.39 294.74C405.39 291.53 407.21 289.58 410.06 289.58ZM406.96 293.95H413.15C412.99 292.06 411.78 290.84 410.06 290.84C408.22 290.84 407.15 291.89 406.95 293.95H406.96Z" fill="black"/>
<path d="M417.25 289.77L419.96 293.95L422.77 289.77H424.45L421.19 294.71L424.45 299.77H422.77L420.06 295.45L417.27 299.77H415.57L418.83 294.69L415.57 289.77H417.25Z" fill="black"/>
<path d="M427.64 289.77V291.63C428.34 290.32 429.55 289.54 431.08 289.54C433.72 289.54 435.47 291.61 435.47 294.74C435.47 297.87 433.71 299.97 431.08 299.97C429.56 299.97 428.35 299.19 427.64 297.86V303.04H426.16V289.78H427.64V289.77ZM430.81 290.91C428.8 290.91 427.65 292.32 427.65 294.74C427.65 297.16 428.8 298.61 430.81 298.61C432.82 298.61 433.95 297.18 433.95 294.74C433.95 292.3 432.8 290.91 430.81 290.91Z" fill="black"/>
<path d="M438.87 285.77V299.77H437.39V285.77H438.87Z" fill="black"/>
<path d="M445.47 289.54C448.26 289.54 450.14 291.61 450.14 294.74C450.14 297.87 448.26 299.97 445.47 299.97C442.68 299.97 440.76 297.88 440.76 294.74C440.76 291.6 442.65 289.54 445.47 289.54ZM445.47 290.91C443.46 290.91 442.29 292.32 442.29 294.74C442.29 297.16 443.46 298.61 445.47 298.61C447.48 298.61 448.61 297.18 448.61 294.74C448.61 292.3 447.46 290.91 445.47 290.91Z" fill="black"/>
<path d="M453.54 289.77V291.27C454.2 290.18 455.3 289.57 456.35 289.57H456.8V291.11H456.37C454.77 291.11 453.54 292.18 453.54 293.71V299.76H452.06V289.76H453.54V289.77Z" fill="black"/>
<path d="M466.45 299.77H464.97V297.99C464.23 299.2 462.94 299.98 461.42 299.98C459.49 299.98 458.12 298.75 458.12 296.99C458.12 295.37 459.17 294.37 460.99 294.26L463.8 294.05C464.66 294.01 464.97 293.72 464.97 293.05V293.01C464.97 291.76 463.88 290.8 462.45 290.8C460.79 290.8 459.89 291.5 459.74 292.93H458.2C458.34 290.88 460 289.55 462.44 289.55C464.88 289.55 466.46 291.07 466.46 293.12V299.76L466.45 299.77ZM461.84 298.7C463.64 298.7 464.96 297.33 464.96 295.5V295.19L461.48 295.42C460.23 295.52 459.6 296.03 459.6 296.96C459.6 298.01 460.46 298.7 461.83 298.7H461.84Z" fill="black"/>
<path d="M473.07 299.77H472.17C470.92 299.77 469.77 299.09 469.77 297.21V291.06H467.93V289.77H469.77V287.17H471.23V289.77H473.07V291.06H471.23V297.02C471.23 298.15 471.68 298.45 472.28 298.45H473.06V299.78L473.07 299.77Z" fill="black"/>
<path d="M476.39 286.729V288.37H474.63V286.729H476.39ZM476.26 289.77V299.77H474.78V289.77H476.26Z" fill="black"/>
<path d="M482.86 289.54C485.65 289.54 487.53 291.61 487.53 294.74C487.53 297.87 485.65 299.97 482.86 299.97C480.07 299.97 478.15 297.88 478.15 294.74C478.15 291.6 480.04 289.54 482.86 289.54ZM482.86 290.91C480.85 290.91 479.68 292.32 479.68 294.74C479.68 297.16 480.85 298.61 482.86 298.61C484.87 298.61 486 297.18 486 294.74C486 292.3 484.85 290.91 482.86 290.91Z" fill="black"/>
<path d="M493.72 290.95C492.14 290.95 490.93 292.04 490.93 293.59V299.78H489.45V289.78H490.93V291.32C491.67 290.19 492.94 289.54 494.15 289.54C496.3 289.54 497.86 290.91 497.86 293.41V299.78H496.4V293.73C496.4 291.78 495.35 290.96 493.72 290.96V290.95Z" fill="black"/>
<path d="M512.08 299.77H510.6V297.99C509.86 299.2 508.57 299.98 507.05 299.98C505.12 299.98 503.75 298.75 503.75 296.99C503.75 295.37 504.8 294.37 506.62 294.26L509.43 294.05C510.29 294.01 510.6 293.72 510.6 293.05V293.01C510.6 291.76 509.51 290.8 508.08 290.8C506.42 290.8 505.52 291.5 505.37 292.93H503.83C503.97 290.88 505.63 289.55 508.07 289.55C510.51 289.55 512.09 291.07 512.09 293.12V299.76L512.08 299.77ZM507.47 298.7C509.27 298.7 510.59 297.33 510.59 295.5V295.19L507.11 295.42C505.86 295.52 505.23 296.03 505.23 296.96C505.23 298.01 506.09 298.7 507.46 298.7H507.47Z" fill="black"/>
<path d="M518.48 290.95C516.9 290.95 515.69 292.04 515.69 293.59V299.78H514.21V289.78H515.69V291.32C516.43 290.19 517.7 289.54 518.91 289.54C521.06 289.54 522.62 290.91 522.62 293.41V299.78H521.16V293.73C521.16 291.78 520.11 290.96 518.48 290.96V290.95Z" fill="black"/>
<path d="M533.83 299.77H532.37V297.84C531.65 299.17 530.44 299.969 528.91 299.969C526.27 299.969 524.52 297.88 524.52 294.74C524.52 291.6 526.28 289.539 528.91 289.539C530.43 289.539 531.64 290.32 532.37 291.65V285.77H533.83V299.77ZM529.21 298.599C531.22 298.599 532.37 297.169 532.37 294.729C532.37 292.289 531.22 290.9 529.21 290.9C527.2 290.9 526.05 292.309 526.05 294.729C526.05 297.149 527.22 298.599 529.21 298.599Z" fill="black"/>
<path d="M544.4 289.58C547.11 289.58 549.07 291.67 549.07 294.54V295.15H541.26C541.4 297.42 542.51 298.63 544.52 298.63C546.16 298.63 547.16 297.85 547.39 296.62H548.95C548.5 298.75 547.04 299.94 544.52 299.94C541.59 299.94 539.73 297.95 539.73 294.74C539.73 291.53 541.55 289.58 544.4 289.58ZM541.29 293.95H547.48C547.32 292.06 546.11 290.84 544.39 290.84C542.55 290.84 541.48 291.89 541.28 293.95H541.29Z" fill="black"/>
<path d="M555.26 290.95C553.68 290.95 552.47 292.04 552.47 293.59V299.78H550.99V289.78H552.47V291.32C553.21 290.19 554.48 289.54 555.69 289.54C557.84 289.54 559.4 290.91 559.4 293.41V299.78H557.94V293.73C557.94 291.78 556.89 290.96 555.26 290.96V290.95Z" fill="black"/>
<path d="M560.36 301.65C561.02 301.65 561.49 301.38 561.49 300.26V289.77H562.97V300.38C562.97 302.29 561.76 303.02 560.49 303.02H559.73V301.65H560.35H560.36ZM563.11 286.729V288.37H561.35V286.729H563.11Z" fill="black"/>
<path d="M569.58 289.54C572.37 289.54 574.25 291.61 574.25 294.74C574.25 297.87 572.37 299.97 569.58 299.97C566.79 299.97 564.87 297.88 564.87 294.74C564.87 291.6 566.76 289.54 569.58 289.54ZM569.58 290.91C567.57 290.91 566.4 292.32 566.4 294.74C566.4 297.16 567.57 298.61 569.58 298.61C571.59 298.61 572.72 297.18 572.72 294.74C572.72 292.3 571.57 290.91 569.58 290.91Z" fill="black"/>
<path d="M577.15 301.53C578.11 301.53 578.6 301.2 578.93 300.24L579.16 299.669L575.21 289.77H576.81L580.01 298.01L583.13 289.77H584.75L580.65 300.39C579.93 302.23 579.11 302.95 577.66 302.95H575.75V301.52H577.14L577.15 301.53Z" fill="black"/>
<path d="M590.55 290.95C589.09 290.95 587.97 292.04 587.97 293.59V299.78H586.49V289.78H587.97V291.26C588.67 290.17 589.86 289.54 590.98 289.54C592.48 289.54 593.69 290.3 594.2 291.71C594.84 290.34 596.23 289.54 597.52 289.54C599.53 289.54 601.02 290.91 601.02 293.41V299.78H599.56V293.73C599.56 291.78 598.6 290.96 597.1 290.96C595.6 290.96 594.5 292.05 594.5 293.6V299.79H593.04V293.74C593.04 291.79 592.08 290.97 590.56 290.97L590.55 290.95Z" fill="black"/>
<path d="M607.6 289.58C610.31 289.58 612.27 291.67 612.27 294.54V295.15H604.46C604.6 297.42 605.71 298.63 607.72 298.63C609.36 298.63 610.36 297.85 610.59 296.62H612.15C611.7 298.75 610.24 299.94 607.72 299.94C604.79 299.94 602.93 297.95 602.93 294.74C602.93 291.53 604.75 289.58 607.6 289.58ZM604.5 293.95H610.69C610.53 292.06 609.32 290.84 607.6 290.84C605.76 290.84 604.69 291.89 604.49 293.95H604.5Z" fill="black"/>
<path d="M618.46 290.95C616.88 290.95 615.67 292.04 615.67 293.59V299.78H614.19V289.78H615.67V291.32C616.41 290.19 617.68 289.54 618.89 289.54C621.04 289.54 622.6 290.91 622.6 293.41V299.78H621.14V293.73C621.14 291.78 620.09 290.96 618.46 290.96V290.95Z" fill="black"/>
<path d="M629.19 299.77H628.29C627.04 299.77 625.89 299.09 625.89 297.21V291.06H624.05V289.77H625.89V287.17H627.35V289.77H629.19V291.06H627.35V297.02C627.35 298.15 627.8 298.45 628.4 298.45H629.18V299.78L629.19 299.77Z" fill="black"/>
<path d="M630.75 299.77V298.109H632.51V299.77H630.75ZM631.02 296.729L630.88 286.77H632.36L632.2 296.729H631.01H631.02Z" fill="black"/>
<path d="M300.96 231.02C299.31 229.96 297.65 228.89 296 227.83C295.17 227.3 294.34 226.76 293.55 226.17C290 223.48 287.37 219.52 283.34 217.62" stroke="black" stroke-miterlimit="10"/>
<path d="M-226.97 300.93C-184.54 303.21 -141.86 305.28 -99.49 300.95C-57.29 296.63 -15.2 287.78 26.66 280.89C31.4 280.11 36.14 279.33 40.88 278.55C62.97 274.92 87.27 267.74 109.62 268.51C118.94 268.83 127.71 272.4 136.85 273.93C155.39 277.02 175.27 276.15 193.51 271.54C205.21 268.59 214.82 262.57 225.48 257.23C232.51 253.71 239.63 251.9 247.49 252.4C256.08 252.95 264.4 255.65 273.03 255.81C278.28 255.9 286.11 253.67 284.7 246.74C284.36 245.06 283.48 243.54 282.48 242.16C275.49 232.51 262.2 227.41 250.56 227.9C252.39 224.85 255.07 220.53 258.6 220.03C268.39 218.63 277.47 223.28 283.21 231.02C286.73 235.77 293.57 247.83 301.1 243.93C304.79 242.02 303.79 237.27 302.85 234.05C302.55 234.14 303.15 233.96 302.85 234.05C309.39 232.05 318 228.58 316.83 220C316.39 216.78 315.03 213.29 313.56 210.4C312.78 208.87 312.02 206.93 311.85 205.22C316.13 205.77 320.01 201.85 320.76 197.59C322.28 188.96 315.88 180.22 309.91 174.7C302.85 168.17 294.05 164.44 284.84 162.03C274.61 159.36 264.03 157.75 254.23 153.65C244.51 149.58 235.85 142.55 224.94 141.85C206.69 140.67 194.86 154.68 181.56 164.8C168.78 174.52 154.95 183.18 139.71 188.44C122.92 194.24 104.89 194 87.34 193.8C62.39 193.51 37.47 192.12 12.57 190.68C-21.31 188.72 -55.21 186.65 -88.89 182.35C-123.58 177.92 -156.86 167.55 -191.25 161.63C-199.95 160.13 -208.71 158.99 -217.52 158.44" fill="#FAF6EA"/>
<path d="M-226.97 300.93C-184.54 303.21 -141.86 305.28 -99.49 300.95C-57.29 296.63 -15.2 287.78 26.66 280.89C31.4 280.11 36.14 279.33 40.88 278.55C62.97 274.92 87.27 267.74 109.62 268.51C118.94 268.83 127.71 272.4 136.85 273.93C155.39 277.02 175.27 276.15 193.51 271.54C205.21 268.59 214.82 262.57 225.48 257.23C232.51 253.71 239.63 251.9 247.49 252.4C256.08 252.95 264.4 255.65 273.03 255.81C278.28 255.9 286.11 253.67 284.7 246.74C284.36 245.06 283.48 243.54 282.48 242.16C275.49 232.51 262.2 227.41 250.56 227.9C252.39 224.85 255.07 220.53 258.6 220.03C268.39 218.63 277.47 223.28 283.21 231.02C286.73 235.77 293.57 247.83 301.1 243.93C304.79 242.02 303.79 237.27 302.85 234.05M302.85 234.05C302.55 234.14 303.15 233.96 302.85 234.05ZM302.85 234.05C309.39 232.05 318 228.58 316.83 220C316.39 216.78 315.03 213.29 313.56 210.4C312.78 208.87 312.02 206.93 311.85 205.22C316.13 205.77 320.01 201.85 320.76 197.59C322.28 188.96 315.88 180.22 309.91 174.7C302.85 168.17 294.05 164.44 284.84 162.03C274.61 159.36 264.03 157.75 254.23 153.65C244.51 149.58 235.85 142.55 224.94 141.85C206.69 140.67 194.86 154.68 181.56 164.8C168.78 174.52 154.95 183.18 139.71 188.44C122.92 194.24 104.89 194 87.34 193.8C62.39 193.51 37.47 192.12 12.57 190.68C-21.31 188.72 -55.21 186.65 -88.89 182.35C-123.58 177.92 -156.86 167.55 -191.25 161.63C-199.95 160.13 -208.71 158.99 -217.52 158.44" stroke="black" stroke-miterlimit="10"/>
<path d="M303.19 234.1C297.21 232.85 292.66 229.36 289.58 224.04" stroke="black" stroke-miterlimit="10"/>
<path d="M229.07 315.56C228.56 322.92 251.59 328.08 280.32 330.08C309.04 332.08 332.57 330.17 333.09 322.81C333.6 315.45 310.97 304.44 282.25 302.44C253.53 300.44 229.59 308.19 229.08 315.56H229.07Z" fill="#FAF6EA" stroke="black" stroke-miterlimit="10"/>
<path d="M279.9 289.63L287.87 175.38C288.05 172.8 284.74 170.27 281.86 170.07C285.05 170.42 288.32 170.72 291.7 170.95C294.88 171.17 297.98 171.32 301.01 171.42C298.12 171.22 294.5 173.27 294.32 175.85L286.35 290.08C285.81 297.76 303.4 298.23 302.45 312.04C302.26 314.76 292.76 317.06 281.28 316.26C269.81 315.46 260.72 311.86 260.9 309.14C261.88 295.33 279.36 297.31 279.89 289.63H279.9Z" fill="#FAF6EA" stroke="black" stroke-miterlimit="10"/>
<path d="M248.29 64.3001C252.32 28.0101 258.87 10.7901 259.95 8.14014C259.92 8.21014 259.9 8.28011 259.88 8.36011C259.88 8.36011 259.88 8.36012 259.88 8.37012C259.83 8.55012 259.8 8.74011 259.79 8.93011C259.79 9.04011 259.79 9.16014 259.79 9.27014C260.08 15.2401 278.6 21.2901 301.75 22.9101C324.9 24.5201 344.08 21.1001 345.19 15.2301L345.24 14.8901C345.25 14.7101 345.24 14.5301 345.23 14.3501C345.23 14.3301 345.23 14.3201 345.23 14.3001C345.2 14.1001 345.15 13.9001 345.09 13.7001H345.1C345.1 13.7001 350.09 31.4601 348.95 71.3201C347.65 116.53 335.3 158.39 301.04 171.42C298.31 172.46 293.74 172.83 291.32 172.66C288.91 172.49 284.43 171.49 281.87 170.09C249.75 152.43 243.33 109.25 248.31 64.3001H248.29Z" fill="#FAF6EA" stroke="black" stroke-miterlimit="10"/>
<path d="M248.29 64.3001C252.32 28.0101 258.87 10.7901 259.95 8.14014C259.92 8.21014 259.9 8.28011 259.88 8.36011C259.88 8.36011 259.88 8.36012 259.88 8.37012C259.83 8.55012 259.8 8.74011 259.79 8.93011C259.79 9.04011 259.79 9.16014 259.79 9.27014C260.08 15.2401 278.6 21.2901 301.75 22.9101C324.9 24.5201 344.08 21.1001 345.19 15.2301L345.24 14.8901C345.25 14.7101 345.24 14.5301 345.23 14.3501C345.23 14.3301 345.23 14.3201 345.23 14.3001C345.2 14.1001 345.15 13.9001 345.09 13.7001H345.1C345.1 13.7001 350.09 31.4601 348.95 71.3201C347.65 116.53 335.3 158.39 301.04 171.42C298.31 172.46 293.74 172.83 291.32 172.66C288.91 172.49 284.43 171.49 281.87 170.09C249.75 152.43 243.33 109.25 248.31 64.3001H248.29Z" fill="#FAF6EA" stroke="black" stroke-miterlimit="10"/>
<path d="M259.88 8.36007C259.88 8.36007 259.88 8.36006 259.88 8.35006C259.9 8.28006 259.93 8.20009 259.95 8.13009C260.01 7.97009 260.06 7.87008 260.08 7.81008C260.08 7.79008 260.09 7.7801 260.1 7.7601C260.92 6.1001 263.26 4.6601 266.75 3.5101C274.53 0.950095 288.04 -0.1699 303.27 0.8901C318.49 1.9501 331.7 4.93006 339.05 8.54006C342.36 10.1601 344.48 11.9201 345.06 13.6801C345.13 13.8801 345.18 14.0801 345.2 14.2801C345.2 14.3001 345.2 14.3101 345.2 14.3301C345.22 14.5101 345.23 14.6901 345.21 14.8701L345.16 15.2101C344.05 21.0801 324.87 24.5101 301.72 22.8901C278.57 21.2801 260.05 15.2201 259.76 9.25009C259.76 9.14009 259.76 9.02006 259.76 8.91006C259.77 8.72006 259.8 8.54006 259.85 8.35006L259.88 8.36007Z" fill="#FAF6EA" stroke="black" stroke-miterlimit="10"/>
<path d="M254.29 72.1202C254.87 66.9402 255.5 62.2102 256.16 57.9102C256.16 57.9602 256.16 58.0202 256.16 58.0702C256.5 63.2702 275.16 68.7202 298.44 70.3402C321.72 71.9602 340.95 69.1502 342.01 64.0502L342.03 63.8902C342.09 68.2502 342.06 73.0102 341.91 78.2302C340.78 117.59 330.03 154.05 300.19 165.39C297.81 166.29 293.83 166.61 291.73 166.47C289.63 166.32 285.73 165.46 283.5 164.23C255.53 148.85 249.94 111.26 254.28 72.1202H254.29Z" fill="#FAF6EA" stroke="black" stroke-miterlimit="10"/>
<path d="M299.11 60.25C299.11 60.25 299.11 60.28 299.11 60.29C299.13 60.45 299.14 60.61 299.13 60.76L299.11 60.89C299.11 60.67 299.11 60.45 299.11 60.23V60.25Z" fill="#FAF6EA" stroke="black" stroke-miterlimit="10"/>
<path d="M298.43 70.3399C275.16 68.7199 256.5 63.2699 256.15 58.0699C256.15 58.0199 256.15 57.9599 256.15 57.9099C256.18 57.6899 256.22 57.4699 256.25 57.2499C256.27 57.1999 256.29 57.1399 256.31 57.0899C256.37 56.9499 256.42 56.8599 256.44 56.8099C256.44 56.7999 256.45 56.7799 256.46 56.7699C257.27 55.3299 259.6 54.0999 263.1 53.1299C270.89 50.9699 284.45 50.1199 299.76 51.1899C315.05 52.2599 328.35 54.9799 335.78 58.1899C339.12 59.6399 341.26 61.1799 341.87 62.7299C341.94 62.8999 341.99 63.0699 342.02 63.2399C342.02 63.4599 342.02 63.6799 342.02 63.8999L342 64.0599C340.94 69.1599 321.7 71.9699 298.43 70.3499V70.3399Z" fill="#FAF6EA" stroke="black" stroke-miterlimit="10"/>
<path d="M174.27 187.84C181.48 181.22 191.58 178.56 201.36 178.21C211.14 177.86 220.86 179.57 230.6 180.56C240.34 181.55 250.41 181.78 259.66 178.6C265.28 176.67 270.43 173.53 276.08 171.7C281.01 170.1 286.26 169.53 291.42 170.04C296.02 170.49 300.89 172.04 303.53 175.82C305.4 178.5 305.89 181.96 305.45 185.2C304.35 193.45 297.71 200.15 290.08 203.5C282.46 206.85 273.93 207.39 265.61 207.57C257.29 207.75 248.84 207.62 240.79 209.76C227.89 213.19 217.28 222.06 206.52 229.96C195.76 237.86 183.53 245.25 170.19 244.92" fill="#FAF6EA"/>
<path d="M174.27 187.84C181.48 181.22 191.58 178.56 201.36 178.21C211.14 177.86 220.86 179.57 230.6 180.56C240.34 181.55 250.41 181.78 259.66 178.6C265.28 176.67 270.43 173.53 276.08 171.7C281.01 170.1 286.26 169.53 291.42 170.04C296.02 170.49 300.89 172.04 303.53 175.82C305.4 178.5 305.89 181.96 305.45 185.2C304.35 193.45 297.71 200.15 290.08 203.5C282.46 206.85 273.93 207.39 265.61 207.57C257.29 207.75 248.84 207.62 240.79 209.76C227.89 213.19 217.28 222.06 206.52 229.96C195.76 237.86 183.53 245.25 170.19 244.92" stroke="black" stroke-miterlimit="10"/>
<path d="M284.09 191.71C284.59 192.11 285.14 192.46 285.72 192.72C288.55 194 292.06 194.41 295.1 193.75C300.92 192.48 304.47 183.93 301.27 178.91C299.26 175.74 294.58 174.39 291.04 174.36C286.54 174.32 281.62 176.09 280.47 180.83C279.54 184.65 281.01 189.24 284.09 191.71Z" stroke="black" stroke-miterlimit="10"/>
<path d="M250.67 227.76C246.07 234.84 243.99 243.53 244.9 251.92" stroke="black" stroke-miterlimit="10"/>
<path d="M236.65 242.07C236.65 244.36 236.65 246.64 236.65 248.93" stroke="black" stroke-miterlimit="10"/>
<path d="M225.3 228.15C223.43 235.72 223.13 243.68 224.43 251.37" stroke="black" stroke-miterlimit="10"/>
<path d="M160.26 240.93C157.21 240.51 154.01 239.73 151.85 237.54C151.04 236.72 150.41 235.73 149.79 234.75C149.29 233.96 148.8 233.18 148.3 232.39C146.91 230.19 145.5 227.95 144.71 225.46" stroke="black" stroke-miterlimit="10"/>
<path d="M159.24 230.83C157.88 229.32 156.96 227.41 156.61 225.41" stroke="black" stroke-miterlimit="10"/>
<path d="M221.69 215.25C215.8 213.95 210.04 212.06 204.52 209.64" stroke="black" stroke-miterlimit="10"/>
<path d="M200.18 219.06C199.03 219.33 197.92 218.59 196.97 217.88C194.93 216.37 192.89 214.86 190.85 213.35C187.79 211.09 184.66 208.75 182.58 205.56" stroke="black" stroke-miterlimit="10"/>
<path d="M249.53 180.89C244.09 173.78 238.69 166.64 233.34 159.46" stroke="black" stroke-miterlimit="10"/>
<path d="M229.42 171.79C229.23 170.23 228.34 168.86 227.51 167.53C224.34 162.46 221.65 156.69 222.24 150.75" stroke="black" stroke-miterlimit="10"/>
<path d="M311.91 205.23C309.35 204.89 306.81 204.24 304.48 203.11C302.06 201.94 300.03 200.09 297.79 198.61" stroke="black" stroke-miterlimit="10"/>
<path d="M259.26 236.18C257.69 238.84 256.07 241.74 256.37 244.82" stroke="black" stroke-miterlimit="10"/>
<path d="M256.04 208.06C256.5 212.68 256.15 217.38 255.02 221.88" stroke="black" stroke-miterlimit="10"/>
<path d="M131.81 197.71C131.35 199.59 130.58 201.37 130.01 203.22C128.11 209.35 128.46 215.92 128.83 222.33" stroke="black" stroke-miterlimit="10"/>
<path d="M130.78 236.63C131.78 245.22 133.72 253.7 136.55 261.88" stroke="black" stroke-miterlimit="10"/>
<path d="M115.88 200.44C113.55 218.82 115.49 237.73 121.51 255.25" stroke="black" stroke-miterlimit="10"/>
<path d="M93.44 241.37C83.28 238.75 72.64 238.02 62.23 239.23" stroke="black" stroke-miterlimit="10"/>
<path d="M264.18 182.53C264.18 185.85 264.18 189.17 264.18 192.49" stroke="black" stroke-miterlimit="10"/>
<path d="M258.15 184.91C257.94 187.01 258.06 189.13 258.49 191.2" stroke="black" stroke-miterlimit="10"/>
<path d="M250.76 182.96C250.76 184.04 250.76 185.12 250.76 186.21" stroke="black" stroke-miterlimit="10"/>
<path d="M320.98 197.99C317.27 197.94 314.84 194.98 313.67 191.73C312.08 187.29 313.07 182.87 313.43 178.34" stroke="black" stroke-miterlimit="10"/>
<path d="M415.81 98.7202L418.15 125.39L431.56 98.7202H435.78L439.58 125.39L451.63 98.7202H455.71L440.94 129.94H436.91L433.07 103.17L419.66 129.94H415.54L412.21 98.7202H415.82H415.81Z" fill="#415E43"/>
<path d="M464.65 105.47C472.01 105.47 475.99 110.95 474.87 117.56L474.64 118.97H456.03C455.98 119.35 455.98 119.67 455.98 120.05C455.98 124.74 458.56 127.22 463.34 127.22C466.72 127.22 469.11 125.53 470.32 122.53H474.26C472.38 127.64 468.54 130.36 463.29 130.36C456.54 130.36 452.37 126.38 452.37 119.86C452.37 111.89 457.2 105.47 464.65 105.47ZM456.4 116.16H471.4C472.06 111.61 469.24 108.52 464.84 108.52C460.44 108.52 457.48 111.43 456.4 116.16Z" fill="#415E43"/>
<path d="M487.01 96.3301L481.1 129.94H477.54L483.45 96.3301H487.01Z" fill="#415E43"/>
<path d="M499.9 105.38C505.99 105.38 509.79 109.22 509.79 115.04H506.18C506.18 111.06 503.79 108.66 499.62 108.66C494.79 108.66 491.14 113.54 491.14 119.91C491.14 124.55 493.67 127.18 498.22 127.18C501.64 127.18 504.41 124.88 505.2 121.51H508.95C507.68 126.99 503.47 130.42 497.98 130.42C491.56 130.42 487.48 126.3 487.48 119.87C487.48 111.53 492.82 105.39 499.9 105.39V105.38Z" fill="#415E43"/>
<path d="M526.11 105.38C532.34 105.38 536.47 109.5 536.47 115.88C536.47 124.13 531.08 130.41 524.05 130.41C517.82 130.41 513.69 126.24 513.69 119.86C513.69 111.61 519.08 105.38 526.11 105.38ZM525.87 108.66C521.28 108.66 517.34 113.25 517.34 119.86C517.34 124.5 519.92 127.13 524.32 127.13C528.72 127.13 532.85 122.44 532.85 115.83C532.85 111.33 530.27 108.66 525.87 108.66Z" fill="#415E43"/>
<path d="M546.73 105.94L546.17 109.17C548.28 106.73 551.33 105.42 554 105.42C557.52 105.42 560.19 107.44 560.94 110.76C563 107.43 566.52 105.46 569.71 105.46C574.4 105.46 577.73 109.21 576.69 114.98L573.97 129.93H570.45L573.07 115.45C573.96 110.67 571.8 108.84 568.48 108.84C565.16 108.84 561.78 111.42 560.98 114.93V115.02L558.21 129.93H554.69L557.36 115.45C558.2 110.81 556.19 108.7 552.48 108.7C549.2 108.7 546.2 110.81 545.26 114.14L542.49 129.94H538.93L543.15 105.94H546.71H546.73Z" fill="#415E43"/>
<path d="M592.53 105.47C599.89 105.47 603.87 110.95 602.75 117.56L602.52 118.97H583.91C583.86 119.35 583.86 119.67 583.86 120.05C583.86 124.74 586.44 127.22 591.22 127.22C594.6 127.22 596.99 125.53 598.2 122.53H602.14C600.26 127.64 596.42 130.36 591.17 130.36C584.42 130.36 580.25 126.38 580.25 119.86C580.25 111.89 585.08 105.47 592.53 105.47ZM584.28 116.16H599.28C599.94 111.61 597.12 108.52 592.72 108.52C588.32 108.52 585.36 111.43 584.28 116.16Z" fill="#415E43"/>
<path d="M605.04 129.94L605.74 125.96H609.91L609.25 129.94H605.03H605.04ZM607.01 122.63L610.9 98.7202H614.42L609.87 122.63H607.01Z" fill="#415E43"/>
</svg>
