<svg width="973" height="1080" viewBox="0 0 973 1080" fill="none" xmlns="http://www.w3.org/2000/svg">
<path d="M664.04 1184.27C995.709 1184.27 1264.58 915.399 1264.58 583.73C1264.58 252.061 995.709 -16.8101 664.04 -16.8101C332.371 -16.8101 63.4999 252.061 63.4999 583.73C63.4999 915.399 332.371 1184.27 664.04 1184.27Z" fill="#415E43" stroke="black" stroke-miterlimit="10"/>
<path d="M1040.39 875.36C1040.39 839.62 907.72 810.64 744.06 810.64C580.4 810.64 447.73 839.62 447.73 875.36C447.73 885.1 457.6 894.34 475.25 902.62C460.69 902.26 445.85 902.07 430.77 902.07C280.75 902.07 153.48 920.64 108.65 946.38C46.68 950.64 0.330017 967.85 0.330017 988.43C0.330017 1012.22 62.24 1031.5 138.61 1031.5C175.7 1031.5 209.37 1026.95 234.2 1019.55C289.66 1027.08 357.51 1031.51 430.77 1031.51C618.2 1031.51 770.14 1002.53 770.14 966.79C770.14 957.26 759.34 948.21 739.95 940.07C741.32 940.07 742.69 940.08 744.07 940.08C907.73 940.08 1040.4 911.1 1040.4 875.36H1040.39Z" fill="#293A29"/>
<path d="M793.31 265.78C793.69 272.41 794.07 279.05 794.45 285.68C794.8 291.79 795.09 298 797.5 303.72C804.37 319.97 821.66 329.63 836.37 337.72C855.61 348.3 875.28 357.87 894.94 367.64C910.83 375.53 934.89 383.83 940.64 402.6C943.11 410.65 943.13 419.22 943.13 427.63C943.13 506.85 943.28 586.07 943.38 665.28C943.42 696.01 943.46 726.75 943.49 757.48C943.49 760.72 943.49 763.95 943.5 767.19L949.36 771.55C952.93 774.21 955.03 778.4 955.03 782.85C955.03 782.85 955.03 837.49 955.03 837.5C955.03 871.53 918.03 879.66 890.97 880.73C795.9 884.49 700.42 884.57 605.35 880.95C603.46 880.88 601.57 880.8 599.68 880.73C572.63 879.64 535.62 871.53 535.62 837.5C535.62 837.49 535.62 782.85 535.62 782.85C535.62 778.4 537.72 774.21 541.29 771.55L547.15 767.19C547.15 763.95 547.15 760.72 547.16 757.48C547.2 726.75 547.23 696.01 547.27 665.28C547.38 586.06 547.52 506.84 547.52 427.63C547.52 419.21 547.54 410.65 550.01 402.6C555.76 383.83 579.82 375.53 595.71 367.64C615.37 357.87 635.04 348.3 654.28 337.72C668.99 329.63 686.28 319.98 693.15 303.72C695.57 298 695.85 291.79 696.2 285.68C696.58 279.05 696.96 272.41 697.34 265.78" fill="#FAF6EA"/>
<path d="M793.31 265.78C793.69 272.41 794.07 279.05 794.45 285.68C794.8 291.79 795.09 298 797.5 303.72C804.37 319.97 821.66 329.63 836.37 337.72C855.61 348.3 875.28 357.87 894.94 367.64C910.83 375.53 934.89 383.83 940.64 402.6C943.11 410.65 943.13 419.22 943.13 427.63C943.13 506.85 943.28 586.07 943.38 665.28C943.42 696.01 943.46 726.75 943.49 757.48C943.49 760.72 943.49 763.95 943.5 767.19L949.36 771.55C952.93 774.21 955.03 778.4 955.03 782.85C955.03 782.85 955.03 837.49 955.03 837.5C955.03 871.53 918.03 879.66 890.97 880.73C795.9 884.49 700.42 884.57 605.35 880.95C603.46 880.88 601.57 880.8 599.68 880.73C572.63 879.64 535.62 871.53 535.62 837.5C535.62 837.49 535.62 782.85 535.62 782.85C535.62 778.4 537.72 774.21 541.29 771.55L547.15 767.19C547.15 763.95 547.15 760.72 547.16 757.48C547.2 726.75 547.23 696.01 547.27 665.28C547.38 586.06 547.52 506.84 547.52 427.63C547.52 419.21 547.54 410.65 550.01 402.6C555.76 383.83 579.82 375.53 595.71 367.64C615.37 357.87 635.04 348.3 654.28 337.72C668.99 329.63 686.28 319.98 693.15 303.72C695.57 298 695.85 291.79 696.2 285.68C696.58 279.05 696.96 272.41 697.34 265.78" stroke="black" stroke-miterlimit="10"/>
<path d="M949.36 771.87L943.5 767.51C943.5 764.27 943.5 761.04 943.49 757.8C943.45 727.07 943.42 696.33 943.38 665.6C943.27 586.38 943.13 507.16 943.13 427.95C943.13 419.53 943.11 410.97 940.64 402.92C934.89 384.15 910.83 375.85 894.94 367.96C875.28 358.19 855.61 348.62 836.37 338.04C821.66 329.95 804.37 320.3 797.5 304.04H797.06C793.12 302.45 771.46 301.24 745.32 301.24C719.18 301.24 697.53 302.45 693.58 304.04H693.14C686.27 320.29 668.98 329.95 654.27 338.04C635.03 348.62 615.36 358.19 595.7 367.96C579.81 375.85 555.75 384.15 550 402.92C547.53 410.97 547.51 419.54 547.51 427.95C547.51 507.17 547.36 586.39 547.26 665.6C547.22 696.33 547.18 727.07 547.15 757.8C547.15 761.04 547.15 764.27 547.14 767.51L541.28 771.87C537.71 774.53 535.61 778.72 535.61 783.17V837.82C535.61 871.85 572.61 879.97 599.67 881.05C601.56 881.13 603.45 881.2 605.34 881.27C700.41 884.89 795.89 884.81 890.96 881.05C918.02 879.98 955.02 871.85 955.02 837.82V783.17C955.02 778.72 952.92 774.53 949.35 771.87H949.36Z" fill="url(#paint0_linear_20_429)" stroke="black" stroke-miterlimit="10"/>
<path d="M745.33 307.87C774.259 307.87 797.71 306.384 797.71 304.55C797.71 302.716 774.259 301.23 745.33 301.23C716.401 301.23 692.95 302.716 692.95 304.55C692.95 306.384 716.401 307.87 745.33 307.87Z" fill="url(#paint1_linear_20_429)" stroke="black" stroke-miterlimit="10"/>
<path d="M538.83 781.09C545.66 793.89 564.13 793.65 576.6 794.96C593 796.68 609.49 797.26 625.96 797.77C671.99 799.19 718.04 799.92 764.1 799.89C808.5 799.86 852.95 800.35 897.08 794.69C908.24 793.26 919.36 791.45 930.38 789.17C938.01 787.59 945.52 784.24 951.83 779.66" stroke="black" stroke-miterlimit="10"/>
<path d="M889.71 456.19H600.95V733.14H889.71V456.19Z" fill="#FAF6EA" stroke="black" stroke-miterlimit="10"/>
<path d="M791.94 165.28H698.72C697.4 165.28 696.33 166.35 696.33 167.67V182.28C696.33 183.6 697.4 184.67 698.72 184.67H791.94C793.26 184.67 794.33 183.6 794.33 182.28V167.67C794.33 166.35 793.26 165.28 791.94 165.28Z" fill="black" stroke="white" stroke-miterlimit="10"/>
<path d="M697.18 184.54H793.48C794.31 184.54 794.99 185.22 794.99 186.05V188.14C794.99 188.97 794.31 189.65 793.48 189.65H697.18C696.35 189.65 695.67 188.97 695.67 188.14V186.05C695.67 185.22 696.35 184.54 697.18 184.54Z" fill="black"/>
<path d="M793.48 185.04C794.04 185.04 794.49 185.49 794.49 186.05V188.14C794.49 188.7 794.04 189.15 793.48 189.15H697.18C696.62 189.15 696.17 188.7 696.17 188.14V186.05C696.17 185.49 696.62 185.04 697.18 185.04H793.48ZM793.48 184.04H697.18C696.07 184.04 695.17 184.94 695.17 186.05V188.14C695.17 189.25 696.07 190.15 697.18 190.15H793.48C794.59 190.15 795.49 189.25 795.49 188.14V186.05C795.49 184.94 794.59 184.04 793.48 184.04Z" fill="white"/>
<path d="M697.05 189.67H793.35C794.18 189.67 794.86 190.35 794.86 191.18V193.27C794.86 194.1 794.18 194.78 793.35 194.78H697.05C696.22 194.78 695.54 194.1 695.54 193.27V191.18C695.54 190.35 696.22 189.67 697.05 189.67Z" fill="black"/>
<path d="M793.36 190.17C793.92 190.17 794.37 190.62 794.37 191.18V193.27C794.37 193.83 793.92 194.28 793.36 194.28H697.06C696.5 194.28 696.05 193.83 696.05 193.27V191.18C696.05 190.62 696.5 190.17 697.06 190.17H793.36ZM793.36 189.17H697.06C695.95 189.17 695.05 190.07 695.05 191.18V193.27C695.05 194.38 695.95 195.28 697.06 195.28H793.36C794.47 195.28 795.37 194.38 795.37 193.27V191.18C795.37 190.07 794.47 189.17 793.36 189.17Z" fill="white"/>
<path d="M791.94 194.86H698.72C697.4 194.86 696.33 195.93 696.33 197.25V207.05C696.33 208.37 697.4 209.44 698.72 209.44H791.94C793.26 209.44 794.33 208.37 794.33 207.05V197.25C794.33 195.93 793.26 194.86 791.94 194.86Z" fill="black" stroke="white" stroke-miterlimit="10"/>
<path d="M700.75 209.44H789.91C790.74 209.44 791.42 210.12 791.42 210.95V213.04C791.42 213.87 790.74 214.55 789.91 214.55H700.75C699.92 214.55 699.24 213.87 699.24 213.04V210.95C699.24 210.12 699.92 209.44 700.75 209.44Z" fill="black"/>
<path d="M789.91 209.94C790.47 209.94 790.92 210.39 790.92 210.95V213.04C790.92 213.6 790.47 214.05 789.91 214.05H700.75C700.19 214.05 699.74 213.6 699.74 213.04V210.95C699.74 210.39 700.19 209.94 700.75 209.94H789.91ZM789.91 208.94H700.75C699.64 208.94 698.74 209.84 698.74 210.95V213.04C698.74 214.15 699.64 215.05 700.75 215.05H789.91C791.02 215.05 791.92 214.15 791.92 213.04V210.95C791.92 209.84 791.02 208.94 789.91 208.94Z" fill="white"/>
<path d="M700.75 215H789.91C790.74 215 791.42 215.68 791.42 216.51V218.6C791.42 219.43 790.74 220.11 789.91 220.11H700.75C699.92 220.11 699.24 219.43 699.24 218.6V216.51C699.24 215.68 699.92 215 700.75 215Z" fill="black"/>
<path d="M789.91 215.5C790.47 215.5 790.92 215.95 790.92 216.51V218.6C790.92 219.16 790.47 219.61 789.91 219.61H700.75C700.19 219.61 699.74 219.16 699.74 218.6V216.51C699.74 215.95 700.19 215.5 700.75 215.5H789.91ZM789.91 214.5H700.75C699.64 214.5 698.74 215.4 698.74 216.51V218.6C698.74 219.71 699.64 220.61 700.75 220.61H789.91C791.02 220.61 791.92 219.71 791.92 218.6V216.51C791.92 215.4 791.02 214.5 789.91 214.5Z" fill="white"/>
<path d="M695.95 269.17V222.85C695.95 221.33 697.19 220.09 698.71 220.09H791.94C793.46 220.09 794.7 221.33 794.7 222.85V269.17H695.95Z" fill="black"/>
<path d="M791.94 220.47C793.26 220.47 794.33 221.54 794.33 222.86V268.8H696.33V222.86C696.33 221.54 697.4 220.47 698.72 220.47H791.94ZM791.94 219.72H698.72C696.99 219.72 695.58 221.13 695.58 222.86V269.55H795.08V222.86C795.08 221.13 793.67 219.72 791.94 219.72Z" fill="white"/>
<path d="M547.15 767.93C553.71 780.73 571.43 780.49 583.39 781.8C599.13 783.52 614.95 784.1 630.76 784.61C674.94 786.03 719.13 786.76 763.33 786.73C805.94 786.7 848.6 787.19 890.95 781.53C901.66 780.1 912.33 778.29 922.9 776.01C930.22 774.43 937.43 771.08 943.49 766.5" stroke="black" stroke-miterlimit="10"/>
<path d="M792.31 154.58H698.19C695.241 154.58 692.85 156.971 692.85 159.92V162.8C692.85 165.749 695.241 168.14 698.19 168.14H792.31C795.259 168.14 797.65 165.749 797.65 162.8V159.92C797.65 156.971 795.259 154.58 792.31 154.58Z" fill="black"/>
<path d="M792.31 154.96C795.05 154.96 797.27 157.18 797.27 159.92V162.8C797.27 165.54 795.05 167.76 792.31 167.76H698.19C695.45 167.76 693.23 165.54 693.23 162.8V159.92C693.23 157.18 695.45 154.96 698.19 154.96H792.31ZM792.31 154.21H698.19C695.04 154.21 692.48 156.77 692.48 159.92V162.8C692.48 165.95 695.04 168.51 698.19 168.51H792.31C795.46 168.51 798.02 165.95 798.02 162.8V159.92C798.02 156.77 795.46 154.21 792.31 154.21Z" fill="white"/>
<path d="M745.13 581.15C745.26 581.49 745.33 581.83 745.33 582.18C745.33 593.33 676.21 602.36 590.95 602.36C505.69 602.36 436.57 593.32 436.57 582.18C436.57 581.85 436.64 581.52 436.76 581.19C432.82 591.86 430.75 603.11 430.75 614.87C430.75 683.08 473.73 738.37 590.99 738.37C708.25 738.37 751.23 683.08 751.23 614.87C751.23 603.18 749.09 591.87 745.13 581.15Z" fill="#FAF6EA" stroke="black" stroke-miterlimit="10"/>
<path d="M745.13 581.15C745.13 581.15 745.13 581.14 745.13 581.13C743.74 577.57 735.3 574.26 721.61 571.42C694.27 565.75 645.98 561.99 590.96 561.99C535.94 561.99 487.72 565.75 460.37 571.41C446.68 574.24 438.22 577.55 436.8 581.1C436.79 581.13 436.78 581.16 436.77 581.19C436.65 581.52 436.58 581.85 436.58 582.18C436.58 593.33 505.7 602.36 590.96 602.36C676.22 602.36 745.34 593.32 745.34 582.18C745.34 581.84 745.27 581.49 745.14 581.15H745.13Z" fill="#FAF6EA" stroke="black" stroke-miterlimit="10"/>
<path d="M591.01 621.46C506.71 621.46 438.34 627.7 437.96 635.42C437.96 635.47 437.96 635.51 437.96 635.56C438.4 643.27 506.75 649.51 591.01 649.51C675.27 649.51 743.62 643.27 744.06 635.56C744.06 635.51 744.06 635.47 744.06 635.42C743.68 627.71 675.3 621.46 591.01 621.46Z" fill="url(#paint2_linear_20_429)" stroke="black" stroke-miterlimit="10"/>
<path d="M744.02 635.72C742.64 643.35 674.66 649.5 590.98 649.5C507.3 649.5 439.49 643.37 437.95 635.74H437.94C447.58 690.05 491.87 730.86 590.99 730.86C690.11 730.86 734.13 689.62 744.06 635.72H744.03H744.02Z" fill="url(#paint3_linear_20_429)" stroke="black" stroke-miterlimit="10"/>
<path d="M706.39 954.31C706.39 970.6 654.9 978.41 591.38 978.41C527.86 978.41 476.37 970.59 476.37 954.31C476.37 938.03 527.86 917.28 591.38 917.28C654.9 917.28 706.39 938.02 706.39 954.31Z" fill="#FAF6EA" stroke="black" stroke-miterlimit="10"/>
<path d="M436.75 581.19C436.75 581.19 436.77 581.13 436.78 581.1C436.77 581.13 436.76 581.16 436.75 581.19Z" fill="white" stroke="black" stroke-linecap="round" stroke-linejoin="round"/>
<path d="M745.12 581.13C745.12 581.13 745.12 581.14 745.12 581.15C745.12 581.15 745.12 581.14 745.12 581.13Z" fill="white" stroke="black" stroke-linecap="round" stroke-linejoin="round"/>
<path d="M596.04 910.22V745.12C596.04 741.4 601.05 738.08 605.22 738.08C600.6 738.26 595.86 738.36 590.99 738.36C586.39 738.36 581.92 738.27 577.55 738.1C581.72 738.1 586.73 741.42 586.73 745.14V910.22C586.73 921.32 561.4 920.24 561.37 940.19C561.37 944.12 574.81 948.38 591.38 948.38C607.95 948.38 621.39 944.12 621.39 940.19C621.37 920.24 596.03 921.32 596.03 910.22H596.04Z" fill="#FAF6EA" stroke="black" stroke-miterlimit="10"/>
<path d="M699.73 675.32C704.789 675.32 708.89 671.219 708.89 666.16C708.89 661.101 704.789 657 699.73 657C694.671 657 690.57 661.101 690.57 666.16C690.57 671.219 694.671 675.32 699.73 675.32Z" stroke="black" stroke-miterlimit="10"/>
<path d="M658.89 701.4C661.756 701.4 664.08 699.076 664.08 696.21C664.08 693.344 661.756 691.02 658.89 691.02C656.024 691.02 653.7 693.344 653.7 696.21C653.7 699.076 656.024 701.4 658.89 701.4Z" stroke="black" stroke-miterlimit="10"/>
<path d="M604.87 667.21C602 667.21 599.68 669.53 599.68 672.4C599.68 675.27 602 677.59 604.87 677.59C607.74 677.59 610.06 675.27 610.06 672.4C610.06 669.53 607.74 667.21 604.87 667.21Z" stroke="black" stroke-miterlimit="10"/>
<path d="M534.95 691.44C532.08 691.44 529.76 693.76 529.76 696.63C529.76 699.5 532.08 701.82 534.95 701.82C537.82 701.82 540.14 699.5 540.14 696.63C540.14 693.76 537.82 691.44 534.95 691.44Z" stroke="black" stroke-miterlimit="10"/>
<path d="M490.16 658.14C485.87 658.14 482.4 661.61 482.4 665.9C482.4 670.19 485.87 673.66 490.16 673.66C494.45 673.66 497.92 670.19 497.92 665.9C497.92 661.61 494.45 658.14 490.16 658.14Z" stroke="black" stroke-miterlimit="10"/>
<path d="M604.87 717.73C608.813 717.73 612.01 714.534 612.01 710.59C612.01 706.647 608.813 703.45 604.87 703.45C600.927 703.45 597.73 706.647 597.73 710.59C597.73 714.534 600.927 717.73 604.87 717.73Z" stroke="black" stroke-miterlimit="10"/>
<path d="M571.75 658.14C569.61 658.14 567.87 659.88 567.87 662.02C567.87 664.16 569.61 665.9 571.75 665.9C573.89 665.9 575.63 664.16 575.63 662.02C575.63 659.88 573.89 658.14 571.75 658.14Z" stroke="black" stroke-miterlimit="10"/>
<path d="M560.11 677.59C557.97 677.59 556.23 679.33 556.23 681.47C556.23 683.61 557.97 685.35 560.11 685.35C562.25 685.35 563.99 683.61 563.99 681.47C563.99 679.33 562.25 677.59 560.11 677.59Z" stroke="black" stroke-miterlimit="10"/>
<path d="M642.37 657C638.12 657 634.67 660.45 634.67 664.7C634.67 668.95 638.12 672.4 642.37 672.4C646.62 672.4 650.07 668.95 650.07 664.7C650.07 660.45 646.62 657 642.37 657Z" stroke="black" stroke-miterlimit="10"/>
<path d="M459.07 581.15C459.2 581.49 459.27 581.83 459.27 582.18C459.27 593.33 390.15 602.36 304.89 602.36C219.63 602.36 150.51 593.32 150.51 582.18C150.51 581.85 150.58 581.52 150.7 581.19C146.76 591.86 144.69 603.11 144.69 614.87C144.69 683.08 187.67 738.37 304.93 738.37C422.19 738.37 465.17 683.08 465.17 614.87C465.17 603.18 463.03 591.87 459.07 581.15Z" fill="#FAF6EA" stroke="black" stroke-miterlimit="10"/>
<path d="M459.07 581.15C459.07 581.15 459.07 581.14 459.07 581.13C457.68 577.57 449.24 574.26 435.55 571.42C408.21 565.75 359.92 561.99 304.9 561.99C249.88 561.99 201.66 565.75 174.31 571.41C160.62 574.24 152.16 577.55 150.74 581.1C150.73 581.13 150.72 581.16 150.71 581.19C150.59 581.52 150.52 581.85 150.52 582.18C150.52 593.33 219.64 602.36 304.9 602.36C390.16 602.36 459.28 593.32 459.28 582.18C459.28 581.84 459.21 581.49 459.08 581.15H459.07Z" fill="#FAF6EA" stroke="black" stroke-miterlimit="10"/>
<path d="M304.95 621.46C220.65 621.46 152.28 627.7 151.9 635.42C151.9 635.47 151.9 635.51 151.9 635.56C152.34 643.27 220.69 649.51 304.95 649.51C389.21 649.51 457.56 643.27 458 635.56C458 635.51 458 635.47 458 635.42C457.62 627.71 389.24 621.46 304.95 621.46Z" fill="url(#paint4_linear_20_429)" stroke="black" stroke-miterlimit="10"/>
<path d="M457.96 635.72C456.58 643.35 388.6 649.5 304.92 649.5C221.24 649.5 153.43 643.37 151.89 635.74H151.88C161.52 690.05 205.81 730.86 304.93 730.86C404.05 730.86 448.07 689.62 458 635.72H457.97H457.96Z" fill="url(#paint5_linear_20_429)" stroke="black" stroke-miterlimit="10"/>
<path d="M420.33 954.31C420.33 970.6 368.84 978.41 305.32 978.41C241.8 978.41 190.31 970.59 190.31 954.31C190.31 938.03 241.8 917.28 305.32 917.28C368.84 917.28 420.33 938.02 420.33 954.31Z" fill="#FAF6EA" stroke="black" stroke-miterlimit="10"/>
<path d="M150.7 581.19C150.7 581.19 150.72 581.13 150.73 581.1C150.72 581.13 150.71 581.16 150.7 581.19Z" fill="white" stroke="black" stroke-linecap="round" stroke-linejoin="round"/>
<path d="M459.06 581.13C459.06 581.13 459.06 581.14 459.06 581.15C459.06 581.15 459.06 581.14 459.06 581.13Z" fill="white" stroke="black" stroke-linecap="round" stroke-linejoin="round"/>
<path d="M309.98 910.22V745.12C309.98 741.4 314.99 738.08 319.16 738.08C314.54 738.26 309.8 738.36 304.93 738.36C300.33 738.36 295.86 738.27 291.49 738.1C295.66 738.1 300.67 741.42 300.67 745.14V910.22C300.67 921.32 275.34 920.24 275.31 940.19C275.31 944.12 288.75 948.38 305.32 948.38C321.89 948.38 335.33 944.12 335.33 940.19C335.31 920.24 309.97 921.32 309.97 910.22H309.98Z" fill="#FAF6EA" stroke="black" stroke-miterlimit="10"/>
<path d="M209.2 665.02C209.2 670.08 205.1 674.18 200.04 674.18C194.98 674.18 190.88 670.08 190.88 665.02C190.88 659.96 194.98 655.86 200.04 655.86C205.1 655.86 209.2 659.96 209.2 665.02Z" stroke="black" stroke-miterlimit="10"/>
<path d="M240.89 700.26C243.756 700.26 246.08 697.937 246.08 695.07C246.08 692.204 243.756 689.88 240.89 689.88C238.024 689.88 235.7 692.204 235.7 695.07C235.7 697.937 238.024 700.26 240.89 700.26Z" stroke="black" stroke-miterlimit="10"/>
<path d="M294.91 666.07C297.78 666.07 300.1 668.39 300.1 671.26C300.1 674.13 297.78 676.45 294.91 676.45C292.04 676.45 289.72 674.13 289.72 671.26C289.72 668.39 292.04 666.07 294.91 666.07Z" stroke="black" stroke-miterlimit="10"/>
<path d="M364.83 690.3C367.7 690.3 370.02 692.62 370.02 695.49C370.02 698.36 367.7 700.68 364.83 700.68C361.96 700.68 359.64 698.36 359.64 695.49C359.64 692.62 361.96 690.3 364.83 690.3Z" stroke="black" stroke-miterlimit="10"/>
<path d="M409.61 657C413.9 657 417.37 660.47 417.37 664.76C417.37 669.05 413.9 672.521 409.61 672.521C405.32 672.521 401.85 669.05 401.85 664.76C401.85 660.47 405.32 657 409.61 657Z" stroke="black" stroke-miterlimit="10"/>
<path d="M294.91 716.591C298.853 716.591 302.05 713.394 302.05 709.451C302.05 705.507 298.853 702.311 294.91 702.311C290.967 702.311 287.77 705.507 287.77 709.451C287.77 713.394 290.967 716.591 294.91 716.591Z" stroke="black" stroke-miterlimit="10"/>
<path d="M328.03 657C330.17 657 331.91 658.74 331.91 660.88C331.91 663.02 330.17 664.76 328.03 664.76C325.89 664.76 324.15 663.02 324.15 660.88C324.15 658.74 325.89 657 328.03 657Z" stroke="black" stroke-miterlimit="10"/>
<path d="M339.67 676.45C341.81 676.45 343.55 678.19 343.55 680.33C343.55 682.47 341.81 684.21 339.67 684.21C337.53 684.21 335.79 682.47 335.79 680.33C335.79 678.19 337.53 676.45 339.67 676.45Z" stroke="black" stroke-miterlimit="10"/>
<path d="M602.1 613.28C602.23 613.62 602.3 613.96 602.3 614.31C602.3 625.46 533.18 634.49 447.92 634.49C362.66 634.49 293.54 625.45 293.54 614.31C293.54 613.98 293.61 613.65 293.73 613.32C289.79 623.99 287.72 635.24 287.72 647C287.72 715.21 330.7 770.5 447.96 770.5C565.22 770.5 608.2 715.21 608.2 647C608.2 635.31 606.06 624 602.1 613.28Z" fill="#FAF6EA" stroke="black" stroke-miterlimit="10"/>
<path d="M602.1 613.28C602.1 613.28 602.1 613.27 602.1 613.26C600.71 609.7 592.27 606.39 578.58 603.55C551.24 597.88 502.95 594.12 447.93 594.12C392.91 594.12 344.69 597.88 317.34 603.54C303.65 606.37 295.19 609.68 293.77 613.23C293.76 613.26 293.75 613.29 293.74 613.32C293.62 613.65 293.55 613.98 293.55 614.31C293.55 625.46 362.67 634.49 447.93 634.49C533.19 634.49 602.31 625.45 602.31 614.31C602.31 613.97 602.24 613.62 602.11 613.28H602.1Z" fill="#FAF6EA" stroke="black" stroke-miterlimit="10"/>
<path d="M447.98 653.59C363.68 653.59 295.31 659.83 294.93 667.55C294.93 667.6 294.93 667.64 294.93 667.69C295.37 675.4 363.72 681.64 447.98 681.64C532.24 681.64 600.59 675.4 601.03 667.69C601.03 667.64 601.03 667.6 601.03 667.55C600.65 659.84 532.27 653.59 447.98 653.59Z" fill="url(#paint6_linear_20_429)" stroke="black" stroke-miterlimit="10"/>
<path d="M600.99 667.85C599.61 675.48 531.63 681.63 447.95 681.63C364.27 681.63 296.46 675.5 294.92 667.87H294.91C304.55 722.18 348.84 762.99 447.96 762.99C547.08 762.99 591.1 721.75 601.03 667.85H601H600.99Z" fill="url(#paint7_linear_20_429)" stroke="black" stroke-miterlimit="10"/>
<path d="M563.36 986.44C563.36 1002.73 511.87 1010.54 448.35 1010.54C384.83 1010.54 333.34 1002.72 333.34 986.44C333.34 970.16 384.83 949.41 448.35 949.41C511.87 949.41 563.36 970.15 563.36 986.44Z" fill="#FAF6EA" stroke="black" stroke-miterlimit="10"/>
<path d="M293.73 613.31C293.73 613.31 293.75 613.25 293.76 613.22C293.75 613.25 293.74 613.28 293.73 613.31Z" fill="white" stroke="black" stroke-linecap="round" stroke-linejoin="round"/>
<path d="M602.09 613.26C602.09 613.26 602.09 613.27 602.09 613.28C602.09 613.28 602.09 613.27 602.09 613.26Z" fill="white" stroke="black" stroke-linecap="round" stroke-linejoin="round"/>
<path d="M453.01 942.35V777.25C453.01 773.53 458.02 770.21 462.19 770.21C457.57 770.39 452.83 770.49 447.96 770.49C443.36 770.49 438.89 770.4 434.52 770.23C438.69 770.23 443.7 773.55 443.7 777.27V942.35C443.7 953.45 418.37 952.37 418.34 972.32C418.34 976.25 431.78 980.51 448.35 980.51C464.92 980.51 478.36 976.25 478.36 972.32C478.34 952.37 453 953.45 453 942.35H453.01Z" fill="#FAF6EA" stroke="black" stroke-miterlimit="10"/>
<path d="M602.1 224.2C602.23 224.54 602.3 224.88 602.3 225.23C602.3 236.38 533.18 245.41 447.92 245.41C362.66 245.41 293.54 236.37 293.54 225.23C293.54 224.9 293.61 224.57 293.73 224.24C289.79 234.91 287.72 246.16 287.72 257.92C287.72 326.13 330.7 381.42 447.96 381.42C565.22 381.42 608.2 326.13 608.2 257.92C608.2 246.23 606.06 234.92 602.1 224.2Z" fill="#FAF6EA" stroke="black" stroke-miterlimit="10"/>
<path d="M602.1 224.2C602.1 224.2 602.1 224.19 602.1 224.18C600.71 220.62 592.27 217.31 578.58 214.47C551.24 208.8 502.95 205.04 447.93 205.04C392.91 205.04 344.69 208.8 317.34 214.46C303.65 217.29 295.19 220.6 293.77 224.15C293.76 224.18 293.75 224.21 293.74 224.24C293.62 224.57 293.55 224.9 293.55 225.23C293.55 236.38 362.67 245.41 447.93 245.41C533.19 245.41 602.31 236.37 602.31 225.23C602.31 224.89 602.24 224.54 602.11 224.2H602.1Z" fill="#FAF6EA" stroke="black" stroke-miterlimit="10"/>
<path d="M397.51 229.97L307.27 197.51C307.32 197.24 307.35 196.97 307.35 196.69C307.35 194.31 305.41 192.37 303.04 192.37C300.67 192.37 298.72 194.31 298.72 196.69C298.72 199.07 300.66 201.01 303.04 201.01C304.35 201.01 305.5 200.41 306.3 199.49L396.77 232.03C396.89 232.07 397.02 232.1 397.14 232.1C397.59 232.1 398.01 231.82 398.17 231.37C398.37 230.8 398.08 230.17 397.51 229.97ZM303.05 198.76C301.91 198.76 300.97 197.83 300.97 196.68C300.97 195.53 301.9 194.6 303.05 194.6C304.2 194.6 305.13 195.53 305.13 196.68C305.13 197.83 304.2 198.76 303.05 198.76Z" fill="#C4C4C4" stroke="black" stroke-linecap="round" stroke-linejoin="round"/>
<path d="M447.98 264.52C363.68 264.52 295.31 270.76 294.93 278.48C294.93 278.53 294.93 278.57 294.93 278.62C295.37 286.33 363.72 292.57 447.98 292.57C532.24 292.57 600.59 286.33 601.03 278.62C601.03 278.57 601.03 278.53 601.03 278.48C600.65 270.77 532.27 264.52 447.98 264.52Z" fill="url(#paint8_linear_20_429)" stroke="black" stroke-miterlimit="10"/>
<path d="M600.99 278.77C599.61 286.4 531.63 292.55 447.95 292.55C364.27 292.55 296.46 286.42 294.92 278.79H294.91C304.55 333.1 348.84 373.91 447.96 373.91C547.08 373.91 591.1 332.67 601.03 278.77H601H600.99Z" fill="url(#paint9_linear_20_429)" stroke="black" stroke-miterlimit="10"/>
<path d="M563.36 597.36C563.36 613.65 511.87 621.46 448.35 621.46C384.83 621.46 333.34 613.64 333.34 597.36C333.34 581.08 384.83 560.33 448.35 560.33C511.87 560.33 563.36 581.07 563.36 597.36Z" fill="#FAF6EA" stroke="black" stroke-miterlimit="10"/>
<path d="M293.73 224.24C293.73 224.24 293.75 224.18 293.76 224.15C293.75 224.18 293.74 224.21 293.73 224.24Z" fill="white" stroke="black" stroke-linecap="round" stroke-linejoin="round"/>
<path d="M602.09 224.18C602.09 224.18 602.09 224.19 602.09 224.2C602.09 224.2 602.09 224.19 602.09 224.18Z" fill="white" stroke="black" stroke-linecap="round" stroke-linejoin="round"/>
<path d="M417.88 222.1C417.88 242.74 401.15 259.47 380.51 259.47C359.87 259.47 343.14 242.74 343.14 222.1C343.14 220.47 343.25 218.87 343.45 217.3C344.85 205.73 352 206.64 356.37 201.35C361.45 195.2 360.43 187.96 371.77 185.77C374.6 185.22 377.5 184.74 380.52 184.74C401.16 184.74 417.89 201.47 417.89 222.11L417.88 222.1Z" fill="#B1262A" stroke="black" stroke-linecap="round" stroke-linejoin="round"/>
<path d="M502.97 267.89L388.53 226.72C388.47 226.7 388.41 226.69 388.35 226.68C387.89 227.16 387.57 227.81 387.61 228.71C387.66 228.74 387.72 228.77 387.78 228.79L502.22 269.96C502.34 270 502.47 270.02 502.59 270.02C503.04 270.02 503.46 269.74 503.62 269.29C503.82 268.72 503.53 268.09 502.96 267.89H502.97Z" fill="#C4C4C4" stroke="black" stroke-linecap="round" stroke-linejoin="round"/>
<path d="M388.15 230.61C387.79 229.88 387.63 229.25 387.61 228.71C387.57 227.82 387.89 227.16 388.35 226.68C389.26 225.74 390.68 225.49 390.68 225.49" stroke="black" stroke-linecap="round" stroke-linejoin="round"/>
<path d="M453.01 553.28V388.18C453.01 384.46 458.02 381.14 462.19 381.14C457.57 381.32 452.83 381.42 447.96 381.42C443.36 381.42 438.89 381.33 434.52 381.16C438.69 381.16 443.7 384.48 443.7 388.2V553.28C443.7 564.38 418.37 563.3 418.34 583.25C418.34 587.18 431.78 591.44 448.35 591.44C464.92 591.44 478.36 587.18 478.36 583.25C478.34 563.3 453 564.38 453 553.28H453.01Z" fill="#FAF6EA" stroke="black" stroke-miterlimit="10"/>
<path d="M366.857 156.725C367.294 156.169 366.683 154.961 365.493 154.026C364.303 153.091 362.985 152.784 362.548 153.34C362.111 153.896 362.722 155.104 363.912 156.039C365.102 156.974 366.421 157.281 366.857 156.725Z" fill="#385F25" stroke="black" stroke-linecap="round" stroke-linejoin="round"/>
<path d="M360.27 206.05C360.34 205.96 360.41 205.87 360.47 205.78C353.63 199.85 350.08 193.06 349.94 185.58C349.74 174.6 356.93 164.59 361.36 159.48C362.52 158.1 365.41 157.73 366.72 156.67L364.97 155.29C364.95 155.14 364.91 154.99 364.8 154.88C364.63 154.7 364.39 154.63 364.17 154.66L362.42 153.28C361.38 154.18 361.67 156.89 360.78 157.92C359.41 159.45 357.73 161.5 356.03 163.96C352.5 169.08 348.33 177 348.49 185.6C348.63 193.47 352.31 200.59 359.4 206.78C359.72 206.59 360.01 206.35 360.27 206.05Z" fill="#538F37" stroke="black" stroke-linecap="round" stroke-linejoin="round"/>
<path d="M361.69 200.82C361.69 200.82 361.91 203.79 360.47 205.78C360.4 205.87 360.34 205.96 360.27 206.05C360.01 206.36 359.71 206.59 359.4 206.78C357.68 207.82 355.37 207.31 355.37 207.31" stroke="black" stroke-linecap="round" stroke-linejoin="round"/>
<path d="M285.9 314.85C284.06 312.7 284.04 310.77 284.02 309.07V308.49C283.78 299.21 283.55 289.92 283.32 280.64C282.94 265.08 282.56 249.53 282.15 233.97C282.15 233.6 282.19 233.19 282.23 232.8C282.39 231.38 282.36 230.68 281.46 230.38C281.36 230.35 281.27 230.33 281.17 230.33C280.56 230.33 279.95 231.01 279.35 231.67C279.12 231.93 278.89 232.18 278.66 232.39C274.81 236.02 270.96 239.67 267.11 243.31C264.09 246.17 261.08 249.03 258.06 251.88C256.69 253.18 255.06 254.66 253.09 255.76L251.09 256.89L252.44 255.03C257.87 247.58 264.19 241.03 270.89 234.09C273.77 231.11 276.74 228.03 279.71 224.81C248.5 224.79 222.4 224.55 195.76 222.18V221.18C224.03 219.05 252.5 218.69 279.11 218.64L249.02 186.6L252.84 189.22C260.7 194.62 267.42 201.11 274.54 207.98C276.92 210.28 279.37 212.65 281.89 214.99L284.1 129.14H286.75L286.77 129.63C288.16 163.33 288.81 189.84 288.86 215.4C293.15 211.61 297.13 207.72 300.99 203.96C306.61 198.48 311.92 193.3 317.84 188.66L318.18 188.39L319.68 189.85L292.36 218.68H296.83C327.83 218.68 353.78 219.1 379.66 221.14V222.14C356.25 223.95 331.03 224.8 300.32 224.8C297.66 224.8 295 224.8 292.33 224.78C296.52 229.84 301.04 234.39 305.41 238.8C310.31 243.74 314.94 248.4 319.08 253.67L319.35 254.02L317.81 255.57L288.9 228.4C288.79 256.15 288.1 284.34 286.77 314.54L286.71 315.8L285.89 314.84L285.9 314.85Z" fill="#FAF6EA"/>
<path d="M284.59 129.66C285.15 129.66 285.71 129.66 286.27 129.66C287.45 158.21 288.32 186.76 288.36 216.51C299.16 207.08 307.84 197.13 318.15 189.05C318.43 189.32 318.71 189.59 318.98 189.86C309.99 199.35 301 208.84 291.2 219.18C293.08 219.18 294.95 219.18 296.81 219.18C325.07 219.18 352.37 219.49 379.62 221.64C353.5 223.66 327.35 224.29 300.32 224.29C297.31 224.29 294.3 224.29 291.26 224.27C300.19 235.26 310.55 243.65 318.68 253.97C318.38 254.27 318.09 254.57 317.79 254.86C308.26 245.9 298.72 236.94 288.4 227.23C288.3 256.63 287.56 285.16 286.27 314.5C284.34 312.26 284.55 310.29 284.5 308.45C283.88 283.61 283.29 258.77 282.64 233.93C282.6 232.52 283.43 230.49 281.61 229.88C281.46 229.83 281.31 229.81 281.17 229.81C280.06 229.81 279.18 231.19 278.32 232.01C271.44 238.5 264.59 245.01 257.72 251.5C256.23 252.91 254.69 254.27 252.84 255.31C260.8 244.38 270.79 235.3 280.84 224.3C251.66 224.28 223.69 224.16 195.79 221.67C223.56 219.57 251.37 219.17 280.25 219.13C270.45 208.69 261.5 199.16 252.54 189.63C263.33 197.04 272.13 206.68 282.35 216.11C283.11 186.61 283.84 158.13 284.58 129.64M283.61 128.66L283.59 129.64L282.06 188.97L281.42 213.89C279.19 211.8 277.01 209.7 274.89 207.65C267.76 200.76 261.02 194.26 253.12 188.83L245.48 183.58L251.83 190.34L268.11 207.68L277.95 218.16C251.66 218.22 223.59 218.59 195.72 220.7V222.69C222.04 225.04 247.84 225.29 278.56 225.32C275.85 228.24 273.15 231.04 270.52 233.76C263.81 240.71 257.48 247.27 252.03 254.75L249.33 258.46L253.33 256.21C255.35 255.07 257.01 253.57 258.4 252.25C261.36 249.45 264.32 246.65 267.28 243.85C271.18 240.15 275.09 236.45 279 232.76C279.25 232.53 279.49 232.26 279.72 232.01C280.19 231.49 280.78 230.83 281.17 230.83C281.21 230.83 281.25 230.83 281.3 230.85C281.79 231.01 281.89 231.25 281.73 232.74C281.69 233.15 281.64 233.57 281.65 233.98C282.06 249.6 282.45 265.49 282.83 280.85C283.06 290.07 283.28 299.29 283.51 308.5C283.51 308.69 283.51 308.88 283.51 309.08C283.53 310.78 283.55 312.9 285.51 315.18L287.16 317.1L287.27 314.58C288.57 284.8 289.27 256.96 289.39 229.57L313.64 252.36L317.11 255.62L317.82 256.29L318.51 255.6L319.4 254.71L320.03 254.08L319.48 253.38C315.31 248.09 310.68 243.42 305.77 238.47C301.64 234.31 297.39 230.02 293.41 225.3C295.72 225.3 298.03 225.31 300.33 225.31C331.06 225.31 356.28 224.47 379.71 222.65V220.66C353.81 218.61 327.84 218.19 296.82 218.19C295.73 218.19 294.63 218.19 293.53 218.19L319.71 190.56L320.39 189.84L319.68 189.15L318.97 188.46L318.85 188.34L318.22 187.73L317.53 188.27C311.58 192.93 306.26 198.12 300.63 203.61C297.03 207.13 293.31 210.75 289.35 214.3C289.28 189.07 288.64 162.82 287.26 129.62L287.22 128.67H286.26L284.58 128.66H283.6H283.61Z" fill="black"/>
<path d="M749.79 650.97C748.39 649.34 748.38 647.89 748.36 646.6V646.17C748.18 639.36 748.02 632.55 747.85 625.74C747.56 614.15 747.28 602.55 746.98 590.96C746.98 590.69 747 590.38 747.04 590.08C747.16 588.98 747.11 588.61 746.56 588.43C746.5 588.41 746.45 588.4 746.39 588.4C746 588.4 745.54 588.9 745.14 589.35C744.97 589.54 744.79 589.73 744.62 589.89C741.77 592.57 738.93 595.27 736.09 597.96C733.85 600.09 731.6 602.21 729.36 604.33C728.34 605.3 727.12 606.4 725.65 607.23L723.65 608.36L725 606.5C729.02 600.97 733.71 596.12 738.67 590.98C740.74 588.84 742.87 586.63 745 584.32C722.01 584.3 702.75 584.12 683.09 582.37V581.37C703.93 579.8 724.92 579.53 744.55 579.49L721.64 555.1L725.46 557.72C731.29 561.73 736.28 566.54 741.55 571.63C743.25 573.27 744.99 574.95 746.78 576.63L748.42 513.19H750.63L750.65 513.68C751.68 538.51 752.16 558.08 752.2 576.94C755.29 574.19 758.17 571.38 760.97 568.66C765.14 564.6 769.07 560.76 773.47 557.31L773.81 557.04L775.09 558.29L754.97 579.52H757.94C780.93 579.52 800.17 579.83 819.34 581.34V582.34C801.99 583.68 783.32 584.31 760.56 584.31C758.68 584.31 756.8 584.31 754.91 584.3C757.96 587.96 761.24 591.26 764.42 594.47C768.05 598.13 771.48 601.59 774.56 605.49L774.83 605.84L773.52 607.16L752.23 587.15C752.15 607.59 751.63 628.38 750.66 650.67L750.6 651.93L749.78 650.97H749.79Z" fill="#FAF6EA"/>
<path d="M748.91 513.7C749.33 513.7 749.74 513.7 750.15 513.7C751.03 534.85 751.67 556 751.7 578.04C759.7 571.05 766.13 563.69 773.77 557.7C773.98 557.9 774.18 558.1 774.39 558.3C767.73 565.33 761.07 572.36 753.81 580.02C755.2 580.02 756.59 580.02 757.98 580.02C778.91 580.02 799.14 580.25 819.32 581.84C799.97 583.34 780.6 583.81 760.57 583.81C758.34 583.81 756.11 583.81 753.87 583.79C760.48 591.93 768.16 598.15 774.18 605.79C773.96 606.01 773.74 606.23 773.52 606.45C766.46 599.81 759.4 593.17 751.75 585.99C751.68 607.77 751.12 628.9 750.17 650.64C748.74 648.98 748.89 647.52 748.86 646.16C748.4 627.76 747.96 609.36 747.48 590.96C747.45 589.92 748.06 588.41 746.71 587.96C746.6 587.92 746.49 587.91 746.38 587.91C745.56 587.91 744.91 588.93 744.27 589.54C739.18 594.34 734.1 599.17 729.01 603.98C727.9 605.03 726.76 606.03 725.4 606.8C731.3 598.7 738.7 591.98 746.14 583.83C724.52 583.82 703.8 583.72 683.14 581.88C703.71 580.33 724.31 580.03 745.71 580C738.45 572.27 731.82 565.21 725.19 558.15C733.19 563.64 739.71 570.78 747.27 577.76C747.83 555.91 748.38 534.81 748.92 513.71M747.94 512.7L747.92 513.68L746.33 575.51C744.83 574.09 743.35 572.67 741.92 571.28C736.63 566.17 731.63 561.34 725.76 557.31L718.12 552.06L724.46 558.82L743.41 578.99C724.1 579.04 703.52 579.33 683.07 580.87V582.86C702.4 584.58 721.36 584.78 743.86 584.81C741.99 586.81 740.13 588.74 738.32 590.62C733.34 595.77 728.64 600.64 724.6 606.2L721.9 609.91L725.9 607.66C727.42 606.8 728.66 605.68 729.71 604.69C731.91 602.61 734.11 600.53 736.3 598.45C739.19 595.72 742.07 592.98 744.97 590.25C745.15 590.08 745.33 589.88 745.52 589.68C745.75 589.43 746.22 588.91 746.4 588.89C746.58 588.95 746.67 588.98 746.56 590.02C746.53 590.33 746.49 590.65 746.5 590.97C746.8 602.57 747.09 614.16 747.37 625.76C747.54 632.56 747.7 639.37 747.88 646.17C747.88 646.31 747.88 646.45 747.88 646.59C747.89 647.89 747.91 649.51 749.43 651.28L751.08 653.2L751.19 650.67C752.15 628.82 752.66 608.39 752.76 588.28L766.64 601.32L772.86 607.17L773.57 607.84L774.26 607.15L774.59 606.82L774.92 606.49L775.54 605.86L774.99 605.16C771.9 601.23 768.46 597.76 764.81 594.09C761.88 591.14 758.87 588.1 756.03 584.78C757.55 584.78 759.07 584.78 760.59 584.78C783.36 584.78 802.05 584.15 819.41 582.81V580.82C800.22 579.3 780.98 578.99 758 578.99C757.39 578.99 756.77 578.99 756.16 578.99L775.14 558.96L775.82 558.24L775.11 557.55L774.63 557.08L774.49 556.95L773.86 556.34L773.17 556.88C768.75 560.34 764.81 564.19 760.63 568.26C758.09 570.74 755.48 573.28 752.71 575.78C752.65 557.26 752.17 537.97 751.16 513.62L751.12 512.67H750.16H749.6H748.91H747.93L747.94 512.7Z" fill="black"/>
<path d="M337.46 317.44C342.519 317.44 346.62 313.339 346.62 308.28C346.62 303.221 342.519 299.12 337.46 299.12C332.401 299.12 328.3 303.221 328.3 308.28C328.3 313.339 332.401 317.44 337.46 317.44Z" stroke="black" stroke-miterlimit="10"/>
<path d="M378.31 343.52C381.176 343.52 383.5 341.196 383.5 338.33C383.5 335.464 381.176 333.14 378.31 333.14C375.444 333.14 373.12 335.464 373.12 338.33C373.12 341.196 375.444 343.52 378.31 343.52Z" stroke="black" stroke-miterlimit="10"/>
<path d="M432.33 309.34C435.2 309.34 437.52 311.66 437.52 314.53C437.52 317.4 435.2 319.72 432.33 319.72C429.46 319.72 427.14 317.4 427.14 314.53C427.14 311.66 429.46 309.34 432.33 309.34Z" stroke="black" stroke-miterlimit="10"/>
<path d="M502.25 333.57C505.12 333.57 507.44 335.89 507.44 338.76C507.44 341.63 505.12 343.95 502.25 343.95C499.38 343.95 497.06 341.63 497.06 338.76C497.06 335.89 499.38 333.57 502.25 333.57Z" stroke="black" stroke-miterlimit="10"/>
<path d="M547.03 300.27C551.32 300.27 554.79 303.74 554.79 308.03C554.79 312.32 551.32 315.79 547.03 315.79C542.74 315.79 539.27 312.32 539.27 308.03C539.27 303.74 542.74 300.27 547.03 300.27Z" stroke="black" stroke-miterlimit="10"/>
<path d="M432.33 359.86C436.273 359.86 439.47 356.663 439.47 352.72C439.47 348.777 436.273 345.58 432.33 345.58C428.387 345.58 425.19 348.777 425.19 352.72C425.19 356.663 428.387 359.86 432.33 359.86Z" stroke="black" stroke-miterlimit="10"/>
<path d="M465.45 300.27C467.59 300.27 469.33 302.01 469.33 304.15C469.33 306.29 467.59 308.03 465.45 308.03C463.31 308.03 461.57 306.29 461.57 304.15C461.57 302.01 463.31 300.27 465.45 300.27Z" stroke="black" stroke-miterlimit="10"/>
<path d="M477.09 319.72C479.23 319.72 480.97 321.46 480.97 323.6C480.97 325.74 479.23 327.48 477.09 327.48C474.95 327.48 473.21 325.74 473.21 323.6C473.21 321.46 474.95 319.72 477.09 319.72Z" stroke="black" stroke-miterlimit="10"/>
<path d="M552.06 708.34C557.119 708.34 561.22 704.239 561.22 699.18C561.22 694.121 557.119 690.02 552.06 690.02C547.001 690.02 542.9 694.121 542.9 699.18C542.9 704.239 547.001 708.34 552.06 708.34Z" stroke="black" stroke-miterlimit="10"/>
<path d="M511.22 734.42C514.086 734.42 516.41 732.096 516.41 729.23C516.41 726.364 514.086 724.04 511.22 724.04C508.354 724.04 506.03 726.364 506.03 729.23C506.03 732.096 508.354 734.42 511.22 734.42Z" stroke="black" stroke-miterlimit="10"/>
<path d="M457.2 700.24C454.33 700.24 452.01 702.56 452.01 705.43C452.01 708.3 454.33 710.62 457.2 710.62C460.07 710.62 462.39 708.3 462.39 705.43C462.39 702.56 460.07 700.24 457.2 700.24Z" stroke="black" stroke-miterlimit="10"/>
<path d="M387.28 724.46C384.41 724.46 382.09 726.78 382.09 729.65C382.09 732.52 384.41 734.84 387.28 734.84C390.15 734.84 392.47 732.52 392.47 729.65C392.47 726.78 390.15 724.46 387.28 724.46Z" stroke="black" stroke-miterlimit="10"/>
<path d="M342.49 691.17C338.2 691.17 334.73 694.64 334.73 698.93C334.73 703.22 338.2 706.69 342.49 706.69C346.78 706.69 350.25 703.22 350.25 698.93C350.25 694.64 346.78 691.17 342.49 691.17Z" stroke="black" stroke-miterlimit="10"/>
<path d="M457.2 750.75C461.143 750.75 464.34 747.553 464.34 743.61C464.34 739.667 461.143 736.47 457.2 736.47C453.257 736.47 450.06 739.667 450.06 743.61C450.06 747.553 453.257 750.75 457.2 750.75Z" stroke="black" stroke-miterlimit="10"/>
<path d="M424.08 691.17C421.94 691.17 420.2 692.91 420.2 695.05C420.2 697.19 421.94 698.93 424.08 698.93C426.22 698.93 427.96 697.19 427.96 695.05C427.96 692.91 426.22 691.17 424.08 691.17Z" stroke="black" stroke-miterlimit="10"/>
<path d="M412.44 710.62C410.3 710.62 408.56 712.36 408.56 714.5C408.56 716.64 410.3 718.38 412.44 718.38C414.58 718.38 416.32 716.64 416.32 714.5C416.32 712.36 414.58 710.62 412.44 710.62Z" stroke="black" stroke-miterlimit="10"/>
<path d="M176.57 977.32L62.33 947.64C62.36 947.31 62.37 946.97 62.33 946.62C62.06 943.7 59.47 941.55 56.56 941.81C53.65 942.07 51.4899 944.67 51.7499 947.58C52.0199 950.5 54.6099 952.65 57.5199 952.39C59.1199 952.24 60.47 951.38 61.34 950.17L175.88 979.93C176.04 979.97 176.19 979.98 176.34 979.97C176.89 979.92 177.38 979.53 177.52 978.96C177.71 978.24 177.27 977.5 176.55 977.31L176.57 977.32ZM57.2799 949.65C55.8799 949.78 54.6299 948.74 54.4999 947.34C54.3699 945.94 55.41 944.69 56.81 944.56C58.21 944.43 59.46 945.47 59.59 946.87C59.72 948.27 58.6799 949.52 57.2799 949.65Z" fill="#C4C4C4" stroke="black" stroke-linecap="round" stroke-linejoin="round"/>
<path d="M163.28 976.62C149.96 997.19 122.49 1003.07 101.92 989.75C81.35 976.43 75.47 948.96 88.79 928.39C89.84 926.77 90.99 925.25 92.19 923.8C101.06 913.18 107.59 918.69 115.36 916.24C124.39 913.39 128.05 905.51 140.77 910.65C143.95 911.93 147.15 913.33 150.15 915.27C170.72 928.59 176.6 956.06 163.28 976.63V976.62Z" fill="#B1262A" stroke="black" stroke-miterlimit="10"/>
<path d="M206.46 964.24C194.87 1003.44 153.69 1025.81 114.49 1014.22C98.2799 1009.42 84.94 999.56 75.7 986.88C76.77 986.05 77.91 985.18 79.1 984.26C87.81 996.25 100.39 1005.58 115.71 1010.11C152.63 1021.03 191.42 999.95 202.34 963.03C209.36 939.3 203.16 914.8 188.04 897.43C189.07 896.34 190.06 895.29 190.99 894.29C207.25 912.76 213.96 938.92 206.46 964.26V964.24Z" fill="#95B558" stroke="black" stroke-linecap="round" stroke-linejoin="round"/>
<path d="M143.81 937.56C143.93 938.06 144.11 938.44 144.22 938.66C144.63 939.48 147.27 941.51 153.9 940.53C160.53 939.55 174 935.45 178.34 934.92C182.69 934.39 193.91 933.66 195.41 931.91C196.91 930.16 196.83 925.97 196.04 921.77C194.7 914.65 189.58 912.22 188.3 910.15C187.02 908.08 186.12 904.02 184.1 902.42C183.93 902.29 183.76 902.16 183.58 902.03C185.14 900.44 186.63 898.9 188.03 897.43C203.16 914.81 209.35 939.31 202.33 963.03C191.41 999.95 152.62 1021.03 115.7 1010.11C100.39 1005.58 87.8 996.26 79.09 984.26C95.78 971.44 122.94 950.9 135.47 943.25C138.05 941.68 140.85 939.75 143.79 937.57L143.81 937.56Z" fill="#E4EFBF" stroke="black" stroke-linecap="round" stroke-linejoin="round"/>
<path d="M188.3 910.14C189.58 912.22 194.69 914.65 196.04 921.76C196.83 925.97 196.91 930.15 195.41 931.9C193.91 933.65 182.69 934.38 178.34 934.91C173.99 935.44 160.53 939.54 153.9 940.52C147.27 941.5 144.63 939.47 144.22 938.65C144.11 938.43 143.93 938.05 143.81 937.55C156.59 928.08 172.03 913.77 183.59 902.01C183.76 902.13 183.93 902.26 184.11 902.4C186.13 904 187.03 908.06 188.31 910.13L188.3 910.14Z" fill="#BCD06A" stroke="black" stroke-linecap="round" stroke-linejoin="round"/>
<path d="M90.9501 989.55C95.3401 995.31 101 995.2 103.07 996.48C105.15 997.76 107.76 1000.99 110.28 1001.52C112.8 1002.05 115.14 1002.06 117.62 996.33C120.1 990.59 128.68 964.12 130.84 958.95C133 953.79 130.46 951.81 129.73 951.26C129 950.71 125.73 950.08 120.24 953.92C114.75 957.76 104.54 967.46 100.89 969.88C97.24 972.3 87.5301 977.97 86.9701 980.21C86.4101 982.45 88.3601 986.16 90.9501 989.56V989.55Z" fill="#BCD06A" stroke="black" stroke-linecap="round" stroke-linejoin="round"/>
<path d="M171.42 994.22C177.74 990.68 182.74 982.67 184.3 980.8C185.86 978.92 189.42 976.78 190.29 974.36C191.16 971.93 190.9 971.57 185.57 968.32C180.24 965.07 155.61 953.27 150.37 951.3C145.97 949.65 145.1 950.24 144.45 950.88C143.8 951.52 142.55 953.88 145.6 959.85C148.64 965.82 151.61 978.04 153.5 981.99C155.39 985.94 159.65 996.35 161.79 997.21C163.93 998.07 167.68 996.32 171.42 994.23V994.22Z" fill="#BCD06A" stroke="black" stroke-linecap="round" stroke-linejoin="round"/>
<path d="M133.49 1006.12C137.05 1006.33 140.65 1007.09 145.95 1006.09C151.26 1005.08 158.28 1000.62 158.66 999.32C159.04 998.02 146.24 967.34 144.51 962.48C142.77 957.61 142.28 951.93 137.74 951.95C133.2 951.97 133.11 958.11 130.91 964.62C128.71 971.14 120.95 994.7 119.36 998.03C117.77 1001.37 118.09 1003.95 123.38 1005.41C128.67 1006.86 130.63 1005.95 133.49 1006.12Z" fill="#BCD06A" stroke="black" stroke-linecap="round" stroke-linejoin="round"/>
<path d="M196.59 935.92C194.25 933.35 184.9 935.95 178.72 936.44C172.54 936.93 155.79 942.86 151.64 943.26C147.49 943.66 147.15 944.33 146.63 945.67C146.11 947.01 148 949.65 152.34 950.55C156.69 951.45 166.71 954.96 171.51 957.25C176.3 959.54 181.43 964.15 186.95 966.28C192.47 968.42 194.72 963.25 196.13 958.8C197.54 954.36 196.89 949.57 197.94 945.36C198.99 941.15 198.36 937.86 196.58 935.91L196.59 935.92Z" fill="#BCD06A" stroke="black" stroke-linecap="round" stroke-linejoin="round"/>
<path d="M165.17 979.16C164.64 978.3 164.38 977.55 164.29 976.89C164.14 975.8 164.46 974.96 164.97 974.32C165.98 973.06 167.7 972.6 167.7 972.6" stroke="black" stroke-linecap="round" stroke-linejoin="round"/>
<path d="M310.08 1011.99L165.19 974.35C165.12 974.33 165.04 974.32 164.97 974.32C164.46 974.95 164.14 975.8 164.29 976.89C164.36 976.92 164.43 976.95 164.51 976.97L309.4 1014.61C309.56 1014.65 309.71 1014.66 309.86 1014.65C310.41 1014.6 310.9 1014.21 311.04 1013.64C311.23 1012.92 310.79 1012.18 310.07 1011.99H310.08Z" fill="#C4C4C4" stroke="black" stroke-linecap="round" stroke-linejoin="round"/>
<defs>
<linearGradient id="paint0_linear_20_429" x1="745.33" y1="301.23" x2="745.33" y2="883.93" gradientUnits="userSpaceOnUse">
<stop stop-color="#FFE2A3"/>
<stop offset="1" stop-color="#FFD279"/>
</linearGradient>
<linearGradient id="paint1_linear_20_429" x1="745.33" y1="-17.3093" x2="745.33" y2="307.87" gradientUnits="userSpaceOnUse">
<stop stop-color="#FFE2A3"/>
<stop offset="1" stop-color="#FFD279"/>
</linearGradient>
<linearGradient id="paint2_linear_20_429" x1="591.01" y1="621.46" x2="591.01" y2="649.51" gradientUnits="userSpaceOnUse">
<stop stop-color="#FFE2A3"/>
<stop offset="1" stop-color="#FFD279"/>
</linearGradient>
<linearGradient id="paint3_linear_20_429" x1="591" y1="635.72" x2="591" y2="730.87" gradientUnits="userSpaceOnUse">
<stop stop-color="#FFE2A3"/>
<stop offset="1" stop-color="#FFD279"/>
</linearGradient>
<linearGradient id="paint4_linear_20_429" x1="304.95" y1="621.46" x2="304.95" y2="649.51" gradientUnits="userSpaceOnUse">
<stop stop-color="#FFE2A3"/>
<stop offset="1" stop-color="#FFD279"/>
</linearGradient>
<linearGradient id="paint5_linear_20_429" x1="304.94" y1="635.72" x2="304.94" y2="730.87" gradientUnits="userSpaceOnUse">
<stop stop-color="#FFE2A3"/>
<stop offset="1" stop-color="#FFD279"/>
</linearGradient>
<linearGradient id="paint6_linear_20_429" x1="447.98" y1="653.59" x2="447.98" y2="681.63" gradientUnits="userSpaceOnUse">
<stop stop-color="#FFE2A3"/>
<stop offset="1" stop-color="#FFD279"/>
</linearGradient>
<linearGradient id="paint7_linear_20_429" x1="447.97" y1="667.85" x2="447.97" y2="762.99" gradientUnits="userSpaceOnUse">
<stop stop-color="#FFE2A3"/>
<stop offset="1" stop-color="#FFD279"/>
</linearGradient>
<linearGradient id="paint8_linear_20_429" x1="447.98" y1="264.52" x2="447.98" y2="292.56" gradientUnits="userSpaceOnUse">
<stop stop-color="#FFE2A3"/>
<stop offset="1" stop-color="#FFD279"/>
</linearGradient>
<linearGradient id="paint9_linear_20_429" x1="447.97" y1="278.77" x2="447.97" y2="373.92" gradientUnits="userSpaceOnUse">
<stop stop-color="#FFE2A3"/>
<stop offset="1" stop-color="#FFD279"/>
</linearGradient>
</defs>
</svg>
