<svg width="837" height="182" viewBox="0 0 837 182" fill="none" xmlns="http://www.w3.org/2000/svg">
<path d="M0.640015 124.03C0.640015 71.4796 40.32 3.05957 92.87 3.05957C107.46 3.05957 116.46 7.98957 123.54 16.9996C126.11 20.6496 127.62 20.6496 129.55 16.3596L134.27 4.98958L139.2 5.62958L122.04 65.4696H116.89C120.97 35.0096 117.75 12.7096 94.8 12.7096C54.48 12.7096 26.59 80.9196 26.59 123.17C26.59 151.27 38.39 166.71 58.12 166.71C83.22 166.71 102.31 142.26 115.39 113.3H121.61C105.09 151.48 85.58 181.29 48.9 181.29C16.08 181.29 0.640015 156.62 0.640015 124.02V124.03Z" fill="#415E43"/>
<path d="M128.05 143.97C128.05 103.22 158.94 60.96 190.68 60.96C209.77 60.96 222.64 75.76 222.64 98.28C222.64 138.82 191.75 180.86 159.8 180.86C140.93 180.86 128.06 166.7 128.06 143.97H128.05ZM202.48 91.42C202.48 78.34 198.41 69.97 189.18 69.97C170.73 69.97 148.43 116.51 148.43 150.62C148.43 163.49 152.29 171.64 161.51 171.64C179.96 171.64 202.48 125.95 202.48 91.42Z" fill="#415E43"/>
<path d="M230.36 145.9C230.36 107.72 260.17 60.75 291.49 60.75C302.86 60.75 311.44 68.04 311.44 80.7C311.44 93.36 304.36 105.15 295.78 105.15C291.06 105.15 288.06 101.5 288.06 97.21C288.06 88.42 299.64 87.99 299.64 76.83C299.64 72.75 297.49 69.11 291.27 69.11C270.68 69.11 252.02 112.22 252.02 142.04C252.02 156.2 255.88 166.92 265.96 166.92C277.76 166.92 289.77 153.62 299.42 134.53H304.14C292.34 163.7 275.61 180.86 257.17 180.86C240.65 180.86 230.36 167.56 230.36 145.9Z" fill="#415E43"/>
<path d="M412.04 140.33H416.97C407.53 160.92 395.74 179.8 378.36 179.8C363.77 179.8 359.06 165.21 357.98 142.26C357.55 136.47 357.34 129.82 357.77 123.39C388.66 115.88 399.38 93.7898 399.38 83.9198C399.38 78.7698 397.02 76.8398 393.8 76.8398C384.79 76.8398 356.05 96.9998 326.45 177.86H305.64L354.54 27.4998C358.4 15.4898 356.47 11.1998 341.46 11.1998L342.75 6.26981C363.98 6.26981 376.85 4.7698 380.93 0.0498047L383.72 1.5498L341.25 130.03H342.75C364.2 82.1998 388.01 61.6098 404.74 61.6098C415.25 61.6098 420.18 68.8998 420.18 76.6198C420.18 90.1298 405.38 113.73 377.71 122.09C377.71 128.1 378.78 136.46 379.43 143.11C380.93 157.91 383.08 165.85 389.51 165.85C396.8 165.85 404.74 155.34 412.03 140.33H412.04Z" fill="#415E43"/>
<path d="M453.01 144.83C451.08 151.05 448.94 157.27 448.94 161.35C448.94 164.78 449.8 166.93 453.44 166.93C463.09 166.93 474.67 152.56 483.25 135.19H488.4C478.32 159 461.37 179.8 442.28 179.8C431.77 179.8 427.48 174.22 427.48 165.64C427.48 159.85 429.62 152.56 432.41 144.62L458.15 71.05H442.06L444.42 65.26C464.37 64.19 474.45 54.32 483.89 36.73H490.97L480.89 64.18H501.91L499.76 71.04H478.74L453 144.82L453.01 144.83Z" fill="#415E43"/>
<path d="M598.65 139.04H603.58C595.86 158.13 581.7 179.79 564.33 179.79C552.96 179.79 549.1 173.78 549.1 166.06C549.1 161.13 551.67 155.98 554.89 147.4L563.26 123.81H561.33C551.03 146.12 531.3 180.22 512.21 180.22C498.7 180.22 492.69 168.64 492.69 152.12C492.69 113.94 527.22 61.1799 557.04 61.1799C571.41 61.1799 577.2 71.6899 576.34 85.4199H576.98L583.2 68.2599C591.78 68.2599 598.64 64.3999 602.29 59.8999L605.72 61.8299L574.83 148.05C573.11 152.98 570.11 160.28 570.11 163.28C570.11 166.5 570.97 168.21 573.97 168.21C581.91 168.21 591.34 154.7 598.64 139.04H598.65ZM564.54 107.51C566.9 100.65 568.62 93.7799 568.62 86.6999C568.62 77.4799 566.05 72.1099 558.97 72.1099C539.88 72.1099 513.93 119.08 513.93 149.54C513.93 159.19 515.86 164.55 521.01 164.55C533.66 164.55 556.4 131.09 564.55 107.5L564.54 107.51Z" fill="#415E43"/>
<path d="M681.23 1.5498L633.83 147.83C632.11 152.76 629.75 160.27 629.75 163.27C629.75 166.49 630.61 168.2 633.61 168.2C641.55 168.2 650.98 154.69 658.28 139.03H663.21C655.49 158.12 641.33 179.78 623.96 179.78C612.59 179.78 608.73 173.77 608.73 166.05C608.73 161.12 610.45 155.75 613.45 147.18L652.06 27.4998C656.14 15.4898 654.2 11.1998 639.19 11.1998L640.48 6.26981C665.36 6.26981 673.94 4.3398 678.66 0.0498047L681.23 1.5498Z" fill="#415E43"/>
<path d="M742.57 132.18H747.29C735.28 161.78 718.12 180.87 697.74 180.87C680.8 180.87 669.64 169.07 669.64 147.84C669.64 111.38 700.74 60.9697 732.27 60.9697C744.93 60.9697 752.86 68.9097 752.86 80.4897C752.86 104.51 722.62 124.67 693.02 129.18C691.73 135.4 691.09 141.41 691.09 146.55C691.09 160.49 697.52 167.14 707.18 167.14C719.83 167.14 731.85 153.84 742.57 132.18ZM694.74 122.31C717.69 116.52 738.07 98.9297 738.07 78.9797C738.07 72.7597 736.35 69.1097 730.99 69.1097C715.76 69.1097 701.18 96.9897 694.74 122.3V122.31Z" fill="#415E43"/>
<path d="M751.37 158.77C751.37 152.98 755.44 149.12 760.59 149.12C764.88 149.12 766.38 151.91 768.53 157.91C772.39 167.99 777.32 173.14 786.12 173.14C795.99 173.14 800.92 165.85 800.92 155.77C800.92 147.62 797.06 141.4 791.7 133.89L785.91 124.88C777.97 113.08 773.25 105.36 773.25 94.64C773.25 74.48 790.62 60.54 811.22 60.54C828.38 60.54 836.74 70.41 836.74 77.7C836.74 83.49 832.24 87.35 827.52 87.35C822.8 87.35 821.3 83.92 819.8 78.77C817.65 72.76 814.44 68.05 806.07 68.05C797.7 68.05 791.06 73.84 791.06 84.35C791.06 91.86 794.92 99.36 800.71 107.73L806.07 116.52C814.22 129.17 818.72 136.04 818.72 146.33C818.72 165.85 803.28 180.86 782.69 180.86C765.75 180.86 751.38 170.56 751.38 158.77H751.37Z" fill="#415E43"/>
</svg>
